{"glyphs":{"0":{"ha":668,"x_min":31,"x_max":644,"o":"m 278 -17 q 96 60 161 -17 q 31 272 31 138 q 135 586 31 464 q 400 708 239 708 q 580 632 515 708 q 644 422 644 556 q 542 106 644 229 q 278 -17 439 -17 m 147 333 q 147 292 147 333 q 193 208 147 251 q 328 165 239 165 q 472 217 417 165 q 526 351 526 269 q 480 476 526 433 q 344 519 433 519 q 201 467 256 519 q 147 333 147 414 z "},"1":{"ha":490,"x_min":0,"x_max":442,"o":"m 314 154 q 364 90 314 90 l 429 94 l 432 88 l 406 -6 q 235 0 281 0 q 158 -1 189 0 q 101 -6 128 -3 q 50 -10 74 -8 q 0 -15 26 -12 l 19 72 q 118 106 89 79 q 154 200 147 132 q 193 532 193 513 q 183 565 193 551 q 133 578 172 578 l 67 571 l 60 581 l 78 660 q 223 677 144 665 q 349 696 301 689 q 432 708 396 703 l 442 667 q 376 558 396 632 q 314 154 314 258 z "},"2":{"ha":649,"x_min":-17,"x_max":625,"o":"m 335 494 q 257 561 335 561 q 101 454 179 561 l 83 454 l 71 557 q 208 668 133 628 q 363 708 283 708 q 494 665 442 708 q 546 549 546 621 q 492 402 546 478 q 249 140 438 326 l 254 129 l 375 129 q 465 156 436 129 q 517 256 494 182 l 625 265 q 556 4 578 117 l 533 -12 q 76 0 204 0 l -11 -12 l -17 33 l 97 149 q 278 358 224 279 q 335 494 335 439 z "},"3":{"ha":581,"x_min":-25,"x_max":519,"o":"m 106 507 l 89 506 l 72 604 q 199 673 122 638 q 349 708 276 708 q 470 669 421 708 q 519 565 519 629 q 472 445 519 501 q 346 357 425 389 l 344 346 q 510 179 510 299 q 442 31 510 106 q 272 -92 375 -44 q 68 -139 168 -139 q -7 -110 11 -139 q -25 -48 -25 -82 q -24 3 -25 -14 l -3 22 q 121 4 43 4 q 259 46 199 4 q 319 150 319 88 q 138 247 319 247 l 126 261 l 128 347 l 217 367 q 300 428 268 390 q 332 503 332 467 q 312 557 332 539 q 260 575 292 575 q 106 507 192 575 z "},"4":{"ha":631,"x_min":-24,"x_max":593,"o":"m 408 706 q 417 708 410 706 l 533 693 l 475 218 l 583 218 l 593 203 l 567 88 q 461 92 524 89 l 444 -110 l 432 -122 l 269 -139 l 261 -125 q 296 96 281 -4 q -24 101 88 101 q -16 148 -21 117 q -8 194 -11 179 l 408 706 m 329 465 l 135 218 l 311 218 l 343 465 l 329 465 z "},"5":{"ha":572,"x_min":-40,"x_max":579,"o":"m 501 201 q 356 -32 501 75 q 53 -139 210 -139 q -21 -111 -1 -139 q -40 -28 -40 -83 q -39 3 -40 -14 l -18 22 q 108 4 31 4 q 248 45 186 4 q 310 142 310 86 q 257 226 310 197 q 75 275 204 256 l 65 290 l 139 665 l 150 676 l 411 686 q 469 700 450 689 q 503 742 488 711 l 579 747 l 519 543 l 500 525 q 236 536 381 536 l 211 408 q 428 333 356 382 q 501 201 501 285 z "},"6":{"ha":622,"x_min":29,"x_max":597,"o":"m 588 294 q 494 72 588 161 q 257 -17 401 -17 q 90 54 150 -17 q 29 228 29 125 q 59 415 29 332 q 136 555 89 497 q 240 662 183 613 q 356 742 297 711 q 536 822 482 807 l 567 831 l 579 824 l 597 747 q 522 711 575 742 q 428 650 468 681 q 342 568 389 619 q 265 458 296 517 l 269 450 q 319 474 271 450 q 388 501 368 499 q 535 442 482 501 q 588 294 588 383 m 417 245 q 417 277 417 245 q 391 344 417 310 q 317 379 365 379 q 210 340 268 379 q 196 240 196 268 q 222 134 196 172 q 301 96 247 96 q 385 138 354 96 q 417 245 417 181 z "},"7":{"ha":574,"x_min":43,"x_max":613,"o":"m 275 692 l 567 692 l 613 625 q 279 18 478 393 l 217 -139 l 193 -139 l 74 -101 l 63 -67 l 433 547 l 258 536 q 171 508 194 531 q 126 414 147 486 l 43 406 q 103 690 81 564 l 113 697 q 275 692 192 692 z "},"8":{"ha":642,"x_min":31,"x_max":613,"o":"m 31 163 q 206 386 31 307 q 99 569 99 463 q 188 753 99 676 q 401 831 276 831 q 551 783 490 831 q 613 656 613 735 q 468 449 613 522 q 582 261 582 374 q 487 66 582 149 q 260 -17 392 -17 q 95 33 160 -17 q 31 163 31 82 m 186 201 q 216 119 186 153 q 294 86 246 86 q 379 120 343 86 q 415 204 415 154 q 369 283 415 250 q 275 343 328 314 q 186 201 186 285 m 367 721 q 346 721 367 721 q 295 691 325 721 q 265 620 265 661 q 296 552 265 579 q 389 490 326 525 q 456 622 456 544 q 432 695 456 669 q 367 721 408 721 z "},"9":{"ha":622,"x_min":32,"x_max":601,"o":"m 43 397 q 135 619 43 531 q 372 708 228 708 q 540 638 479 708 q 601 463 601 567 q 572 277 601 360 q 494 136 542 194 q 390 29 447 78 q 275 -50 333 -19 q 64 -140 161 -111 l 51 -132 l 32 -56 q 108 -19 54 -50 q 201 41 161 11 q 287 122 240 71 q 364 232 333 174 l 358 242 q 331 228 354 240 q 242 190 267 193 q 95 249 147 190 q 43 397 43 308 m 213 445 q 213 413 213 445 q 238 347 213 381 q 312 313 264 313 q 418 350 360 313 q 432 461 432 404 q 407 557 432 518 q 329 596 382 596 q 244 553 276 596 q 213 445 213 510 z "}," ":{"ha":231,"x_min":0,"x_max":0,"o":""},"!":{"ha":381,"x_min":36,"x_max":397,"o":"m 253 107 q 253 83 253 107 q 218 22 253 58 q 133 -15 183 -15 q 60 10 83 -15 q 36 83 36 35 q 72 168 36 132 q 156 204 107 204 q 229 180 206 204 q 253 107 253 156 m 124 328 l 168 925 l 189 949 l 376 979 l 397 954 l 235 325 l 143 310 l 124 328 z "},"\"":{"ha":432,"x_min":97,"x_max":472,"o":"m 267 908 l 275 894 q 188 594 236 742 l 117 567 l 97 572 q 126 889 118 701 l 267 908 m 464 908 l 472 894 q 385 594 433 742 l 314 567 l 294 572 q 322 889 314 714 l 464 908 z "},"#":{"ha":708,"x_min":6,"x_max":725,"o":"m 86 488 l 81 503 l 111 600 l 243 599 l 303 792 l 406 801 l 419 793 l 356 599 l 417 599 l 478 597 l 538 792 l 640 801 l 654 793 l 590 599 l 719 601 l 725 585 l 694 488 l 556 488 l 515 358 l 643 360 l 649 343 l 619 247 l 483 247 l 426 61 l 326 46 l 313 57 l 374 247 l 300 249 l 249 247 l 192 61 l 90 46 l 78 57 l 138 247 l 11 246 l 6 263 l 36 358 l 171 357 l 211 488 l 86 488 m 321 489 l 281 357 l 339 357 l 406 356 l 447 489 l 321 489 z "},"$":{"ha":606,"x_min":19,"x_max":619,"o":"m 168 236 q 165 179 165 211 q 265 94 165 94 q 348 116 317 94 q 379 171 379 138 q 350 226 379 204 q 269 274 321 249 q 197 313 218 300 q 144 350 175 325 q 85 478 85 396 q 156 625 85 561 q 344 704 228 689 l 390 901 l 489 914 l 496 901 l 450 707 q 613 679 532 701 l 619 663 q 569 476 589 575 l 472 469 l 463 476 q 469 526 469 510 q 378 594 469 594 q 301 573 332 594 q 271 518 271 551 q 353 433 271 476 q 398 411 364 428 q 449 385 432 394 q 494 356 467 375 q 535 321 521 338 q 571 225 571 278 q 494 65 571 128 q 286 -10 418 1 l 240 -210 l 143 -221 l 135 -211 l 181 -10 q 28 29 100 -1 l 19 46 q 63 228 50 143 l 168 236 z "},"%":{"ha":961,"x_min":61,"x_max":946,"o":"m 261 567 q 381 672 381 567 q 352 740 381 715 q 269 765 324 765 q 151 660 151 765 q 181 590 151 613 q 261 567 211 567 m 233 429 q 108 480 154 429 q 61 621 61 531 q 128 829 61 750 q 303 908 196 908 q 428 856 383 908 q 472 719 472 804 q 407 510 472 592 q 233 429 342 429 m 624 215 q 739 122 624 122 q 854 226 854 122 q 826 296 854 271 q 742 321 797 321 q 655 293 686 321 q 624 215 624 265 m 706 -17 q 581 35 626 -17 q 535 175 535 86 q 602 383 535 304 q 776 463 669 463 q 901 410 857 463 q 946 274 946 358 q 880 65 946 146 q 706 -17 814 -17 m 836 907 l 846 881 q 476 315 601 510 l 196 -129 l 106 -92 l 99 -72 q 386 367 267 178 l 750 942 l 836 907 z "},"&":{"ha":881,"x_min":39,"x_max":985,"o":"m 332 657 q 413 631 382 657 q 443 573 443 606 q 433 524 443 540 l 440 519 q 588 690 536 608 q 656 869 639 771 l 669 883 l 718 883 q 769 743 769 782 q 726 668 769 722 q 510 445 632 546 q 193 232 389 344 q 396 108 247 108 q 555 161 492 108 q 642 310 618 214 l 597 315 q 518 261 572 315 l 511 261 l 471 315 l 471 321 l 579 432 l 601 439 q 726 426 626 439 q 843 413 826 413 q 939 468 872 413 l 947 468 l 985 415 l 985 408 l 879 297 l 854 289 l 761 299 q 597 72 714 161 q 344 -17 481 -17 q 124 70 208 -17 q 39 301 39 157 q 128 551 39 444 q 332 657 218 657 m 163 347 q 165 304 163 329 q 295 397 265 365 q 325 475 325 429 q 278 521 325 521 q 197 473 231 521 q 163 347 163 425 z "},"'":{"ha":236,"x_min":97,"x_max":275,"o":"m 267 908 l 275 894 q 188 594 236 742 l 117 567 l 97 572 q 126 889 118 701 l 267 908 z "},"(":{"ha":414,"x_min":75,"x_max":454,"o":"m 236 247 q 231 158 231 194 q 235 77 231 122 q 256 -11 239 32 q 325 -122 288 -89 l 339 -133 l 338 -144 l 274 -203 l 263 -203 q 192 -152 232 -190 q 126 -70 151 -114 q 88 36 100 -26 q 76 142 76 99 q 81 226 76 186 l 110 467 q 156 642 121 563 q 231 768 190 722 q 375 889 311 860 l 401 901 l 417 901 l 454 838 l 451 829 q 400 790 433 822 q 344 724 367 758 q 297 626 321 689 q 265 488 274 563 l 236 247 z "},")":{"ha":419,"x_min":-31,"x_max":347,"o":"m 186 451 q 192 540 192 504 q 188 622 192 576 q 167 711 183 667 q 97 819 135 788 l 83 832 l 85 843 l 149 901 l 160 901 q 183 889 168 897 q 235 847 199 881 q 296 769 271 813 q 333 662 321 725 q 346 555 346 599 q 342 472 346 511 l 311 232 q 265 56 300 136 q 190 -69 231 -24 q 47 -192 108 -162 l 21 -203 l 6 -203 l -31 -139 l -29 -131 q 24 -90 -7 -119 q 78 -25 54 -60 q 124 73 101 10 q 157 211 147 136 l 186 451 z "},"*":{"ha":546,"x_min":111,"x_max":583,"o":"m 140 935 q 282 843 210 899 l 272 786 l 261 778 l 111 819 q 126 931 111 882 l 140 935 m 140 651 q 271 758 196 706 l 322 731 l 326 719 l 242 588 q 140 638 181 607 l 140 651 m 408 564 q 347 722 375 633 l 390 763 l 403 763 l 500 640 q 422 560 464 589 l 408 564 m 575 793 q 407 783 517 783 l 382 835 l 385 849 l 532 904 q 583 804 569 853 l 575 793 m 410 1022 q 367 858 394 946 l 308 851 l 299 857 l 289 1014 q 400 1033 350 1033 l 410 1022 z "},"+":{"ha":678,"x_min":21,"x_max":668,"o":"m 440 690 l 456 681 q 417 425 431 533 l 661 433 l 668 417 l 638 289 l 399 288 l 372 54 l 246 33 l 233 44 q 264 288 250 174 l 29 286 l 21 301 l 56 426 q 282 425 175 425 l 313 675 l 440 690 z "},",":{"ha":318,"x_min":-33,"x_max":232,"o":"m 28 150 q 135 197 90 197 q 206 164 179 197 q 232 66 232 131 q 171 -71 232 1 q 19 -194 110 -143 l -33 -153 l -33 -129 q 39 -56 11 -99 q 67 37 67 -12 q 25 131 67 86 l 28 150 z "},"-":{"ha":433,"x_min":43,"x_max":400,"o":"m 389 435 l 400 417 l 375 306 l 54 269 l 43 286 l 67 394 l 389 435 z "},".":{"ha":319,"x_min":24,"x_max":240,"o":"m 240 107 q 240 83 240 107 q 205 22 240 58 q 119 -15 169 -15 q 47 9 69 -15 q 24 83 24 33 q 59 168 24 132 q 144 204 94 204 q 217 180 193 204 q 240 107 240 156 z "},"/":{"ha":440,"x_min":-31,"x_max":504,"o":"m 489 938 l 504 917 q 97 -153 331 476 l -21 -153 l -31 -137 q 146 314 68 103 l 376 938 l 489 938 z "},":":{"ha":318,"x_min":24,"x_max":286,"o":"m 240 107 q 240 83 240 107 q 205 22 240 58 q 119 -15 169 -15 q 47 9 69 -15 q 24 83 24 33 q 59 168 24 132 q 144 204 94 204 q 217 180 193 204 q 240 107 240 156 m 286 486 q 286 462 286 486 q 251 401 286 438 q 165 364 215 364 q 92 388 115 364 q 69 462 69 413 q 105 547 69 511 q 190 583 140 583 q 263 559 239 583 q 286 486 286 535 z "},";":{"ha":318,"x_min":-35,"x_max":286,"o":"m 26 150 q 133 197 89 197 q 204 164 178 197 q 231 66 231 131 q 169 -71 231 1 q 18 -194 108 -143 l -35 -153 l -35 -129 q 38 -56 10 -99 q 65 37 65 -12 q 24 131 65 86 l 26 150 m 286 486 q 286 462 286 486 q 251 401 286 438 q 165 364 215 364 q 92 388 115 364 q 69 462 69 413 q 105 547 69 511 q 190 583 140 583 q 263 559 239 583 q 286 486 286 535 z "},"<":{"ha":625,"x_min":36,"x_max":603,"o":"m 46 296 l 36 314 l 56 449 l 571 668 l 588 657 l 603 551 q 181 383 481 507 l 179 374 l 553 190 l 557 169 l 488 79 q 46 296 307 171 z "},"=":{"ha":678,"x_min":6,"x_max":683,"o":"m 646 311 l 653 294 l 622 167 l 14 164 l 6 179 l 40 304 q 353 303 235 303 l 646 311 m 676 558 l 683 542 l 654 414 l 44 411 l 36 426 l 71 551 q 383 550 264 550 l 676 558 z "},">":{"ha":625,"x_min":36,"x_max":603,"o":"m 594 451 l 603 433 l 585 297 l 68 79 l 53 89 l 36 196 q 458 363 163 242 l 460 372 l 86 556 l 82 578 l 151 668 q 356 564 258 613 l 594 451 z "},"?":{"ha":497,"x_min":74,"x_max":539,"o":"m 365 700 q 139 833 365 819 l 131 853 l 194 969 l 217 979 q 448 912 357 975 q 539 756 539 849 q 505 644 539 694 q 436 567 471 593 q 283 464 369 515 l 279 454 l 283 339 l 274 324 l 149 299 l 133 307 l 122 482 l 129 501 l 283 589 q 365 700 365 636 m 290 107 q 290 83 290 107 q 255 22 290 58 q 170 -15 219 -15 q 97 10 121 -15 q 74 83 74 35 q 108 168 74 132 q 193 204 143 204 q 267 180 243 204 q 290 107 290 156 z "},"@":{"ha":1161,"x_min":22,"x_max":1154,"o":"m 674 -17 q 628 -1 644 -17 q 613 49 613 14 q 660 268 613 83 l 649 269 q 425 -17 533 60 q 307 38 349 -17 q 265 186 265 92 q 373 501 265 356 q 600 647 481 647 l 721 622 l 731 653 l 747 663 l 858 643 l 869 619 q 763 117 796 336 l 771 108 q 963 191 893 108 q 1033 408 1033 274 q 922 682 1033 583 q 610 781 810 781 q 278 637 411 781 q 146 276 146 493 q 280 -77 146 58 q 672 -219 414 -212 l 672 -242 l 629 -311 q 183 -151 343 -306 q 22 249 22 3 q 72 491 22 374 q 204 697 121 608 q 406 838 288 785 q 657 892 525 892 q 1018 769 882 892 q 1154 448 1154 647 q 1026 116 1154 249 q 674 -17 897 -17 m 468 146 q 563 250 499 146 q 681 497 626 354 q 558 538 610 538 q 476 451 514 538 q 439 263 439 365 q 447 180 439 214 q 468 146 456 146 z "},"A":{"ha":839,"x_min":-54,"x_max":822,"o":"m 803 -4 q 642 0 696 0 q 408 -11 536 0 l 403 0 l 419 82 q 508 99 486 88 q 529 140 529 110 q 514 288 529 157 q 403 290 478 290 q 264 281 328 290 l 219 174 q 206 122 206 140 q 260 86 206 86 l 318 86 l 322 78 l 303 -8 q 108 0 193 0 l -54 -4 l -33 88 q 65 181 26 97 l 385 883 l 603 907 l 618 900 q 725 182 682 421 q 753 112 733 132 q 817 86 772 92 l 822 76 l 803 -4 m 406 396 q 504 401 443 396 l 465 711 l 446 711 l 313 396 l 406 396 z "},"B":{"ha":843,"x_min":7,"x_max":797,"o":"m 413 -14 l 207 0 q 7 -14 138 0 l 28 78 q 111 112 88 89 q 140 189 135 135 q 210 761 210 744 q 203 790 210 778 q 174 803 197 803 l 128 800 l 119 811 l 143 894 q 329 890 282 890 l 524 899 q 725 849 653 899 q 797 710 797 800 q 625 471 797 560 q 747 397 704 446 q 790 282 790 347 q 686 68 790 150 q 413 -14 582 -14 m 314 168 q 339 119 314 136 q 433 103 364 103 q 544 145 503 103 q 586 260 586 188 q 469 392 586 364 l 347 390 q 314 168 314 176 m 600 668 q 433 786 600 786 q 414 781 419 786 q 364 511 403 771 q 489 499 465 499 q 526 519 504 503 q 561 553 547 535 q 600 668 600 597 z "},"C":{"ha":825,"x_min":44,"x_max":838,"o":"m 697 39 q 407 -17 575 -17 q 142 83 239 -17 q 44 356 44 182 q 184 757 44 607 q 558 907 324 907 q 832 874 657 907 l 838 856 q 769 594 796 740 l 635 586 q 647 678 647 651 q 510 776 647 776 q 326 674 392 776 q 261 382 261 572 q 308 181 261 250 q 435 111 354 111 q 560 156 515 111 q 635 303 604 200 l 769 313 q 711 56 729 169 l 697 39 z "},"D":{"ha":928,"x_min":10,"x_max":915,"o":"m 393 -17 q 207 0 261 0 q 10 -14 121 0 l 31 79 q 110 113 88 89 q 142 196 133 138 q 210 762 210 746 q 204 790 210 778 q 175 801 199 801 l 129 799 l 124 811 l 144 894 q 315 890 263 890 l 517 897 q 808 802 700 897 q 915 539 915 707 q 767 142 915 300 q 393 -17 618 -17 m 444 781 q 414 774 422 781 q 403 747 406 767 q 315 172 315 213 q 337 115 315 131 q 415 100 358 100 q 624 213 547 100 q 700 522 700 326 q 444 781 700 781 z "},"E":{"ha":800,"x_min":7,"x_max":811,"o":"m 364 513 l 489 511 l 646 522 l 654 511 l 621 393 q 465 397 514 397 q 344 389 415 397 q 313 148 313 171 q 328 116 313 125 q 392 107 343 107 q 553 133 515 107 q 619 265 592 160 l 735 275 l 743 261 q 674 4 703 138 l 658 -10 q 300 0 410 0 q 7 -14 138 0 l 29 79 q 109 113 86 88 q 139 197 132 138 q 208 765 208 749 q 203 792 208 781 q 172 803 199 803 l 131 800 l 124 813 l 144 894 q 485 890 292 890 q 803 907 678 890 l 811 893 q 750 642 772 771 l 625 633 q 636 718 636 682 q 606 766 636 754 q 502 778 575 778 q 417 771 429 778 q 400 732 406 764 l 364 513 z "},"F":{"ha":714,"x_min":7,"x_max":779,"o":"m 342 364 q 314 156 314 175 q 322 121 314 136 q 364 106 331 106 l 451 113 l 461 99 l 435 -6 q 236 0 293 0 q 7 -15 147 0 l 28 76 q 109 113 86 88 q 139 197 132 138 q 208 765 208 749 q 203 792 208 781 q 172 803 199 803 l 131 800 l 124 813 l 144 894 q 473 890 292 890 q 771 907 654 890 l 779 893 q 721 640 743 768 l 597 632 q 608 718 608 682 q 582 766 608 754 q 492 778 556 778 q 417 771 429 778 q 400 732 406 764 l 361 489 l 486 488 l 628 499 l 636 488 l 604 369 q 451 374 506 374 q 342 364 397 374 z "},"G":{"ha":874,"x_min":44,"x_max":838,"o":"m 576 453 l 647 451 l 682 451 q 772 454 731 451 q 814 458 814 457 l 817 406 q 756 292 768 375 q 732 103 732 171 l 733 57 l 719 40 q 586 1 678 19 q 408 -17 494 -17 q 142 83 239 -17 q 44 356 44 182 q 184 757 44 607 q 558 907 324 907 q 832 874 657 907 l 838 856 q 769 604 796 750 l 635 594 q 647 681 647 654 q 510 776 647 776 q 326 674 392 776 q 261 382 261 572 q 308 181 261 250 q 443 111 354 111 q 512 120 478 111 q 578 147 546 129 q 594 307 594 290 q 586 335 594 324 q 543 346 578 346 l 474 346 l 468 357 l 494 454 l 500 454 l 544 453 l 576 453 z "},"H":{"ha":1000,"x_min":8,"x_max":1021,"o":"m 921 93 l 926 83 l 904 -4 q 739 0 811 0 l 683 0 l 519 -3 l 542 88 q 620 115 597 89 q 653 215 643 140 l 675 394 q 532 396 581 396 l 343 382 q 314 140 314 149 q 314 118 314 132 q 356 89 317 89 l 404 93 l 410 83 l 388 -4 q 229 0 274 0 q 133 -3 185 0 q 8 -12 8 -7 l 29 76 q 114 116 93 90 q 143 217 135 142 q 208 765 208 750 q 202 792 208 781 q 167 803 196 803 l 126 801 l 121 813 l 140 893 q 301 890 246 890 l 506 901 l 488 810 q 420 784 436 801 q 396 710 404 767 l 363 510 q 518 508 421 510 q 689 517 615 507 q 719 763 719 747 q 713 790 719 778 q 678 803 706 803 l 636 801 l 631 813 l 651 893 q 840 890 799 890 l 1021 901 l 1004 811 q 936 790 954 804 q 911 735 918 775 q 855 387 885 585 q 825 152 825 189 q 835 102 825 115 q 871 89 846 89 l 921 93 z "},"I":{"ha":489,"x_min":7,"x_max":515,"o":"m 135 893 l 322 890 l 515 901 l 496 810 q 426 788 444 803 q 400 735 407 774 q 313 144 313 228 q 322 101 313 113 q 356 89 332 89 l 414 93 l 418 83 l 396 -4 q 211 0 257 0 q 7 -12 117 0 l 28 76 q 110 113 88 89 q 140 193 133 136 q 208 765 208 750 q 202 791 208 779 q 167 803 196 803 l 121 801 l 115 813 l 135 893 z "},"J":{"ha":446,"x_min":-58,"x_max":486,"o":"m 124 171 q 196 765 196 750 q 190 791 196 779 q 157 803 183 803 l 99 799 l 94 810 l 114 890 l 281 892 q 486 903 364 892 l 467 810 q 408 788 422 801 q 388 735 394 775 q 299 142 333 425 q 203 -81 281 3 q -26 -212 125 -165 l -58 -157 l -53 -142 q 72 -22 36 -85 q 124 171 107 42 z "},"K":{"ha":885,"x_min":8,"x_max":933,"o":"m 140 193 q 208 765 208 750 q 202 792 208 781 q 167 803 196 803 l 126 801 l 121 813 l 142 894 q 322 890 285 890 l 510 901 l 492 810 q 421 783 440 800 q 396 729 401 767 l 315 183 q 313 138 313 157 q 317 108 313 118 q 356 89 324 89 l 408 93 l 414 83 l 390 -4 q 197 0 256 0 l 8 -4 l 32 83 q 113 114 92 93 q 140 193 133 135 m 599 688 q 647 768 647 736 q 583 804 647 800 l 579 814 l 600 899 q 768 890 713 890 l 926 897 l 933 882 l 914 804 q 829 756 867 786 q 731 661 792 726 l 561 482 l 703 201 q 765 110 735 138 q 839 79 796 82 l 847 68 l 828 -4 q 668 -21 692 -21 q 533 96 589 -21 l 374 439 l 381 468 l 599 688 z "},"L":{"ha":713,"x_min":14,"x_max":711,"o":"m 140 893 l 322 890 l 532 901 l 511 806 q 426 780 446 797 q 390 676 406 763 q 344 395 374 590 q 315 165 315 200 q 331 119 315 131 q 389 107 346 107 q 519 145 483 107 q 586 317 556 183 l 703 328 l 711 315 q 636 3 671 165 l 621 -11 q 300 0 406 0 q 14 -14 142 0 l 36 79 q 110 113 89 88 q 139 197 132 138 q 208 764 208 749 q 201 791 208 779 q 165 803 194 803 l 125 801 l 119 813 l 140 893 z "},"M":{"ha":1126,"x_min":-4,"x_max":1124,"o":"m 815 893 l 944 892 q 1118 899 968 892 l 1124 893 l 1104 810 q 1026 790 1047 806 q 1000 736 1004 775 q 974 217 983 590 q 974 168 974 200 q 982 113 974 136 q 1022 89 990 89 l 1061 92 l 1065 85 l 1043 -4 q 919 0 963 0 q 794 -4 875 0 q 707 -11 714 -8 l 729 81 q 788 102 769 86 q 811 150 807 118 l 844 624 l 832 624 q 551 -11 669 267 l 450 -22 q 326 624 392 300 l 315 624 q 228 125 228 147 q 265 89 228 89 l 311 90 l 318 83 l 292 -6 q 132 0 176 0 l -4 -11 l 17 81 q 77 108 57 86 q 108 181 97 129 q 226 751 226 722 q 206 792 226 779 q 133 808 186 804 l 126 817 l 149 897 q 318 890 269 890 l 467 896 q 565 319 508 599 l 576 319 q 815 893 693 582 z "},"N":{"ha":976,"x_min":17,"x_max":1025,"o":"m 722 803 l 676 801 l 672 813 l 692 896 q 865 890 806 890 l 1025 899 l 1007 807 q 940 781 963 800 q 913 719 918 761 l 804 -21 l 657 -39 q 346 588 518 261 l 333 588 q 276 125 276 139 q 283 99 276 111 q 317 88 290 88 l 374 90 l 381 82 l 357 -6 q 197 0 242 0 q 17 -11 119 0 l 39 81 q 129 168 118 90 q 215 748 215 728 q 198 783 215 768 q 115 806 181 799 l 107 819 l 125 897 q 282 890 214 890 l 411 896 q 696 319 528 644 l 710 319 q 758 757 758 749 q 722 803 758 803 z "},"O":{"ha":903,"x_min":44,"x_max":890,"o":"m 432 101 q 608 210 543 101 q 674 515 674 319 q 626 707 674 638 q 494 776 578 776 q 321 667 385 776 q 257 363 257 557 q 303 171 257 240 q 432 101 350 101 m 396 -17 q 140 83 236 -17 q 44 354 44 183 q 179 754 44 601 q 535 907 314 907 q 794 810 699 907 q 890 542 890 713 q 753 139 890 294 q 396 -17 615 -17 z "},"P":{"ha":775,"x_min":13,"x_max":810,"o":"m 142 893 l 310 890 l 503 897 q 735 833 660 897 q 810 668 810 768 q 701 424 810 531 q 456 317 593 317 l 335 317 q 311 137 311 156 q 320 103 311 118 q 368 89 329 89 l 426 93 l 431 85 l 407 -4 q 247 0 288 0 q 151 -3 207 0 q 13 -11 14 -10 l 33 81 q 112 115 90 92 q 140 196 133 138 q 208 763 208 747 q 203 791 208 779 q 174 803 197 803 l 126 800 l 119 811 l 142 893 m 615 640 q 572 748 615 714 q 436 782 528 782 q 413 778 417 782 q 391 681 408 775 q 353 438 374 588 l 467 421 q 615 640 615 454 z "},"Q":{"ha":908,"x_min":44,"x_max":1038,"o":"m 44 354 q 179 754 44 601 q 535 907 314 907 q 794 810 699 907 q 890 530 890 713 q 803 207 890 347 q 567 13 715 67 l 567 8 q 904 -150 757 -150 q 1019 -136 958 -150 l 1029 -144 l 1038 -201 q 843 -315 881 -315 q 670 -260 754 -315 q 389 -17 586 -206 q 138 85 232 -14 q 44 354 44 185 m 432 101 q 608 210 543 101 q 674 515 674 319 q 626 707 674 638 q 494 776 578 776 q 321 667 385 776 q 257 363 257 557 q 303 171 257 240 q 432 101 350 101 z "},"R":{"ha":863,"x_min":7,"x_max":836,"o":"m 339 351 q 314 141 314 164 q 325 103 314 118 q 400 88 336 89 l 404 79 l 381 -6 q 201 -1 261 -1 l 7 -8 l 31 83 q 111 115 89 92 q 140 196 133 138 q 208 764 208 747 q 203 792 208 781 q 174 803 197 803 l 126 800 l 119 811 l 142 894 q 310 890 257 890 l 504 897 q 728 842 647 897 q 808 689 808 788 q 603 396 808 497 l 693 197 q 755 106 724 133 q 828 78 786 78 l 836 65 l 818 -7 l 656 -22 q 524 107 568 -22 l 440 351 l 339 351 m 613 657 q 431 786 613 786 q 411 781 417 786 q 357 472 400 768 l 476 458 q 613 657 613 514 z "},"S":{"ha":724,"x_min":14,"x_max":724,"o":"m 268 -17 q 144 -3 206 -17 q 24 36 83 10 l 14 56 q 67 290 51 175 l 182 300 q 176 217 176 261 q 194 146 176 172 q 295 104 219 104 q 413 137 371 104 q 456 217 456 169 q 419 294 456 264 q 326 356 383 325 q 249 399 268 388 q 194 435 229 410 q 142 483 158 461 q 96 608 96 542 q 203 822 96 738 q 476 907 310 907 q 686 881 596 907 l 715 871 l 724 853 q 663 615 686 742 l 558 607 l 547 615 q 557 688 557 663 q 529 759 557 738 q 440 781 501 781 q 340 749 379 781 q 300 669 300 717 q 397 553 300 611 q 465 517 411 544 q 541 473 518 489 q 600 428 564 457 q 665 285 665 371 q 557 67 665 150 q 268 -17 449 -17 z "},"T":{"ha":763,"x_min":40,"x_max":813,"o":"m 675 613 q 656 754 675 726 q 539 786 638 782 q 484 438 519 678 q 449 160 449 197 q 463 107 449 124 q 511 90 478 90 l 585 94 l 589 88 l 565 -6 q 331 0 401 0 l 104 -8 l 126 82 q 241 115 215 90 q 278 229 267 140 l 346 786 q 244 773 268 783 q 210 753 219 763 q 189 719 200 744 q 156 604 172 685 l 40 596 q 92 892 72 757 l 110 907 l 240 892 l 660 892 l 800 907 l 813 892 l 790 604 l 675 596 q 675 613 675 604 z "},"U":{"ha":876,"x_min":83,"x_max":926,"o":"m 293 268 q 328 149 293 190 q 433 107 364 107 q 617 290 594 107 q 668 760 668 742 q 663 791 668 779 q 633 803 658 803 l 589 800 l 586 806 l 608 894 q 764 890 714 890 l 926 900 l 907 808 q 840 786 856 799 q 821 739 825 774 l 767 304 q 651 65 747 147 q 389 -17 554 -17 q 104 229 104 -17 q 135 500 104 251 q 167 765 167 749 q 161 792 167 781 q 128 803 156 803 l 86 800 l 83 806 l 107 894 q 299 890 221 890 l 460 900 l 439 807 q 378 785 396 801 q 356 733 361 769 l 296 329 q 293 268 293 289 z "},"V":{"ha":838,"x_min":51,"x_max":914,"o":"m 72 894 q 233 890 182 890 q 471 903 311 890 l 475 892 l 458 808 q 369 790 390 803 q 349 739 349 776 q 400 179 349 676 l 421 179 q 660 765 660 710 q 597 804 660 804 l 544 804 l 539 814 l 558 899 q 757 890 672 890 l 914 894 l 893 804 q 845 785 860 799 q 811 732 831 772 l 485 7 l 256 -21 q 144 717 190 451 q 56 803 133 799 l 51 813 l 72 894 z "},"W":{"ha":1292,"x_min":53,"x_max":1365,"o":"m 74 894 q 231 890 179 890 q 457 903 317 890 l 463 892 l 446 808 q 359 790 381 803 q 338 738 338 776 q 386 179 338 642 l 406 179 q 471 339 426 229 q 614 682 561 561 q 615 709 615 693 q 610 740 615 725 q 587 788 607 775 q 519 803 567 801 l 514 813 l 536 894 q 710 890 657 890 q 939 903 792 890 l 944 892 l 928 808 q 839 790 860 803 q 818 739 818 776 q 868 179 818 663 l 888 179 q 1121 771 1121 724 q 1107 797 1121 789 q 1060 804 1093 804 l 1010 804 l 1004 814 l 1025 899 q 1217 890 1135 890 l 1365 894 l 1346 804 q 1299 785 1314 799 q 1267 732 1285 771 l 946 7 l 725 -21 l 672 481 l 658 481 l 464 7 l 242 -21 q 143 717 185 451 q 115 781 135 761 q 58 803 96 800 l 53 813 l 74 894 z "},"X":{"ha":915,"x_min":-28,"x_max":967,"o":"m 633 896 l 811 890 l 963 896 l 967 886 l 949 803 q 849 753 888 783 q 754 656 811 724 l 585 447 l 713 208 q 781 123 744 150 q 874 92 818 96 l 854 -3 q 682 1 738 1 l 439 -10 l 433 0 l 450 82 q 528 126 528 88 q 513 172 528 144 l 422 353 l 317 221 q 260 122 260 151 q 319 85 260 89 l 324 76 l 306 -8 q 131 1 178 1 l -24 -6 l -28 8 l -11 90 q 206 276 74 121 l 361 458 l 246 685 q 181 765 217 740 q 88 800 144 790 l 85 807 l 106 894 q 318 890 218 890 l 526 901 l 531 889 l 514 810 q 429 765 429 806 q 521 553 429 736 q 583 632 533 569 q 679 780 679 754 q 618 810 679 806 q 617 817 617 815 l 633 896 z "},"Y":{"ha":803,"x_min":47,"x_max":888,"o":"m 567 896 l 744 890 l 883 896 l 888 886 l 867 803 q 774 748 811 785 q 683 625 738 711 q 517 363 522 372 q 509 348 513 354 q 503 332 506 342 q 498 317 500 322 q 494 299 496 311 q 490 281 492 288 q 487 260 489 275 q 483 238 485 244 q 478 188 482 214 q 474 142 474 161 q 482 106 474 122 q 528 90 490 90 l 594 94 l 599 88 l 575 -6 q 369 0 421 0 q 140 -15 299 0 l 161 78 q 266 114 240 89 q 299 210 292 139 q 306 303 306 267 q 283 396 306 339 l 185 660 q 134 758 160 729 q 51 800 108 788 l 47 807 l 69 894 q 242 890 189 890 l 458 901 l 464 889 l 446 810 q 380 797 397 807 q 363 755 363 788 q 440 478 363 722 l 451 478 l 586 711 q 613 781 613 756 q 549 810 613 806 l 546 817 l 567 896 z "},"Z":{"ha":778,"x_min":-7,"x_max":814,"o":"m 676 22 l 650 -4 l 122 4 l 18 -7 l -7 54 l 553 792 l 382 781 q 263 739 297 775 q 208 604 228 703 l 92 596 q 150 894 132 767 l 167 908 l 404 893 l 797 888 l 814 832 q 242 99 558 529 l 451 114 q 560 169 518 119 q 632 329 603 219 l 749 339 q 676 22 697 157 z "},"[":{"ha":426,"x_min":47,"x_max":478,"o":"m 338 -183 l 47 -168 q 126 354 110 215 l 176 881 l 474 896 l 478 885 l 458 806 l 318 778 l 214 -65 l 353 -94 l 357 -107 l 338 -183 z "},"\\":{"ha":440,"x_min":88,"x_max":363,"o":"m 88 917 l 107 938 l 219 938 q 325 98 310 201 q 363 -137 340 -6 l 349 -153 l 229 -153 q 88 917 178 256 z "},"]":{"ha":426,"x_min":-43,"x_max":389,"o":"m 99 896 l 389 881 q 310 358 328 497 l 260 -168 l -39 -183 l -43 -172 l -22 -94 l 118 -65 l 221 778 l 83 806 l 79 818 l 99 896 z "},"^":{"ha":653,"x_min":19,"x_max":594,"o":"m 428 669 l 444 658 q 522 392 493 490 l 594 164 l 499 106 l 476 113 q 351 529 419 294 l 342 529 l 256 357 q 131 107 203 263 l 28 135 l 19 153 q 292 664 74 254 l 428 669 z "},"_":{"ha":607,"x_min":-81,"x_max":564,"o":"m -51 -125 l 272 -126 q 556 -121 333 -126 l 564 -140 l 535 -247 l -71 -250 l -81 -231 l -51 -125 z "},"`":{"ha":533,"x_min":101,"x_max":429,"o":"m 104 904 l 101 924 l 178 1021 l 196 1022 q 429 786 314 897 l 388 732 l 365 726 q 104 904 251 813 z "},"a":{"ha":733,"x_min":-31,"x_max":706,"o":"m 438 214 l 342 215 q 240 210 279 215 l 210 136 q 199 101 199 114 q 239 76 199 76 l 283 76 l 288 68 l 272 -6 q 108 0 178 0 l -31 -3 l -12 75 q 64 143 35 83 l 318 689 l 529 708 l 542 700 q 631 150 599 314 q 652 94 636 111 q 700 75 668 78 l 706 67 l 689 -3 q 547 0 600 0 l 353 -8 l 347 0 l 361 74 q 431 85 415 78 q 447 114 447 93 q 438 214 447 131 m 354 314 q 429 318 392 314 l 400 543 l 382 543 l 282 314 l 354 314 z "},"b":{"ha":732,"x_min":13,"x_max":685,"o":"m 174 579 q 144 618 174 618 l 107 617 l 99 626 l 119 699 q 281 694 243 694 l 453 701 q 624 663 563 701 q 685 553 685 624 q 547 368 685 442 q 646 309 611 347 q 681 219 681 271 q 594 51 681 113 q 360 -11 507 -11 q 186 0 221 0 l 13 -10 l 31 69 q 97 95 79 78 q 121 154 115 113 q 174 579 174 572 m 283 143 q 302 106 283 118 q 375 93 321 93 q 461 122 429 93 q 493 204 493 151 q 404 297 493 276 l 307 297 q 283 143 283 149 m 322 406 q 421 394 399 394 q 503 515 503 436 q 376 600 503 600 q 353 582 358 600 q 322 406 344 542 z "},"c":{"ha":703,"x_min":44,"x_max":703,"o":"m 589 31 q 344 -12 485 -12 q 124 65 204 -12 q 44 282 44 143 q 157 594 44 481 q 465 708 269 708 q 696 681 549 708 l 703 665 q 646 453 668 572 l 518 444 q 529 519 529 500 q 425 592 529 592 q 243 304 243 592 q 378 103 243 103 q 465 135 433 103 q 519 246 497 167 l 646 254 q 601 44 615 138 l 589 31 z "},"d":{"ha":788,"x_min":15,"x_max":767,"o":"m 122 161 q 172 588 172 575 q 169 609 172 600 q 146 618 165 618 l 108 615 l 103 626 l 121 699 q 269 694 225 694 l 438 701 q 678 628 590 701 q 767 422 767 554 q 646 110 767 232 q 336 -12 525 -12 q 164 0 228 0 l 15 -11 l 33 71 q 98 97 79 79 q 122 161 117 115 m 382 596 q 360 590 367 596 q 350 569 353 585 q 308 315 332 471 q 283 136 283 158 q 299 103 283 114 q 354 92 314 92 q 511 176 454 92 q 568 408 568 260 q 523 551 568 506 q 382 596 478 596 z "},"e":{"ha":688,"x_min":13,"x_max":688,"o":"m 282 137 q 282 124 282 137 q 294 103 282 111 q 343 96 307 96 q 467 117 438 96 q 518 217 497 138 l 626 225 l 635 213 q 579 6 601 114 l 564 -7 q 269 0 365 0 q 13 -11 126 0 l 31 69 q 95 97 76 76 q 119 164 114 117 q 172 587 172 574 q 168 609 172 600 q 143 618 164 618 l 111 617 l 103 628 l 121 699 q 410 694 251 694 q 679 708 568 694 l 688 696 q 638 493 656 594 l 521 486 q 531 549 531 522 q 506 585 531 576 q 427 594 482 594 q 363 589 372 594 q 350 561 353 583 l 322 404 l 422 404 l 549 413 l 557 401 l 529 300 q 397 303 443 303 q 306 296 350 303 q 282 137 282 163 z "},"f":{"ha":621,"x_min":13,"x_max":661,"o":"m 303 278 q 283 133 283 147 q 290 106 283 118 q 325 94 297 94 l 394 101 l 404 88 l 382 -4 q 214 0 263 0 q 13 -12 115 0 l 31 69 q 94 96 76 76 q 119 164 113 115 q 172 587 172 574 q 168 609 172 600 q 143 618 164 618 l 111 617 l 103 628 l 121 699 q 399 694 251 694 q 651 708 547 694 l 661 696 q 614 493 632 592 l 499 486 q 507 549 507 522 q 487 585 507 575 q 419 594 467 594 q 363 589 372 594 q 350 561 353 583 l 319 386 l 419 385 l 538 394 l 544 382 l 518 281 q 409 283 438 283 q 303 278 381 283 z "},"g":{"ha":743,"x_min":46,"x_max":707,"o":"m 606 29 q 357 -12 510 -12 q 125 64 204 -12 q 46 278 46 140 q 160 593 46 478 q 469 708 274 708 q 700 681 553 708 l 707 665 q 649 464 672 582 l 522 456 q 535 524 535 503 q 428 593 535 593 q 291 518 339 593 q 243 296 243 443 q 378 100 243 100 q 478 125 431 100 l 490 218 q 485 258 493 249 q 451 268 478 268 l 400 268 l 393 279 l 417 361 l 575 361 q 686 367 686 361 l 689 318 q 638 232 647 294 q 618 81 618 125 l 618 43 l 606 29 z "},"h":{"ha":849,"x_min":14,"x_max":858,"o":"m 581 0 l 460 -1 l 432 -1 l 450 75 q 514 97 494 76 q 539 171 533 117 l 556 301 l 451 301 l 304 292 q 282 106 282 121 q 315 76 282 76 l 354 79 l 360 71 l 340 -3 q 199 0 236 0 q 119 -2 163 0 q 45 -6 75 -4 q 14 -8 15 -7 l 31 68 q 99 97 82 78 q 122 171 115 117 q 172 588 172 575 q 167 610 172 601 q 138 618 161 618 l 106 618 l 100 628 l 117 697 q 251 694 206 694 l 435 703 l 419 624 q 366 605 379 618 q 346 551 353 592 l 321 404 q 434 403 363 404 q 568 408 506 401 q 590 587 590 574 q 585 609 590 600 q 556 618 579 618 l 522 618 l 517 628 l 533 697 q 704 694 536 694 l 858 703 l 843 625 q 787 607 801 618 q 767 565 772 596 q 701 125 701 190 q 740 78 701 78 l 778 81 l 783 72 l 764 -3 q 628 0 692 0 l 581 0 z "},"i":{"ha":431,"x_min":14,"x_max":442,"o":"m 113 697 l 274 694 l 442 703 l 425 624 q 369 607 383 618 q 350 565 356 596 q 282 119 282 199 q 290 85 282 94 q 315 76 297 76 l 361 79 l 365 71 l 346 -3 q 176 0 226 0 l 14 -8 l 31 68 q 97 96 79 78 q 119 158 115 114 q 172 588 172 575 q 167 609 172 600 q 138 618 161 618 l 101 618 q 97 628 97 626 l 113 697 z "},"j":{"ha":394,"x_min":-42,"x_max":419,"o":"m 107 136 q 161 589 161 576 q 157 610 161 601 q 131 619 153 619 l 85 615 l 79 626 l 96 694 l 239 696 l 419 704 l 403 624 q 356 607 367 617 q 339 565 344 597 q 268 106 306 383 q 188 -67 254 -1 q -11 -169 121 -133 l -42 -124 l -37 -110 q 65 -15 36 -64 q 107 136 93 33 z "},"k":{"ha":765,"x_min":14,"x_max":792,"o":"m 119 158 q 172 588 172 575 q 167 610 172 601 q 138 618 161 618 l 106 618 l 100 628 l 118 697 q 274 694 246 694 l 439 703 l 422 624 q 364 601 379 614 q 346 561 349 589 l 285 151 q 282 115 282 131 q 287 88 282 100 q 315 76 292 76 l 357 79 l 364 71 l 344 -3 q 176 0 225 0 l 14 -3 l 33 71 q 99 96 82 79 q 119 158 115 113 m 500 528 q 540 590 540 565 q 490 619 540 615 l 486 628 l 503 700 q 647 694 600 694 l 786 700 l 792 688 l 775 621 q 701 577 735 603 q 621 501 668 551 l 501 378 l 608 167 q 658 97 633 118 q 717 71 682 75 l 725 60 l 707 -4 q 558 -17 588 -17 q 454 74 496 -17 l 326 342 l 333 368 l 500 528 z "},"l":{"ha":622,"x_min":17,"x_max":607,"o":"m 115 697 l 274 694 l 461 703 l 443 618 q 370 599 388 611 q 344 546 353 586 q 283 138 283 214 q 295 105 283 114 q 339 96 307 96 q 440 126 411 96 q 492 263 468 157 l 600 274 l 607 263 q 547 4 575 139 l 533 -8 q 267 0 358 0 q 17 -11 128 0 l 36 69 q 97 97 79 76 q 119 164 114 117 q 171 588 171 575 q 165 610 171 601 q 136 618 160 618 l 104 618 l 99 628 l 115 697 z "},"m":{"ha":953,"x_min":4,"x_max":940,"o":"m 669 696 l 779 694 q 935 701 807 694 l 940 697 l 925 624 q 860 609 878 621 q 840 567 843 597 q 826 322 829 483 q 822 138 822 161 q 829 96 822 114 q 863 78 836 78 l 894 79 l 899 72 l 879 -3 q 729 0 813 0 q 588 -8 646 0 l 607 71 q 674 125 668 79 l 699 457 l 688 457 q 474 -7 607 301 l 376 -15 q 281 457 322 274 l 269 457 q 208 106 208 122 q 240 78 208 78 l 275 78 l 282 72 l 260 -4 q 121 0 157 0 l 4 -8 l 21 71 q 69 90 53 74 q 96 146 86 107 q 188 585 188 569 q 114 621 188 617 l 108 629 l 126 700 q 272 694 231 694 l 407 700 q 481 282 432 525 l 492 282 q 669 696 581 482 z "},"n":{"ha":835,"x_min":19,"x_max":863,"o":"m 596 619 l 558 618 l 554 626 l 571 700 q 711 694 672 694 q 783 696 750 694 q 863 701 863 699 l 849 622 q 794 601 811 617 q 771 554 776 586 l 686 -10 l 543 -24 q 303 421 418 221 l 290 421 l 253 126 q 258 88 250 99 q 288 76 265 76 l 331 78 l 338 71 l 318 -4 q 168 0 215 0 l 19 -8 l 39 71 q 113 139 106 79 q 179 576 179 563 q 165 602 179 590 q 99 619 151 614 l 90 632 l 106 700 q 243 694 181 694 l 360 700 q 581 282 458 500 l 592 282 q 626 582 626 576 q 596 619 626 619 z "},"o":{"ha":765,"x_min":44,"x_max":743,"o":"m 368 93 q 498 172 451 93 q 544 400 544 251 q 510 543 544 494 q 413 592 475 592 q 286 513 332 592 q 240 285 240 433 q 274 142 240 190 q 368 93 307 93 m 339 -12 q 124 65 203 -12 q 44 281 44 143 q 153 592 44 476 q 446 708 261 708 q 664 633 585 708 q 743 419 743 557 q 633 106 743 224 q 339 -12 522 -12 z "},"p":{"ha":674,"x_min":17,"x_max":692,"o":"m 118 697 l 261 694 l 428 701 q 628 648 564 701 q 692 517 692 594 q 601 324 692 407 q 397 240 511 240 l 297 240 q 282 117 282 132 q 290 90 282 101 q 329 78 297 78 l 375 79 q 378 72 375 78 l 358 -3 q 207 0 250 0 l 17 -8 l 35 71 q 96 97 78 78 q 121 161 114 117 q 172 586 172 574 q 168 608 172 599 q 144 618 164 618 l 106 617 l 99 626 l 118 697 m 513 493 q 376 597 513 597 q 357 592 360 597 q 313 346 346 574 l 401 333 q 513 493 513 360 z "},"q":{"ha":769,"x_min":44,"x_max":874,"o":"m 760 -106 q 857 -94 804 -106 l 865 -103 l 874 -156 q 701 -251 735 -251 q 562 -208 629 -251 q 332 -12 494 -165 q 122 67 199 -10 q 44 281 44 144 q 153 592 44 476 q 446 708 261 708 q 664 633 585 708 q 743 413 743 557 q 676 163 743 269 q 492 13 610 56 l 492 10 q 760 -106 640 -106 m 368 93 q 498 172 451 93 q 544 400 544 251 q 510 543 544 494 q 413 592 475 592 q 286 513 332 592 q 240 285 240 433 q 274 142 240 190 q 368 93 307 93 z "},"r":{"ha":749,"x_min":13,"x_max":714,"o":"m 301 265 q 283 120 283 140 q 292 89 283 100 q 356 76 301 78 l 358 69 l 339 -4 q 182 -1 229 -1 l 13 -8 l 32 72 q 96 97 78 78 q 121 161 114 115 l 171 567 q 169 607 175 596 q 144 618 164 618 l 106 617 l 99 626 l 118 697 q 261 694 218 694 l 431 701 q 625 658 556 701 q 694 533 694 614 q 529 306 694 388 l 599 164 q 706 71 644 71 l 714 57 l 697 -6 l 554 -17 q 443 83 478 -17 l 379 265 l 301 265 m 514 504 q 374 600 514 600 q 358 595 363 600 q 341 522 354 590 q 317 374 328 454 l 411 363 q 481 410 447 375 q 514 504 514 444 z "},"s":{"ha":626,"x_min":19,"x_max":619,"o":"m 235 -12 q 129 -2 181 -12 q 28 29 78 8 l 19 46 q 63 228 50 143 l 168 236 q 165 179 165 211 q 265 94 165 94 q 348 116 317 94 q 379 171 379 138 q 350 226 379 204 q 269 274 321 249 q 197 313 218 300 q 144 350 175 325 q 85 469 85 396 q 176 642 85 575 q 410 708 267 708 q 613 679 514 708 l 619 663 q 569 476 589 575 l 472 469 l 463 476 q 469 526 469 510 q 378 594 469 594 q 301 573 332 594 q 271 518 271 551 q 353 433 271 476 q 398 411 364 428 q 449 385 432 394 q 494 356 467 375 q 535 321 521 338 q 571 225 571 278 q 480 52 571 117 q 235 -12 389 -12 z "},"t":{"ha":663,"x_min":40,"x_max":689,"o":"m 564 464 q 549 574 564 551 q 464 599 533 596 q 397 133 397 204 q 449 79 397 79 l 508 82 l 511 76 l 492 -6 q 292 0 351 0 l 94 -8 l 113 72 q 206 97 185 78 q 236 179 228 117 l 288 599 q 192 573 214 596 q 147 456 169 550 l 40 449 q 81 694 67 583 l 96 708 l 211 696 l 557 696 l 678 708 l 689 694 l 669 456 l 564 449 q 564 464 564 457 z "},"u":{"ha":740,"x_min":72,"x_max":771,"o":"m 264 211 q 368 96 264 96 q 504 224 488 96 q 544 584 544 568 q 540 609 544 600 q 517 618 536 618 l 482 617 l 481 621 l 500 699 q 629 694 588 694 l 771 701 l 753 622 q 700 603 713 613 q 685 569 688 594 l 644 243 q 332 -12 611 -12 q 90 176 90 -12 q 114 381 90 186 q 138 588 138 575 q 133 609 138 600 q 108 618 129 618 l 74 617 l 72 621 l 92 699 q 260 694 190 694 l 397 701 l 379 621 q 331 605 344 617 q 313 565 317 593 l 267 251 q 264 211 264 238 z "},"v":{"ha":721,"x_min":51,"x_max":768,"o":"m 397 622 q 328 606 344 617 q 311 567 311 596 q 347 153 311 503 l 367 153 q 479 410 413 253 q 546 590 546 568 q 500 618 546 618 l 460 618 l 454 628 l 471 700 q 638 694 568 694 l 768 697 l 750 619 q 713 605 725 615 q 688 564 701 594 l 432 6 l 211 -17 q 124 550 156 372 q 101 602 117 586 q 56 619 86 618 l 51 628 l 68 699 q 211 694 160 694 l 406 703 l 411 694 l 397 622 z "},"w":{"ha":1103,"x_min":51,"x_max":1147,"o":"m 353 153 l 511 535 l 511 575 q 493 610 508 600 q 439 619 478 619 l 435 628 l 453 699 q 611 694 557 694 l 800 703 l 806 694 l 790 622 q 721 607 738 617 q 704 569 704 597 l 740 153 l 758 153 q 933 594 933 558 q 924 613 933 608 q 888 618 914 618 l 850 618 l 844 628 l 863 700 q 1021 694 956 694 l 1147 697 l 1131 619 q 1094 604 1107 615 q 1068 564 1082 593 l 821 6 l 608 -17 l 569 350 l 558 350 l 414 6 l 201 -17 q 122 550 151 372 q 101 601 115 586 q 57 619 86 617 l 51 628 l 69 699 q 206 694 157 694 l 396 703 l 400 694 l 386 622 q 320 579 340 618 q 300 492 300 540 q 335 153 300 372 l 353 153 z "},"x":{"ha":789,"x_min":-12,"x_max":819,"o":"m 532 699 l 686 694 l 817 699 l 819 690 l 804 617 q 719 575 751 599 q 646 501 688 551 l 511 342 l 610 172 q 668 103 638 125 q 743 81 699 82 l 726 -3 q 581 1 626 1 l 372 -7 l 368 1 l 382 74 q 440 104 440 75 q 428 138 440 115 l 357 264 l 281 172 q 239 103 239 124 q 286 75 239 76 l 290 67 l 275 -6 q 125 1 164 1 l -8 -4 l -12 8 l 3 79 q 175 221 64 99 l 299 363 l 208 524 q 156 587 183 568 q 81 615 129 606 l 76 621 l 94 697 q 275 694 183 694 l 453 703 l 457 692 l 443 624 q 379 590 379 622 q 449 439 379 565 q 494 497 461 456 q 567 600 567 585 q 519 622 567 622 q 518 629 519 624 l 532 699 z "},"y":{"ha":707,"x_min":49,"x_max":757,"o":"m 481 699 l 636 694 l 753 699 l 757 690 l 739 617 q 665 571 696 601 q 592 479 633 540 l 464 286 q 438 224 442 254 q 425 120 425 136 q 433 92 425 104 q 471 79 440 79 l 526 82 l 531 76 l 511 -6 q 315 0 374 0 l 126 -11 l 144 69 q 233 94 211 76 q 264 196 257 115 q 265 231 265 206 q 246 303 265 257 l 160 511 q 119 580 142 557 q 53 615 97 603 l 49 621 l 68 697 q 218 694 175 694 l 401 703 l 407 692 l 392 624 q 342 615 356 622 q 328 592 328 607 q 386 386 328 578 l 399 386 l 494 550 q 517 601 517 588 q 467 622 517 622 l 464 629 l 481 699 z "},"z":{"ha":671,"x_min":3,"x_max":692,"o":"m 583 18 l 561 -3 l 114 3 l 28 -6 l 3 47 l 453 607 l 326 597 q 232 565 258 592 q 190 465 206 539 l 82 457 q 129 699 115 597 l 143 708 l 339 697 l 675 694 l 692 646 q 232 89 479 408 l 390 103 q 478 146 446 108 q 533 265 511 183 l 642 275 q 583 18 600 125 z "},"{":{"ha":432,"x_min":60,"x_max":489,"o":"m 322 708 l 335 538 q 303 437 335 475 q 219 385 271 399 l 218 376 q 301 260 301 347 q 268 124 301 221 q 235 -4 235 28 q 252 -56 235 -36 q 303 -76 269 -76 l 358 -68 l 367 -82 l 343 -157 q 227 -178 299 -178 q 110 -137 156 -178 q 65 -40 65 -96 q 113 110 65 15 q 161 235 161 206 q 60 335 161 310 l 75 401 q 194 515 194 436 q 176 617 194 542 q 158 729 158 693 q 221 857 158 806 q 383 908 283 908 q 482 896 429 908 l 489 882 l 461 804 q 408 811 429 811 q 344 783 367 811 q 322 708 322 754 z "},"|":{"ha":443,"x_min":69,"x_max":392,"o":"m 371 1121 l 392 1106 q 297 404 325 635 l 206 -358 l 83 -374 l 69 -358 q 251 1106 101 -89 l 371 1121 z "},"}":{"ha":432,"x_min":-44,"x_max":385,"o":"m 122 22 l 110 199 q 225 351 110 317 l 226 360 q 143 478 143 390 q 176 608 143 515 q 210 733 210 701 q 192 785 210 765 q 142 806 175 806 l 86 799 l 78 811 l 101 888 q 216 908 144 908 q 333 867 288 908 q 379 770 379 825 q 332 623 379 715 q 285 501 285 531 q 385 401 285 422 l 371 336 q 285 292 318 321 q 251 228 251 263 q 269 119 251 194 q 286 8 286 44 q 224 -124 286 -71 q 61 -178 161 -178 q -37 -165 15 -178 l -44 -151 l -17 -75 q 36 -82 15 -82 q 100 -53 78 -82 q 122 22 122 -24 z "},"~":{"ha":678,"x_min":32,"x_max":658,"o":"m 201 460 q 349 433 236 460 q 485 406 463 406 q 583 464 524 406 l 603 485 l 617 485 l 658 432 l 657 418 l 517 276 l 490 271 q 342 298 456 271 q 207 325 229 325 q 108 267 167 325 l 89 247 l 74 247 l 32 299 l 33 314 l 175 454 l 201 460 z "}," ":{"ha":231,"x_min":0,"x_max":0,"o":""},"¡":{"ha":381,"x_min":-14,"x_max":346,"o":"m 129 536 q 129 560 129 536 q 165 622 129 585 q 249 658 200 658 q 322 633 299 658 q 346 560 346 608 q 310 475 346 511 q 226 439 275 439 q 153 463 176 439 q 129 536 129 488 m 258 315 l 214 -282 l 194 -306 l 6 -336 l -14 -311 l 147 318 l 239 333 l 258 315 z "},"¢":{"ha":511,"x_min":33,"x_max":524,"o":"m 426 469 q 335 535 388 535 q 241 455 282 535 q 200 286 200 375 q 282 119 200 119 q 353 150 318 119 q 411 232 388 181 l 435 229 l 481 172 q 394 57 451 107 q 276 -10 338 7 l 231 -210 l 133 -221 l 126 -211 l 172 -10 q 70 69 107 8 q 33 222 33 129 q 118 497 33 374 q 322 649 203 621 l 381 901 l 481 914 l 486 901 l 429 654 q 518 626 485 647 l 524 606 l 465 472 l 426 469 z "},"£":{"ha":694,"x_min":7,"x_max":685,"o":"m 618 244 q 636 147 636 214 q 592 31 636 79 q 494 -17 549 -17 q 341 17 440 -17 q 181 51 242 51 q 39 1 121 51 l 24 8 l 7 93 q 153 282 139 171 l 160 339 q 146 381 161 371 q 79 394 131 392 l 75 403 l 94 475 l 178 489 l 182 518 q 301 738 197 646 q 531 831 406 831 q 679 810 631 831 l 685 794 l 624 661 l 597 657 q 462 710 513 710 q 386 678 411 710 q 350 578 361 647 l 335 483 l 536 488 l 540 481 l 514 386 q 321 390 425 390 l 308 307 q 228 153 292 206 l 307 169 q 397 156 333 169 q 493 143 461 143 q 551 170 525 143 q 586 247 578 197 l 618 244 z "},"¤":{"ha":594,"x_min":15,"x_max":635,"o":"m 122 386 q 110 476 110 419 q 150 592 110 532 l 61 690 l 68 714 l 175 783 l 251 683 q 352 708 301 708 q 446 683 403 708 l 551 790 l 575 785 l 635 686 l 526 593 q 542 503 542 558 q 503 386 542 447 l 590 293 l 583 269 l 475 197 l 400 294 q 299 267 353 267 q 200 296 244 267 l 96 194 l 72 200 l 15 299 q 122 386 31 308 m 336 608 q 313 608 336 608 q 249 569 289 608 q 210 479 210 529 q 238 398 210 429 q 315 367 267 367 q 402 406 363 367 q 442 496 442 446 q 413 577 442 546 q 336 608 383 608 z "},"¥":{"ha":764,"x_min":39,"x_max":779,"o":"m 242 371 l 74 369 l 64 379 l 85 457 l 200 457 q 63 617 144 592 q 68 650 65 628 l 82 701 q 204 697 169 697 q 326 701 239 697 q 421 707 414 706 l 425 693 l 410 622 q 358 613 371 619 q 344 594 344 606 q 368 500 344 590 l 414 388 l 519 567 q 535 604 535 592 q 486 625 535 625 l 483 636 l 497 701 l 656 697 l 774 701 l 779 693 l 761 617 q 690 581 714 601 q 635 515 665 561 l 596 460 l 722 463 l 731 450 l 714 371 l 533 371 l 492 308 q 475 271 483 297 q 697 276 583 272 l 706 263 l 689 183 l 447 183 q 440 121 440 163 q 489 82 440 82 l 544 85 l 547 76 l 528 -4 q 333 0 392 0 l 144 -12 l 163 71 q 247 100 226 79 q 276 183 267 121 l 49 182 l 39 193 l 60 271 l 276 271 q 242 371 267 308 z "},"¦":{"ha":443,"x_min":68,"x_max":392,"o":"m 311 521 l 188 504 l 176 514 l 251 1106 l 371 1121 l 392 1106 q 311 521 343 764 m 68 -358 l 140 219 l 263 240 l 275 226 l 204 -358 l 82 -374 l 68 -358 z "},"§":{"ha":667,"x_min":35,"x_max":638,"o":"m 207 -139 q 85 -109 136 -139 q 35 -42 35 -79 q 51 42 35 -4 q 92 115 68 88 l 119 114 q 157 13 122 53 q 234 -26 192 -26 q 299 -5 276 -26 q 322 50 322 17 q 294 115 322 83 q 226 174 267 146 q 146 233 186 201 q 78 309 106 264 q 50 407 50 354 q 206 625 50 532 q 194 682 194 654 q 274 841 194 774 q 460 908 353 908 q 570 888 522 908 q 618 842 618 868 q 596 763 618 815 q 558 696 574 710 l 532 696 q 494 764 522 738 q 435 790 465 790 q 386 770 406 790 q 367 719 367 750 q 394 657 367 689 q 463 596 422 625 q 542 534 503 567 q 610 457 582 501 q 638 356 638 413 q 596 242 638 300 q 486 143 554 185 q 494 103 494 119 q 405 -69 494 0 q 207 -139 315 -139 m 242 564 q 201 483 201 528 q 228 403 201 439 q 292 342 256 367 q 444 214 401 264 q 481 299 481 253 q 441 387 481 344 q 336 478 401 429 q 242 564 271 528 z "},"¨":{"ha":533,"x_min":125,"x_max":543,"o":"m 543 888 q 514 812 543 842 q 444 782 485 782 q 365 854 365 782 q 395 929 365 899 q 465 960 425 960 q 543 888 543 960 m 301 888 q 272 812 301 842 q 203 782 243 782 q 125 854 125 782 q 155 929 125 899 q 225 960 185 960 q 301 888 301 960 z "},"©":{"ha":932,"x_min":65,"x_max":889,"o":"m 65 363 q 205 691 65 551 q 529 831 344 831 q 786 721 683 831 q 889 451 889 611 q 749 123 889 263 q 425 -17 608 -17 q 168 93 271 -17 q 65 363 65 203 m 136 369 q 221 143 136 235 q 433 51 306 51 q 703 168 586 51 q 819 444 819 285 q 734 671 819 579 q 521 763 649 763 q 252 646 368 763 q 136 369 136 529 m 625 206 q 467 179 558 179 q 325 229 376 179 q 274 368 274 279 q 346 571 274 497 q 544 644 418 644 q 693 628 599 644 l 697 617 q 661 481 676 557 l 581 475 q 588 524 588 511 q 519 569 588 569 q 401 383 401 569 q 488 251 401 251 q 546 272 524 251 q 582 344 568 293 l 661 350 q 633 215 642 275 l 625 206 z "},"ª":{"ha":494,"x_min":26,"x_max":482,"o":"m 307 460 q 264 500 264 460 q 292 632 264 521 l 283 633 q 147 460 211 506 q 58 497 90 460 q 26 597 26 533 q 99 799 26 706 q 253 893 171 893 l 328 878 l 333 897 l 347 904 l 442 893 l 449 875 q 389 588 408 719 l 392 585 q 447 626 399 585 l 465 625 l 482 588 q 375 486 411 513 q 307 460 339 460 m 225 813 q 183 761 203 813 q 164 645 164 710 q 181 581 164 581 q 236 644 199 581 q 301 788 274 708 q 225 813 263 813 z "},"«":{"ha":606,"x_min":49,"x_max":607,"o":"m 465 318 l 558 118 l 550 96 l 489 61 q 299 299 467 94 l 301 328 q 550 571 500 515 l 604 536 l 607 514 l 465 318 m 215 318 l 308 118 l 300 96 l 239 61 q 49 299 204 113 l 51 328 q 300 571 250 515 l 354 536 l 357 514 l 215 318 z "},"¬":{"ha":678,"x_min":22,"x_max":631,"o":"m 624 454 l 631 436 q 592 238 604 339 l 569 49 l 440 29 l 428 39 q 463 308 446 181 l 336 308 l 32 307 l 22 321 l 58 447 q 371 446 251 446 l 624 454 z "},"®":{"ha":626,"x_min":86,"x_max":636,"o":"m 337 421 q 280 421 337 421 q 155 494 224 421 q 86 685 86 568 q 179 894 86 801 q 385 988 272 988 q 567 914 499 988 q 636 724 636 840 q 543 514 636 607 q 337 421 450 421 m 382 935 q 336 935 382 935 q 214 858 290 935 q 138 688 138 782 q 193 533 138 593 q 340 474 249 474 q 508 550 432 474 q 585 721 585 626 q 529 875 585 815 q 382 935 474 935 m 256 858 l 314 857 l 328 857 q 376 860 358 860 q 483 792 483 860 q 417 697 483 731 l 442 644 q 483 603 460 606 l 488 599 q 477 574 485 579 q 440 569 469 569 q 399 576 410 568 q 379 610 388 585 l 357 681 l 329 681 q 321 627 321 639 q 327 612 321 615 q 350 608 333 608 q 351 604 351 607 l 344 574 q 292 576 310 576 l 276 576 l 215 572 l 222 606 q 248 618 240 608 q 258 651 256 628 l 276 800 q 267 825 279 825 l 251 825 l 249 829 l 256 858 m 335 725 l 369 722 q 410 779 410 735 q 357 817 410 817 q 349 806 350 817 l 335 725 z "},"¯":{"ha":533,"x_min":129,"x_max":547,"o":"m 539 933 l 547 914 l 517 808 l 142 806 l 129 821 l 161 926 q 368 925 289 925 l 539 933 z "},"°":{"ha":404,"x_min":76,"x_max":429,"o":"m 237 546 q 200 546 237 546 q 120 593 164 546 q 76 715 76 640 q 136 849 76 790 q 269 908 196 908 q 385 861 342 908 q 429 739 429 814 q 369 605 429 664 q 237 546 310 546 m 258 828 q 238 828 258 828 q 188 795 218 828 q 157 720 157 763 q 181 652 157 678 q 247 626 206 626 q 318 659 288 626 q 349 734 349 692 q 324 802 349 776 q 258 828 299 828 z "},"±":{"ha":678,"x_min":-19,"x_max":671,"o":"m 640 313 l 403 311 l 376 85 l 250 65 l 236 75 q 267 311 253 199 l 32 310 l 24 325 l 58 451 q 285 450 176 450 l 315 692 l 442 707 l 458 697 q 419 450 433 557 l 664 458 l 671 440 l 640 313 m 574 -135 l -11 -137 l -19 -118 l 7 -12 l 317 -12 q 593 -7 593 -12 l 601 -28 l 574 -135 z "},"²":{"ha":475,"x_min":8,"x_max":447,"o":"m 258 846 q 202 890 258 890 q 86 815 146 890 l 71 815 l 63 903 q 158 981 104 951 q 271 1011 213 1011 q 371 979 329 1011 q 413 892 413 947 q 366 767 413 836 q 197 578 319 697 l 201 569 l 274 569 q 329 587 311 569 q 361 651 347 604 l 447 658 q 400 475 414 551 l 385 463 q 86 471 174 471 l 10 464 l 8 531 l 133 651 q 258 846 258 783 z "},"³":{"ha":419,"x_min":13,"x_max":378,"o":"m 32 582 q 113 567 67 567 q 192 588 160 567 q 224 643 224 610 q 115 699 224 699 l 106 710 l 106 776 l 165 789 q 235 872 235 819 q 224 901 235 890 q 193 911 213 911 q 93 872 149 911 l 81 872 l 67 949 q 156 991 103 971 q 258 1011 208 1011 q 342 985 307 1011 q 378 915 378 958 q 347 835 378 871 q 264 781 315 799 l 263 771 q 374 658 374 735 q 281 521 374 582 q 81 460 188 460 q 26 481 39 460 q 14 529 14 503 q 14 565 14 556 l 32 582 z "},"´":{"ha":533,"x_min":168,"x_max":494,"o":"m 494 925 l 493 906 q 231 726 360 822 l 210 732 l 168 786 q 401 1024 286 901 l 419 1022 l 494 925 z "},"µ":{"ha":715,"x_min":-31,"x_max":694,"o":"m 613 128 q 676 151 642 128 l 694 122 q 615 35 665 81 q 535 -17 565 -10 q 441 10 474 -17 q 410 88 408 36 l 399 93 q 250 -15 300 -6 q 183 8 210 -15 l 176 4 q 147 -269 147 -207 l 147 -296 l 136 -308 l -18 -336 l -31 -318 q 43 101 10 -122 l 97 454 q 104 540 104 506 q 103 601 104 575 l 115 625 l 303 658 l 313 635 q 258 424 290 594 q 226 218 226 254 q 299 131 226 131 q 354 147 328 131 q 410 182 381 163 q 449 538 449 508 q 446 600 449 568 l 460 624 l 654 656 l 665 632 q 610 410 647 601 q 572 174 572 219 q 613 128 572 128 z "},"¶":{"ha":761,"x_min":63,"x_max":797,"o":"m 407 897 l 603 892 l 797 896 l 779 810 l 775 804 q 710 788 726 800 q 686 740 693 776 q 607 238 661 647 q 490 -35 586 69 q 244 -139 394 -139 q 123 -104 174 -139 q 72 -15 72 -69 q 95 65 72 18 q 149 146 118 113 l 171 146 q 169 119 169 132 q 197 10 169 54 q 286 -33 224 -33 q 379 11 349 -33 q 422 168 410 56 l 499 781 q 494 798 500 794 q 464 801 489 801 q 365 728 400 801 q 331 534 331 654 q 388 318 331 414 l 383 285 q 151 364 239 290 q 63 572 63 438 q 161 802 63 707 q 407 897 260 897 z "},"·":{"ha":319,"x_min":54,"x_max":269,"o":"m 269 345 q 269 320 269 345 q 234 260 269 296 q 149 224 199 224 q 54 314 54 224 q 89 406 54 369 q 173 443 124 443 q 246 419 222 443 q 269 345 269 394 z "},"¸":{"ha":538,"x_min":46,"x_max":346,"o":"m 229 -61 q 346 -188 346 -132 q 283 -287 346 -244 q 146 -331 221 -331 q 78 -314 110 -331 q 46 -273 46 -297 q 110 -181 46 -249 l 121 -181 q 121 -203 121 -186 q 135 -240 121 -221 q 178 -258 150 -258 q 222 -246 206 -258 q 239 -214 239 -233 q 135 -119 239 -181 l 197 40 l 269 40 l 229 -61 z "},"¹":{"ha":357,"x_min":4,"x_max":329,"o":"m 285 911 q 255 738 274 867 q 236 574 236 610 q 267 539 236 539 l 308 540 l 311 536 l 290 468 q 158 471 206 471 l 4 461 l 19 526 q 107 592 100 532 l 140 865 q 137 907 144 897 q 104 917 129 917 l 60 914 l 54 919 l 67 979 q 321 1011 90 982 l 329 979 q 285 911 299 954 z "},"º":{"ha":451,"x_min":33,"x_max":417,"o":"m 215 543 q 281 707 281 543 q 233 811 281 811 q 186 767 204 811 q 168 651 168 722 q 215 543 168 543 m 181 460 q 72 504 111 460 q 33 629 33 549 q 100 826 33 749 q 269 903 167 903 q 378 861 340 903 q 417 742 417 819 q 351 539 417 618 q 181 460 285 460 z "},"»":{"ha":606,"x_min":63,"x_max":621,"o":"m 368 61 l 314 96 l 313 118 q 353 175 319 129 q 451 314 444 297 q 429 364 449 322 q 387 455 410 406 q 360 513 364 504 l 368 535 l 429 571 q 621 332 463 521 l 617 304 q 368 61 419 117 m 118 61 l 64 96 l 63 118 q 103 175 69 129 q 201 314 194 297 q 179 364 199 322 q 137 455 160 406 q 110 513 114 504 l 118 535 l 179 571 q 371 332 213 521 l 367 304 q 118 61 169 117 z "},"¼":{"ha":1058,"x_min":4,"x_max":1014,"o":"m 831 907 l 840 881 q 471 315 596 510 l 190 -129 l 100 -92 l 93 -72 q 381 367 261 178 l 744 942 l 831 907 m 236 472 q 267 429 236 429 l 308 432 l 311 426 l 290 358 q 158 363 206 363 l 4 353 l 19 417 q 82 435 61 419 q 107 482 103 450 l 140 756 q 137 797 144 788 q 104 807 129 807 l 60 804 l 54 811 l 67 869 q 321 901 90 872 l 329 869 q 285 801 300 847 q 255 629 274 758 q 236 472 236 500 m 592 133 l 603 207 l 871 538 l 878 540 l 976 529 l 940 222 l 1007 222 l 1014 211 l 994 125 l 929 126 l 919 10 l 911 0 l 785 -10 l 776 -1 q 799 131 790 68 l 592 133 m 818 367 l 708 222 l 811 222 l 828 367 l 818 367 z "},"½":{"ha":1100,"x_min":4,"x_max":1058,"o":"m 831 907 l 840 881 q 471 315 596 510 l 190 -129 l 100 -92 l 93 -72 q 381 367 261 178 l 744 942 l 831 907 m 236 472 q 267 429 236 429 l 308 432 l 311 426 l 290 358 q 158 363 206 363 l 4 353 l 19 417 q 82 435 61 419 q 107 482 103 450 l 140 756 q 137 797 144 788 q 104 807 129 807 l 60 804 l 54 811 l 67 869 q 321 901 90 872 l 329 869 q 285 801 300 847 q 255 629 274 758 q 236 472 236 500 m 869 374 q 814 418 869 418 q 697 344 758 418 l 682 344 l 674 431 q 769 510 715 481 q 882 540 824 540 q 982 508 940 540 q 1024 419 1024 475 q 977 296 1024 364 q 808 106 931 228 l 813 99 l 885 99 q 940 116 922 99 q 972 181 958 133 l 1058 188 q 1011 4 1025 81 l 996 -8 q 697 0 785 0 l 621 -8 l 619 58 l 744 179 q 869 374 869 311 z "},"¾":{"ha":1058,"x_min":13,"x_max":1014,"o":"m 831 907 l 840 881 q 471 315 596 510 l 190 -129 l 100 -92 l 93 -72 q 381 367 261 178 l 744 942 l 831 907 m 592 133 l 603 207 l 871 538 l 878 540 l 976 529 l 940 222 l 1007 222 l 1014 211 l 994 125 l 929 126 l 919 10 l 911 0 l 785 -10 l 776 -1 q 799 131 790 68 l 592 133 m 818 367 l 708 222 l 811 222 l 828 367 l 818 367 m 32 472 q 113 457 67 457 q 191 478 158 457 q 224 535 224 500 q 115 589 224 589 l 106 600 l 106 667 l 165 679 q 235 763 235 710 q 224 791 235 781 q 193 801 213 801 q 93 764 150 801 l 81 764 l 67 839 q 156 881 103 861 q 258 901 208 901 q 342 875 307 901 q 378 806 378 849 q 347 726 378 763 q 264 671 315 690 l 263 661 q 374 549 374 625 q 281 412 374 472 q 81 351 188 351 q 26 372 39 351 q 14 419 14 393 q 14 456 14 446 l 32 472 z "},"¿":{"ha":497,"x_min":-40,"x_max":425,"o":"m 132 -58 q 360 -190 132 -176 l 368 -210 l 304 -326 l 282 -336 q 51 -269 142 -332 q -40 -112 -40 -206 q 25 42 -40 -21 q 197 168 81 94 q 215 179 206 175 l 219 189 l 215 304 l 225 319 l 350 344 l 365 336 l 376 161 l 369 142 l 215 54 q 132 -58 132 7 m 208 536 q 208 560 208 536 q 244 622 208 585 q 328 658 279 658 q 401 633 378 658 q 425 560 425 608 q 390 475 425 511 q 305 439 354 439 q 232 463 256 439 q 208 536 208 488 z "},"À":{"ha":843,"x_min":-54,"x_max":822,"o":"m 803 -4 q 642 0 696 0 q 408 -11 536 0 l 403 0 l 419 82 q 508 99 486 88 q 529 140 529 110 q 514 288 529 157 q 403 290 478 290 q 264 281 328 290 l 219 174 q 206 122 206 140 q 260 86 206 86 l 318 86 l 322 78 l 303 -8 q 108 0 193 0 l -54 -4 l -33 88 q 65 181 26 97 l 385 883 l 603 907 l 618 900 q 725 182 682 421 q 753 112 733 132 q 817 86 772 92 l 822 76 l 803 -4 m 406 396 q 504 401 443 396 l 465 711 l 446 711 l 313 396 l 406 396 m 318 1058 l 311 1076 l 346 1183 l 364 1190 q 674 1046 524 1111 l 656 981 l 636 968 q 318 1058 467 1021 z "},"Á":{"ha":843,"x_min":-54,"x_max":822,"o":"m 803 -4 q 642 0 696 0 q 408 -11 536 0 l 403 0 l 419 82 q 508 99 486 88 q 529 140 529 110 q 514 288 529 157 q 403 290 478 290 q 264 281 328 290 l 219 174 q 206 122 206 140 q 260 86 206 86 l 318 86 l 322 78 l 303 -8 q 108 0 193 0 l -54 -4 l -33 88 q 65 181 26 97 l 385 883 l 603 907 l 618 900 q 725 182 682 421 q 753 112 733 132 q 817 86 772 92 l 822 76 l 803 -4 m 406 396 q 504 401 443 396 l 465 711 l 446 711 l 313 396 l 406 396 m 736 1076 l 729 1058 q 411 968 569 1018 l 393 981 l 374 1046 l 683 1190 l 701 1183 l 736 1076 z "},"Â":{"ha":843,"x_min":-54,"x_max":822,"o":"m 803 -4 q 642 0 696 0 q 408 -11 536 0 l 403 0 l 419 82 q 508 99 486 88 q 529 140 529 110 q 514 288 529 157 q 403 290 478 290 q 264 281 328 290 l 219 174 q 206 122 206 140 q 260 86 206 86 l 318 86 l 322 78 l 303 -8 q 108 0 193 0 l -54 -4 l -33 88 q 65 181 26 97 l 385 883 l 603 907 l 618 900 q 725 182 682 421 q 753 112 733 132 q 817 86 772 92 l 822 76 l 803 -4 m 406 396 q 504 401 443 396 l 465 711 l 446 711 l 313 396 l 406 396 m 522 1063 l 342 982 l 321 988 l 294 1044 l 528 1217 l 556 1217 q 592 1185 556 1218 q 746 1044 715 1071 l 706 988 l 682 982 l 522 1063 z "},"Ã":{"ha":843,"x_min":-54,"x_max":822,"o":"m 803 -4 q 642 0 696 0 q 408 -11 536 0 l 403 0 l 419 82 q 508 99 486 88 q 529 140 529 110 q 514 288 529 157 q 403 290 478 290 q 264 281 328 290 l 219 174 q 206 122 206 140 q 260 86 206 86 l 318 86 l 322 78 l 303 -8 q 108 0 193 0 l -54 -4 l -33 88 q 65 181 26 97 l 385 883 l 603 907 l 618 900 q 725 182 682 421 q 753 112 733 132 q 817 86 772 92 l 822 76 l 803 -4 m 406 396 q 504 401 443 396 l 465 711 l 446 711 l 313 396 l 406 396 m 421 1160 q 522 1136 444 1160 q 615 1113 599 1113 q 655 1131 631 1113 q 713 1185 679 1149 l 728 1185 l 776 1133 l 775 1119 l 653 985 l 629 979 q 530 1003 607 979 q 436 1026 453 1026 q 356 972 406 1026 l 339 954 l 324 954 l 275 1006 l 276 1021 l 399 1154 l 421 1160 z "},"Ä":{"ha":843,"x_min":-54,"x_max":822,"o":"m 803 -4 q 642 0 696 0 q 408 -11 536 0 l 403 0 l 419 82 q 508 99 486 88 q 529 140 529 110 q 514 288 529 157 q 403 290 478 290 q 264 281 328 290 l 219 174 q 206 122 206 140 q 260 86 206 86 l 318 86 l 322 78 l 303 -8 q 108 0 193 0 l -54 -4 l -33 88 q 65 181 26 97 l 385 883 l 603 907 l 618 900 q 725 182 682 421 q 753 112 733 132 q 817 86 772 92 l 822 76 l 803 -4 m 406 396 q 504 401 443 396 l 465 711 l 446 711 l 313 396 l 406 396 m 732 1087 q 732 1067 732 1087 q 703 1017 732 1047 q 633 988 674 988 q 556 1060 556 988 q 585 1135 556 1106 q 655 1165 615 1165 q 713 1146 694 1165 q 732 1087 732 1126 m 388 988 q 315 1060 315 988 q 344 1135 315 1106 q 414 1165 374 1165 q 492 1093 492 1165 q 463 1017 492 1047 q 388 988 433 988 z "},"Å":{"ha":843,"x_min":-54,"x_max":822,"o":"m 803 -4 q 642 0 696 0 q 408 -11 536 0 l 403 0 l 419 82 q 508 99 486 88 q 529 140 529 110 q 514 288 529 157 q 403 290 478 290 q 264 281 328 290 l 219 174 q 206 122 206 140 q 260 86 206 86 l 318 86 l 322 78 l 303 -8 q 108 0 193 0 l -54 -4 l -33 88 q 65 181 26 97 l 385 883 l 603 907 l 618 900 q 725 182 682 421 q 753 112 733 132 q 817 86 772 92 l 822 76 l 803 -4 m 406 396 q 504 401 443 396 l 465 711 l 446 711 l 313 396 l 406 396 m 521 1015 q 582 1074 582 1015 q 526 1124 582 1124 q 483 1108 499 1124 q 468 1067 468 1092 q 485 1028 468 1042 q 521 1015 501 1015 m 653 1088 q 653 1061 653 1088 q 611 988 653 1035 q 510 942 569 942 q 424 972 451 942 q 397 1058 397 1001 q 440 1157 397 1114 q 541 1200 482 1200 q 626 1170 600 1200 q 653 1088 653 1140 z "},"Æ":{"ha":1172,"x_min":-39,"x_max":1136,"o":"m 522 218 l 522 346 l 404 332 l 289 310 l 215 174 q 194 116 194 133 q 209 93 194 99 q 264 88 224 88 l 306 81 l 286 -8 q 245 -6 285 -7 q 151 -2 206 -4 q 61 0 96 0 l -39 -4 l -35 78 q 7 109 -19 81 q 58 181 33 138 l 403 772 q 372 803 399 803 l 331 800 l 322 813 l 344 896 q 672 892 344 892 q 1108 908 999 892 l 1118 893 q 1056 642 1079 771 l 929 632 q 940 716 940 681 q 909 764 940 751 q 806 776 878 776 q 720 768 735 776 q 706 738 706 760 l 711 485 l 842 501 l 974 528 l 986 513 l 956 397 l 832 389 l 713 374 l 718 201 q 738 131 719 153 q 800 108 757 108 q 945 135 910 108 q 1008 267 981 163 l 1126 276 l 1136 264 q 1067 6 1096 139 l 1051 -10 q 875 -3 1054 -7 q 626 0 696 0 q 390 -11 507 0 l 385 0 l 400 83 q 519 171 518 93 q 522 218 522 199 m 357 440 l 440 446 l 525 457 l 526 708 l 506 708 l 357 440 z "},"Ç":{"ha":825,"x_min":44,"x_max":838,"o":"m 44 356 q 184 757 44 607 q 558 907 324 907 q 832 874 657 907 l 838 856 q 769 594 796 740 l 635 586 q 647 678 647 651 q 510 776 647 776 q 326 674 392 776 q 261 382 261 572 q 308 181 261 250 q 435 111 354 111 q 560 156 515 111 q 635 303 604 200 l 769 313 q 711 56 729 169 l 697 39 q 440 -15 590 -10 l 422 -61 q 539 -188 539 -132 q 476 -287 539 -244 q 339 -331 414 -331 q 271 -314 303 -331 q 239 -273 239 -297 q 303 -181 239 -249 l 314 -181 q 314 -203 314 -186 q 328 -240 314 -221 q 371 -258 343 -258 q 415 -246 399 -258 q 432 -214 432 -233 q 328 -119 432 -181 l 368 -15 q 131 94 217 -4 q 44 356 44 193 z "},"È":{"ha":801,"x_min":7,"x_max":811,"o":"m 364 513 l 489 511 l 646 522 l 654 511 l 621 393 q 465 397 514 397 q 344 389 415 397 q 313 148 313 171 q 328 116 313 125 q 392 107 343 107 q 553 133 515 107 q 619 265 592 160 l 735 275 l 743 261 q 674 4 703 138 l 658 -10 q 300 0 410 0 q 7 -14 138 0 l 29 79 q 109 113 86 88 q 139 197 132 138 q 208 765 208 749 q 203 792 208 781 q 172 803 199 803 l 131 800 l 124 813 l 144 894 q 485 890 292 890 q 803 907 678 890 l 811 893 q 750 642 772 771 l 625 633 q 636 718 636 682 q 606 766 636 754 q 502 778 575 778 q 417 771 429 778 q 400 732 406 764 l 364 513 m 308 1058 l 301 1076 l 336 1183 l 354 1190 q 664 1046 514 1111 l 646 981 l 626 968 q 308 1058 457 1021 z "},"É":{"ha":801,"x_min":7,"x_max":811,"o":"m 364 513 l 489 511 l 646 522 l 654 511 l 621 393 q 465 397 514 397 q 344 389 415 397 q 313 148 313 171 q 328 116 313 125 q 392 107 343 107 q 553 133 515 107 q 619 265 592 160 l 735 275 l 743 261 q 674 4 703 138 l 658 -10 q 300 0 410 0 q 7 -14 138 0 l 29 79 q 109 113 86 88 q 139 197 132 138 q 208 765 208 749 q 203 792 208 781 q 172 803 199 803 l 131 800 l 124 813 l 144 894 q 485 890 292 890 q 803 907 678 890 l 811 893 q 750 642 772 771 l 625 633 q 636 718 636 682 q 606 766 636 754 q 502 778 575 778 q 417 771 429 778 q 400 732 406 764 l 364 513 m 694 1076 l 688 1058 q 369 968 528 1018 l 351 981 l 332 1046 l 642 1190 l 660 1183 l 694 1076 z "},"Ê":{"ha":801,"x_min":7,"x_max":811,"o":"m 364 513 l 489 511 l 646 522 l 654 511 l 621 393 q 465 397 514 397 q 344 389 415 397 q 313 148 313 171 q 328 116 313 125 q 392 107 343 107 q 553 133 515 107 q 619 265 592 160 l 735 275 l 743 261 q 674 4 703 138 l 658 -10 q 300 0 410 0 q 7 -14 138 0 l 29 79 q 109 113 86 88 q 139 197 132 138 q 208 765 208 749 q 203 792 208 781 q 172 803 199 803 l 131 800 l 124 813 l 144 894 q 485 890 292 890 q 803 907 678 890 l 811 893 q 750 642 772 771 l 625 633 q 636 718 636 682 q 606 766 636 754 q 502 778 575 778 q 417 771 429 778 q 400 732 406 764 l 364 513 m 524 1063 l 343 982 l 322 988 l 296 1044 l 529 1217 l 557 1217 q 593 1185 557 1218 q 747 1044 717 1071 l 707 988 l 683 982 l 524 1063 z "},"Ë":{"ha":801,"x_min":7,"x_max":811,"o":"m 364 513 l 489 511 l 646 522 l 654 511 l 621 393 q 465 397 514 397 q 344 389 415 397 q 313 148 313 171 q 328 116 313 125 q 392 107 343 107 q 553 133 515 107 q 619 265 592 160 l 735 275 l 743 261 q 674 4 703 138 l 658 -10 q 300 0 410 0 q 7 -14 138 0 l 29 79 q 109 113 86 88 q 139 197 132 138 q 208 765 208 749 q 203 792 208 781 q 172 803 199 803 l 131 800 l 124 813 l 144 894 q 485 890 292 890 q 803 907 678 890 l 811 893 q 750 642 772 771 l 625 633 q 636 718 636 682 q 606 766 636 754 q 502 778 575 778 q 417 771 429 778 q 400 732 406 764 l 364 513 m 732 1087 q 732 1067 732 1087 q 703 1017 732 1047 q 633 988 674 988 q 556 1060 556 988 q 585 1135 556 1106 q 655 1165 615 1165 q 713 1146 694 1165 q 732 1087 732 1126 m 388 988 q 315 1060 315 988 q 344 1135 315 1106 q 414 1165 374 1165 q 492 1093 492 1165 q 463 1017 492 1047 q 388 988 433 988 z "},"Ì":{"ha":490,"x_min":7,"x_max":515,"o":"m 135 893 l 322 890 l 515 901 l 496 810 q 426 788 444 803 q 400 735 407 774 q 313 144 313 228 q 322 101 313 113 q 356 89 332 89 l 414 93 l 418 83 l 396 -4 q 211 0 257 0 q 7 -12 117 0 l 28 76 q 110 113 88 89 q 140 193 133 136 q 208 765 208 750 q 202 791 208 779 q 167 803 196 803 l 121 801 l 115 813 l 135 893 m 129 1058 l 122 1076 l 157 1183 l 175 1190 q 485 1046 335 1111 l 467 981 l 447 968 q 129 1058 278 1021 z "},"Í":{"ha":490,"x_min":7,"x_max":547,"o":"m 135 893 l 322 890 l 515 901 l 496 810 q 426 788 444 803 q 400 735 407 774 q 313 144 313 228 q 322 101 313 113 q 356 89 332 89 l 414 93 l 418 83 l 396 -4 q 211 0 257 0 q 7 -12 117 0 l 28 76 q 110 113 88 89 q 140 193 133 136 q 208 765 208 750 q 202 791 208 779 q 167 803 196 803 l 121 801 l 115 813 l 135 893 m 547 1076 l 540 1058 q 222 968 381 1018 l 204 981 l 185 1046 l 494 1190 l 513 1183 l 547 1076 z "},"Î":{"ha":490,"x_min":7,"x_max":563,"o":"m 135 893 l 322 890 l 515 901 l 496 810 q 426 788 444 803 q 400 735 407 774 q 313 144 313 228 q 322 101 313 113 q 356 89 332 89 l 414 93 l 418 83 l 396 -4 q 211 0 257 0 q 7 -12 117 0 l 28 76 q 110 113 88 89 q 140 193 133 136 q 208 765 208 750 q 202 791 208 779 q 167 803 196 803 l 121 801 l 115 813 l 135 893 m 339 1063 l 158 982 l 138 988 l 111 1044 l 344 1217 l 372 1217 q 408 1185 372 1218 q 563 1044 532 1071 l 522 988 l 499 982 l 339 1063 z "},"Ï":{"ha":490,"x_min":7,"x_max":549,"o":"m 135 893 l 322 890 l 515 901 l 496 810 q 426 788 444 803 q 400 735 407 774 q 313 144 313 228 q 322 101 313 113 q 356 89 332 89 l 414 93 l 418 83 l 396 -4 q 211 0 257 0 q 7 -12 117 0 l 28 76 q 110 113 88 89 q 140 193 133 136 q 208 765 208 750 q 202 791 208 779 q 167 803 196 803 l 121 801 l 115 813 l 135 893 m 549 1087 q 549 1067 549 1087 q 519 1017 549 1047 q 450 988 490 988 q 372 1060 372 988 q 402 1135 372 1106 q 472 1165 432 1165 q 530 1146 511 1165 q 549 1087 549 1126 m 204 988 q 132 1060 132 988 q 161 1135 132 1106 q 231 1165 190 1165 q 308 1093 308 1165 q 279 1017 308 1047 q 204 988 250 988 z "},"Ð":{"ha":947,"x_min":22,"x_max":936,"o":"m 414 -17 q 228 0 282 0 q 31 -14 142 0 l 51 79 q 131 113 108 89 q 163 196 154 138 l 188 397 l 32 397 l 22 407 l 46 490 l 199 490 q 231 762 231 746 q 225 790 231 778 q 196 801 219 801 l 150 799 l 144 811 l 165 894 q 336 890 283 890 l 538 897 q 828 802 721 897 q 936 539 936 707 q 788 142 936 300 q 414 -17 639 -17 m 465 781 q 435 774 443 781 q 424 749 426 767 q 382 490 421 732 l 544 493 l 553 481 l 533 397 l 367 397 q 336 167 336 203 q 358 115 336 131 q 436 100 379 100 q 644 213 568 100 q 721 522 721 326 q 465 781 721 781 z "},"Ñ":{"ha":978,"x_min":17,"x_max":1025,"o":"m 722 803 l 676 801 l 672 813 l 692 896 q 865 890 806 890 l 1025 899 l 1007 807 q 940 781 963 800 q 913 719 918 761 l 804 -21 l 657 -39 q 346 588 518 261 l 333 588 q 276 125 276 139 q 283 99 276 111 q 317 88 290 88 l 374 90 l 381 82 l 357 -6 q 197 0 242 0 q 17 -11 119 0 l 39 81 q 129 168 118 90 q 215 748 215 728 q 198 783 215 768 q 115 806 181 799 l 107 819 l 125 897 q 282 890 214 890 l 411 896 q 696 319 528 644 l 710 319 q 758 757 758 749 q 722 803 758 803 m 490 1160 q 591 1136 514 1160 q 684 1113 668 1113 q 724 1131 700 1113 q 782 1185 749 1149 l 797 1185 l 846 1133 l 844 1119 l 722 985 l 699 979 q 599 1003 675 979 q 506 1026 522 1026 q 425 972 475 1026 l 408 954 l 393 954 l 344 1006 l 346 1021 l 468 1154 l 490 1160 z "},"Ò":{"ha":901,"x_min":44,"x_max":890,"o":"m 432 101 q 608 210 543 101 q 674 515 674 319 q 626 707 674 638 q 494 776 578 776 q 321 667 385 776 q 257 363 257 557 q 303 171 257 240 q 432 101 350 101 m 396 -17 q 140 83 236 -17 q 44 354 44 183 q 179 754 44 601 q 535 907 314 907 q 794 810 699 907 q 890 542 890 713 q 753 139 890 294 q 396 -17 615 -17 m 342 1058 l 335 1076 l 369 1183 l 388 1190 q 697 1046 547 1111 l 679 981 l 660 968 q 342 1058 490 1021 z "},"Ó":{"ha":901,"x_min":44,"x_max":890,"o":"m 432 101 q 608 210 543 101 q 674 515 674 319 q 626 707 674 638 q 494 776 578 776 q 321 667 385 776 q 257 363 257 557 q 303 171 257 240 q 432 101 350 101 m 396 -17 q 140 83 236 -17 q 44 354 44 183 q 179 754 44 601 q 535 907 314 907 q 794 810 699 907 q 890 542 890 713 q 753 139 890 294 q 396 -17 615 -17 m 733 1076 l 726 1058 q 408 968 567 1018 l 390 981 l 371 1046 l 681 1190 l 699 1183 l 733 1076 z "},"Ô":{"ha":901,"x_min":44,"x_max":890,"o":"m 432 101 q 608 210 543 101 q 674 515 674 319 q 626 707 674 638 q 494 776 578 776 q 321 667 385 776 q 257 363 257 557 q 303 171 257 240 q 432 101 350 101 m 396 -17 q 140 83 236 -17 q 44 354 44 183 q 179 754 44 601 q 535 907 314 907 q 794 810 699 907 q 890 542 890 713 q 753 139 890 294 q 396 -17 615 -17 m 538 1063 l 357 982 l 336 988 l 310 1044 l 543 1217 l 571 1217 q 607 1185 571 1218 q 761 1044 731 1071 l 721 988 l 697 982 l 538 1063 z "},"Õ":{"ha":901,"x_min":44,"x_max":890,"o":"m 432 101 q 608 210 543 101 q 674 515 674 319 q 626 707 674 638 q 494 776 578 776 q 321 667 385 776 q 257 363 257 557 q 303 171 257 240 q 432 101 350 101 m 396 -17 q 140 83 236 -17 q 44 354 44 183 q 179 754 44 601 q 535 907 314 907 q 794 810 699 907 q 890 542 890 713 q 753 139 890 294 q 396 -17 615 -17 m 443 1160 q 544 1136 467 1160 q 637 1113 621 1113 q 677 1131 653 1113 q 735 1185 701 1149 l 750 1185 l 799 1133 l 797 1119 l 675 985 l 651 979 q 552 1003 629 979 q 458 1026 475 1026 q 378 972 428 1026 l 361 954 l 346 954 l 297 1006 l 299 1021 l 421 1154 l 443 1160 z "},"Ö":{"ha":901,"x_min":44,"x_max":890,"o":"m 432 101 q 608 210 543 101 q 674 515 674 319 q 626 707 674 638 q 494 776 578 776 q 321 667 385 776 q 257 363 257 557 q 303 171 257 240 q 432 101 350 101 m 396 -17 q 140 83 236 -17 q 44 354 44 183 q 179 754 44 601 q 535 907 314 907 q 794 810 699 907 q 890 542 890 713 q 753 139 890 294 q 396 -17 615 -17 m 747 1087 q 747 1067 747 1087 q 718 1017 747 1047 q 649 988 689 988 q 571 1060 571 988 q 601 1135 571 1106 q 670 1165 631 1165 q 728 1146 710 1165 q 747 1087 747 1126 m 403 988 q 331 1060 331 988 q 360 1135 331 1106 q 429 1165 389 1165 q 507 1093 507 1165 q 478 1017 507 1047 q 403 988 449 988 z "},"×":{"ha":678,"x_min":67,"x_max":628,"o":"m 544 628 l 561 621 l 628 524 l 438 346 l 590 176 l 581 158 l 472 78 l 328 249 l 143 75 l 126 79 l 67 179 q 244 343 160 265 l 93 522 l 99 542 l 211 615 q 354 442 288 521 l 544 628 z "},"Ø":{"ha":901,"x_min":44,"x_max":890,"o":"m 44 354 q 179 754 44 601 q 535 907 314 907 q 664 888 603 907 l 739 1013 l 824 972 l 828 954 l 758 840 q 890 542 890 743 q 753 139 890 294 q 396 -17 615 -17 q 264 4 325 -17 l 171 -149 l 88 -108 l 83 -94 l 174 53 q 44 354 44 151 m 432 101 q 608 210 543 101 q 674 515 674 319 q 650 661 674 599 l 340 131 q 432 101 378 101 m 257 363 q 276 224 257 285 l 582 750 q 494 776 542 776 q 321 667 385 776 q 257 363 257 557 z "},"Ù":{"ha":874,"x_min":83,"x_max":926,"o":"m 293 268 q 328 149 293 190 q 433 107 364 107 q 617 290 594 107 q 668 760 668 742 q 663 791 668 779 q 633 803 658 803 l 589 800 l 586 806 l 608 894 q 764 890 714 890 l 926 900 l 907 808 q 840 786 856 799 q 821 739 825 774 l 767 304 q 651 65 747 147 q 389 -17 554 -17 q 104 229 104 -17 q 135 500 104 251 q 167 765 167 749 q 161 792 167 781 q 128 803 156 803 l 86 800 l 83 806 l 107 894 q 299 890 221 890 l 460 900 l 439 807 q 378 785 396 801 q 356 733 361 769 l 296 329 q 293 268 293 289 m 339 1058 l 332 1076 l 367 1183 l 385 1190 q 694 1046 544 1111 l 676 981 l 657 968 q 339 1058 488 1021 z "},"Ú":{"ha":874,"x_min":83,"x_max":926,"o":"m 293 268 q 328 149 293 190 q 433 107 364 107 q 617 290 594 107 q 668 760 668 742 q 663 791 668 779 q 633 803 658 803 l 589 800 l 586 806 l 608 894 q 764 890 714 890 l 926 900 l 907 808 q 840 786 856 799 q 821 739 825 774 l 767 304 q 651 65 747 147 q 389 -17 554 -17 q 104 229 104 -17 q 135 500 104 251 q 167 765 167 749 q 161 792 167 781 q 128 803 156 803 l 86 800 l 83 806 l 107 894 q 299 890 221 890 l 460 900 l 439 807 q 378 785 396 801 q 356 733 361 769 l 296 329 q 293 268 293 289 m 756 1076 l 749 1058 q 431 968 589 1018 l 413 981 l 393 1046 l 703 1190 l 721 1183 l 756 1076 z "},"Û":{"ha":874,"x_min":83,"x_max":926,"o":"m 293 268 q 328 149 293 190 q 433 107 364 107 q 617 290 594 107 q 668 760 668 742 q 663 791 668 779 q 633 803 658 803 l 589 800 l 586 806 l 608 894 q 764 890 714 890 l 926 900 l 907 808 q 840 786 856 799 q 821 739 825 774 l 767 304 q 651 65 747 147 q 389 -17 554 -17 q 104 229 104 -17 q 135 500 104 251 q 167 765 167 749 q 161 792 167 781 q 128 803 156 803 l 86 800 l 83 806 l 107 894 q 299 890 221 890 l 460 900 l 439 807 q 378 785 396 801 q 356 733 361 769 l 296 329 q 293 268 293 289 m 554 1063 l 374 982 l 353 988 l 326 1044 l 560 1217 l 588 1217 q 624 1185 588 1218 q 778 1044 747 1071 l 738 988 l 714 982 l 554 1063 z "},"Ü":{"ha":874,"x_min":83,"x_max":926,"o":"m 293 268 q 328 149 293 190 q 433 107 364 107 q 617 290 594 107 q 668 760 668 742 q 663 791 668 779 q 633 803 658 803 l 589 800 l 586 806 l 608 894 q 764 890 714 890 l 926 900 l 907 808 q 840 786 856 799 q 821 739 825 774 l 767 304 q 651 65 747 147 q 389 -17 554 -17 q 104 229 104 -17 q 135 500 104 251 q 167 765 167 749 q 161 792 167 781 q 128 803 156 803 l 86 800 l 83 806 l 107 894 q 299 890 221 890 l 460 900 l 439 807 q 378 785 396 801 q 356 733 361 769 l 296 329 q 293 268 293 289 m 763 1087 q 763 1067 763 1087 q 733 1017 763 1047 q 664 988 704 988 q 586 1060 586 988 q 616 1135 586 1106 q 685 1165 646 1165 q 744 1146 725 1165 q 763 1087 763 1126 m 418 988 q 346 1060 346 988 q 375 1135 346 1106 q 444 1165 404 1165 q 522 1093 522 1165 q 493 1017 522 1047 q 418 988 464 988 z "},"Ý":{"ha":808,"x_min":47,"x_max":888,"o":"m 567 896 l 744 890 l 883 896 l 888 886 l 867 803 q 774 748 811 785 q 683 625 738 711 q 517 363 522 372 q 509 348 513 354 q 503 332 506 342 q 498 317 500 322 q 494 299 496 311 q 490 281 492 288 q 487 260 489 275 q 483 238 485 244 q 478 188 482 214 q 474 142 474 161 q 482 106 474 122 q 528 90 490 90 l 594 94 l 599 88 l 575 -6 q 369 0 421 0 q 140 -15 299 0 l 161 78 q 266 114 240 89 q 299 210 292 139 q 306 303 306 267 q 283 396 306 339 l 185 660 q 134 758 160 729 q 51 800 108 788 l 47 807 l 69 894 q 242 890 189 890 l 458 901 l 464 889 l 446 810 q 380 797 397 807 q 363 755 363 788 q 440 478 363 722 l 451 478 l 586 711 q 613 781 613 756 q 549 810 613 806 l 546 817 l 567 896 m 732 1076 l 725 1058 q 407 968 565 1018 l 389 981 l 369 1046 l 679 1190 l 697 1183 l 732 1076 z "},"Þ":{"ha":771,"x_min":6,"x_max":778,"o":"m 133 893 l 322 892 l 517 901 l 499 808 q 427 788 444 800 q 404 744 410 776 l 399 711 l 499 711 q 778 500 778 711 q 672 286 778 372 q 417 200 567 200 l 322 200 q 314 126 314 142 q 321 101 314 111 q 358 90 328 90 l 422 94 l 428 85 l 406 -4 q 211 0 260 0 q 6 -12 118 0 l 26 78 q 108 113 86 90 q 138 194 131 136 q 207 763 207 747 q 200 790 207 778 q 164 801 193 801 l 119 800 l 113 811 l 133 893 m 578 475 q 537 569 578 539 q 410 599 496 599 q 376 579 381 599 l 338 322 q 446 303 404 303 q 578 475 578 325 z "},"ß":{"ha":1253,"x_min":19,"x_max":1246,"o":"m 235 -12 q 129 -2 181 -12 q 28 29 78 8 l 19 46 q 63 228 50 143 l 168 236 q 165 179 165 211 q 265 94 165 94 q 348 116 317 94 q 379 171 379 138 q 350 226 379 204 q 269 274 321 249 q 197 313 218 300 q 144 350 175 325 q 85 469 85 396 q 176 642 85 575 q 410 708 267 708 q 613 679 514 708 l 619 663 q 569 476 589 575 l 472 469 l 463 476 q 469 526 469 510 q 378 594 469 594 q 301 573 332 594 q 271 518 271 551 q 353 433 271 476 q 398 411 364 428 q 449 385 432 394 q 494 356 467 375 q 535 321 521 338 q 571 225 571 278 q 480 52 571 117 q 235 -12 389 -12 m 861 -12 q 756 -2 808 -12 q 654 29 704 8 l 646 46 q 689 228 676 143 l 794 236 q 792 179 792 211 q 892 94 792 94 q 974 116 943 94 q 1006 171 1006 138 q 976 226 1006 204 q 896 274 947 249 q 823 313 844 300 q 769 350 801 325 q 711 469 711 396 q 802 642 711 575 q 1038 708 893 708 q 1239 679 1140 708 l 1246 663 q 1196 476 1215 575 l 1099 469 l 1089 476 q 1096 526 1096 510 q 1004 594 1096 594 q 929 573 960 594 q 899 522 899 551 q 919 474 899 493 q 965 442 939 456 q 1024 411 990 428 q 1076 385 1058 394 q 1120 356 1093 375 q 1161 321 1147 338 q 1197 225 1197 278 q 1106 52 1197 117 q 861 -12 1015 -12 z "},"à":{"ha":736,"x_min":-31,"x_max":706,"o":"m 438 214 l 342 215 q 240 210 279 215 l 210 136 q 199 101 199 114 q 239 76 199 76 l 283 76 l 288 68 l 272 -6 q 108 0 178 0 l -31 -3 l -12 75 q 64 143 35 83 l 318 689 l 529 708 l 542 700 q 631 150 599 314 q 652 94 636 111 q 700 75 668 78 l 706 67 l 689 -3 q 547 0 600 0 l 353 -8 l 347 0 l 361 74 q 431 85 415 78 q 447 114 447 93 q 438 214 447 131 m 354 314 q 429 318 392 314 l 400 543 l 382 543 l 282 314 l 354 314 m 253 861 l 246 879 l 281 986 l 299 993 q 608 849 458 914 l 590 783 l 571 771 q 253 861 450 808 z "},"á":{"ha":736,"x_min":-31,"x_max":706,"o":"m 438 214 l 342 215 q 240 210 279 215 l 210 136 q 199 101 199 114 q 239 76 199 76 l 283 76 l 288 68 l 272 -6 q 108 0 178 0 l -31 -3 l -12 75 q 64 143 35 83 l 318 689 l 529 708 l 542 700 q 631 150 599 314 q 652 94 636 111 q 700 75 668 78 l 706 67 l 689 -3 q 547 0 600 0 l 353 -8 l 347 0 l 361 74 q 431 85 415 78 q 447 114 447 93 q 438 214 447 131 m 354 314 q 429 318 392 314 l 400 543 l 382 543 l 282 314 l 354 314 m 643 879 l 636 861 q 318 771 476 821 l 300 783 l 281 849 l 590 993 l 608 986 l 643 879 z "},"â":{"ha":736,"x_min":-31,"x_max":706,"o":"m 438 214 l 342 215 q 240 210 279 215 l 210 136 q 199 101 199 114 q 239 76 199 76 l 283 76 l 288 68 l 272 -6 q 108 0 178 0 l -31 -3 l -12 75 q 64 143 35 83 l 318 689 l 529 708 l 542 700 q 631 150 599 314 q 652 94 636 111 q 700 75 668 78 l 706 67 l 689 -3 q 547 0 600 0 l 353 -8 l 347 0 l 361 74 q 431 85 415 78 q 447 114 447 93 q 438 214 447 131 m 354 314 q 429 318 392 314 l 400 543 l 382 543 l 282 314 l 354 314 m 444 865 l 264 785 l 243 790 l 217 847 l 450 1019 l 478 1019 q 514 988 478 1021 q 668 847 638 874 l 628 790 l 604 785 l 444 865 z "},"ã":{"ha":736,"x_min":-31,"x_max":706,"o":"m 438 214 l 342 215 q 240 210 279 215 l 210 136 q 199 101 199 114 q 239 76 199 76 l 283 76 l 288 68 l 272 -6 q 108 0 178 0 l -31 -3 l -12 75 q 64 143 35 83 l 318 689 l 529 708 l 542 700 q 631 150 599 314 q 652 94 636 111 q 700 75 668 78 l 706 67 l 689 -3 q 547 0 600 0 l 353 -8 l 347 0 l 361 74 q 431 85 415 78 q 447 114 447 93 q 438 214 447 131 m 354 314 q 429 318 392 314 l 400 543 l 382 543 l 282 314 l 354 314 m 342 963 q 442 939 365 963 q 535 915 519 915 q 576 933 551 915 q 633 988 600 951 l 649 988 l 697 936 l 696 922 l 574 788 l 550 782 q 451 806 528 782 q 358 829 375 829 q 276 775 326 829 l 260 757 l 244 757 l 196 808 l 197 824 l 319 957 l 342 963 z "},"ä":{"ha":736,"x_min":-31,"x_max":706,"o":"m 438 214 l 342 215 q 240 210 279 215 l 210 136 q 199 101 199 114 q 239 76 199 76 l 283 76 l 288 68 l 272 -6 q 108 0 178 0 l -31 -3 l -12 75 q 64 143 35 83 l 318 689 l 529 708 l 542 700 q 631 150 599 314 q 652 94 636 111 q 700 75 668 78 l 706 67 l 689 -3 q 547 0 600 0 l 353 -8 l 347 0 l 361 74 q 431 85 415 78 q 447 114 447 93 q 438 214 447 131 m 354 314 q 429 318 392 314 l 400 543 l 382 543 l 282 314 l 354 314 m 654 890 q 654 870 654 890 q 625 820 654 850 q 556 790 596 790 q 478 863 478 790 q 508 938 478 908 q 577 968 538 968 q 635 949 617 968 q 654 890 654 929 m 310 790 q 238 863 238 790 q 267 938 238 908 q 336 968 296 968 q 414 896 414 968 q 385 820 414 850 q 310 790 356 790 z "},"å":{"ha":736,"x_min":-31,"x_max":706,"o":"m 438 214 l 342 215 q 240 210 279 215 l 210 136 q 199 101 199 114 q 239 76 199 76 l 283 76 l 288 68 l 272 -6 q 108 0 178 0 l -31 -3 l -12 75 q 64 143 35 83 l 318 689 l 529 708 l 542 700 q 631 150 599 314 q 652 94 636 111 q 700 75 668 78 l 706 67 l 689 -3 q 547 0 600 0 l 353 -8 l 347 0 l 361 74 q 431 85 415 78 q 447 114 447 93 q 438 214 447 131 m 354 314 q 429 318 392 314 l 400 543 l 382 543 l 282 314 l 354 314 m 443 818 q 504 876 504 818 q 449 926 504 926 q 406 910 421 926 q 390 869 390 894 q 407 831 390 844 q 443 818 424 818 m 575 890 q 575 864 575 890 q 533 791 575 838 q 433 744 492 744 q 347 774 374 744 q 319 860 319 804 q 362 960 319 917 q 463 1003 404 1003 q 549 973 522 1003 q 575 890 575 943 z "},"æ":{"ha":1014,"x_min":-17,"x_max":971,"o":"m 446 171 l 446 258 l 351 247 l 258 226 l 210 136 q 193 97 193 107 q 251 78 193 78 l 278 71 l 261 -6 q -17 -3 113 1 l -12 71 q 63 144 19 78 l 328 592 q 303 618 326 618 l 271 617 l 263 626 l 281 699 q 643 696 432 696 q 947 708 854 696 l 954 696 q 906 493 925 594 l 786 485 q 796 548 796 522 q 772 583 796 574 q 682 593 747 593 q 617 564 617 593 l 624 385 l 722 399 l 833 422 l 846 407 l 819 307 l 715 297 l 625 286 l 631 169 q 693 96 632 96 q 803 117 776 96 q 853 218 831 139 l 963 226 l 971 214 q 914 6 938 114 l 900 -7 q 811 -4 842 -6 q 735 -3 781 -3 q 524 0 597 0 l 342 -8 l 336 0 l 350 74 q 421 94 400 79 q 444 133 442 108 q 446 171 446 158 m 319 344 l 449 358 l 450 540 l 429 540 l 319 344 z "},"ç":{"ha":703,"x_min":44,"x_max":703,"o":"m 44 282 q 157 594 44 481 q 465 708 269 708 q 696 681 549 708 l 703 665 q 646 453 668 572 l 518 444 q 529 519 529 500 q 425 592 529 592 q 243 304 243 592 q 378 103 243 103 q 465 135 433 103 q 519 246 497 167 l 646 254 q 601 44 615 138 l 589 31 q 386 -11 504 -4 l 367 -61 q 483 -188 483 -132 q 421 -287 483 -244 q 283 -331 358 -331 q 215 -314 247 -331 q 183 -273 183 -297 q 247 -181 183 -249 l 258 -181 q 258 -203 258 -186 q 273 -240 258 -221 q 315 -258 288 -258 q 360 -246 343 -258 q 376 -214 376 -233 q 272 -119 376 -181 l 314 -11 q 116 74 188 -3 q 44 282 44 150 z "},"è":{"ha":688,"x_min":13,"x_max":688,"o":"m 282 137 q 282 124 282 137 q 294 103 282 111 q 343 96 307 96 q 467 117 438 96 q 518 217 497 138 l 626 225 l 635 213 q 579 6 601 114 l 564 -7 q 269 0 365 0 q 13 -11 126 0 l 31 69 q 95 97 76 76 q 119 164 114 117 q 172 587 172 574 q 168 609 172 600 q 143 618 164 618 l 111 617 l 103 628 l 121 699 q 410 694 251 694 q 679 708 568 694 l 688 696 q 638 493 656 594 l 521 486 q 531 549 531 522 q 506 585 531 576 q 427 594 482 594 q 363 589 372 594 q 350 561 353 583 l 322 404 l 422 404 l 549 413 l 557 401 l 529 300 q 397 303 443 303 q 306 296 350 303 q 282 137 282 163 m 239 861 l 232 879 l 267 986 l 285 993 q 594 849 444 914 l 576 783 l 557 771 q 239 861 436 808 z "},"é":{"ha":688,"x_min":13,"x_max":688,"o":"m 282 137 q 282 124 282 137 q 294 103 282 111 q 343 96 307 96 q 467 117 438 96 q 518 217 497 138 l 626 225 l 635 213 q 579 6 601 114 l 564 -7 q 269 0 365 0 q 13 -11 126 0 l 31 69 q 95 97 76 76 q 119 164 114 117 q 172 587 172 574 q 168 609 172 600 q 143 618 164 618 l 111 617 l 103 628 l 121 699 q 410 694 251 694 q 679 708 568 694 l 688 696 q 638 493 656 594 l 521 486 q 531 549 531 522 q 506 585 531 576 q 427 594 482 594 q 363 589 372 594 q 350 561 353 583 l 322 404 l 422 404 l 549 413 l 557 401 l 529 300 q 397 303 443 303 q 306 296 350 303 q 282 137 282 163 m 607 879 l 600 861 q 282 771 440 821 l 264 783 l 244 849 l 554 993 l 572 986 l 607 879 z "},"ê":{"ha":688,"x_min":13,"x_max":688,"o":"m 282 137 q 282 124 282 137 q 294 103 282 111 q 343 96 307 96 q 467 117 438 96 q 518 217 497 138 l 626 225 l 635 213 q 579 6 601 114 l 564 -7 q 269 0 365 0 q 13 -11 126 0 l 31 69 q 95 97 76 76 q 119 164 114 117 q 172 587 172 574 q 168 609 172 600 q 143 618 164 618 l 111 617 l 103 628 l 121 699 q 410 694 251 694 q 679 708 568 694 l 688 696 q 638 493 656 594 l 521 486 q 531 549 531 522 q 506 585 531 576 q 427 594 482 594 q 363 589 372 594 q 350 561 353 583 l 322 404 l 422 404 l 549 413 l 557 401 l 529 300 q 397 303 443 303 q 306 296 350 303 q 282 137 282 163 m 440 865 l 260 785 l 239 790 l 213 847 l 446 1019 l 474 1019 q 510 988 474 1021 q 664 847 633 874 l 624 790 l 600 785 l 440 865 z "},"ë":{"ha":688,"x_min":13,"x_max":688,"o":"m 282 137 q 282 124 282 137 q 294 103 282 111 q 343 96 307 96 q 467 117 438 96 q 518 217 497 138 l 626 225 l 635 213 q 579 6 601 114 l 564 -7 q 269 0 365 0 q 13 -11 126 0 l 31 69 q 95 97 76 76 q 119 164 114 117 q 172 587 172 574 q 168 609 172 600 q 143 618 164 618 l 111 617 l 103 628 l 121 699 q 410 694 251 694 q 679 708 568 694 l 688 696 q 638 493 656 594 l 521 486 q 531 549 531 522 q 506 585 531 576 q 427 594 482 594 q 363 589 372 594 q 350 561 353 583 l 322 404 l 422 404 l 549 413 l 557 401 l 529 300 q 397 303 443 303 q 306 296 350 303 q 282 137 282 163 m 306 790 q 233 863 233 790 q 263 938 233 908 q 332 968 292 968 q 410 896 410 968 q 381 820 410 850 q 306 790 351 790 m 650 890 q 650 870 650 890 q 621 820 650 850 q 551 790 592 790 q 474 863 474 790 q 503 938 474 908 q 573 968 533 968 q 631 949 613 968 q 650 890 650 929 z "},"ì":{"ha":431,"x_min":14,"x_max":453,"o":"m 113 697 l 274 694 l 442 703 l 425 624 q 369 607 383 618 q 350 565 356 596 q 282 119 282 199 q 290 85 282 94 q 315 76 297 76 l 361 79 l 365 71 l 346 -3 q 176 0 226 0 l 14 -8 l 31 68 q 97 96 79 78 q 119 158 115 114 q 172 588 172 575 q 167 609 172 600 q 138 618 161 618 l 101 618 q 97 628 97 626 l 113 697 m 97 861 l 90 879 l 125 986 l 143 993 q 453 849 303 914 l 435 783 l 415 771 q 97 861 294 808 z "},"í":{"ha":431,"x_min":14,"x_max":474,"o":"m 113 697 l 274 694 l 442 703 l 425 624 q 369 607 383 618 q 350 565 356 596 q 282 119 282 199 q 290 85 282 94 q 315 76 297 76 l 361 79 l 365 71 l 346 -3 q 176 0 226 0 l 14 -8 l 31 68 q 97 96 79 78 q 119 158 115 114 q 172 588 172 575 q 167 609 172 600 q 138 618 161 618 l 101 618 q 97 628 97 626 l 113 697 m 474 879 l 467 861 q 149 771 307 821 l 131 783 l 111 849 l 421 993 l 439 986 l 474 879 z "},"î":{"ha":431,"x_min":14,"x_max":511,"o":"m 113 697 l 274 694 l 442 703 l 425 624 q 369 607 383 618 q 350 565 356 596 q 282 119 282 199 q 290 85 282 94 q 315 76 297 76 l 361 79 l 365 71 l 346 -3 q 176 0 226 0 l 14 -8 l 31 68 q 97 96 79 78 q 119 158 115 114 q 172 588 172 575 q 167 609 172 600 q 138 618 161 618 l 101 618 q 97 628 97 626 l 113 697 m 288 865 l 107 785 l 86 790 l 60 847 l 293 1019 l 321 1019 q 357 988 321 1021 q 511 847 481 874 l 471 790 l 447 785 q 288 865 447 785 z "},"ï":{"ha":431,"x_min":14,"x_max":500,"o":"m 113 697 l 274 694 l 442 703 l 425 624 q 369 607 383 618 q 350 565 356 596 q 282 119 282 199 q 290 85 282 94 q 315 76 297 76 l 361 79 l 365 71 l 346 -3 q 176 0 226 0 l 14 -8 l 31 68 q 97 96 79 78 q 119 158 115 114 q 172 588 172 575 q 167 609 172 600 q 138 618 161 618 l 101 618 q 97 628 97 626 l 113 697 m 156 790 q 83 863 83 790 q 113 938 83 908 q 182 968 142 968 q 260 896 260 968 q 231 820 260 850 q 156 790 201 790 m 500 890 q 500 870 500 890 q 471 820 500 850 q 401 790 442 790 q 324 863 324 790 q 353 938 324 908 q 423 968 383 968 q 481 949 463 968 q 500 890 500 929 z "},"ð":{"ha":806,"x_min":28,"x_max":786,"o":"m 168 385 q 192 588 192 575 q 188 609 192 600 q 165 618 185 618 l 128 615 l 122 626 l 140 699 q 288 694 244 694 l 457 701 q 698 628 610 701 q 786 422 786 554 q 665 110 786 232 q 356 -12 544 -12 q 183 0 247 0 l 35 -11 l 53 71 q 117 97 99 79 q 142 161 135 115 l 158 303 l 36 303 l 28 311 l 49 385 l 168 385 m 401 596 q 369 569 372 596 q 338 386 361 528 l 458 388 l 465 378 l 449 303 l 324 303 q 303 140 303 167 q 318 103 303 114 q 374 92 333 92 q 531 176 474 92 q 588 408 588 260 q 542 551 588 506 q 401 596 497 596 z "},"ñ":{"ha":835,"x_min":19,"x_max":863,"o":"m 596 619 l 558 618 l 554 626 l 571 700 q 711 694 672 694 q 783 696 750 694 q 863 701 863 699 l 849 622 q 794 601 811 617 q 771 554 776 586 l 686 -10 l 543 -24 q 303 421 418 221 l 290 421 l 253 126 q 258 88 250 99 q 288 76 265 76 l 331 78 l 338 71 l 318 -4 q 168 0 215 0 l 19 -8 l 39 71 q 113 139 106 79 q 179 576 179 563 q 165 602 179 590 q 99 619 151 614 l 90 632 l 106 700 q 243 694 181 694 l 360 700 q 581 282 458 500 l 592 282 q 626 582 626 576 q 596 619 626 619 m 394 963 q 495 939 418 963 q 588 915 572 915 q 628 933 604 915 q 686 988 653 951 l 701 988 l 750 936 l 749 922 l 626 788 l 603 782 q 504 806 581 782 q 411 829 428 829 q 329 775 379 829 l 313 757 l 297 757 l 249 808 l 250 824 l 372 957 l 394 963 z "},"ò":{"ha":765,"x_min":44,"x_max":743,"o":"m 368 93 q 498 172 451 93 q 544 400 544 251 q 510 543 544 494 q 413 592 475 592 q 286 513 332 592 q 240 285 240 433 q 274 142 240 190 q 368 93 307 93 m 339 -12 q 124 65 203 -12 q 44 281 44 143 q 153 592 44 476 q 446 708 261 708 q 664 633 585 708 q 743 419 743 557 q 633 106 743 224 q 339 -12 522 -12 m 263 861 l 256 879 l 290 986 l 308 993 q 618 849 468 914 l 600 783 l 581 771 q 263 861 460 808 z "},"ó":{"ha":765,"x_min":44,"x_max":743,"o":"m 368 93 q 498 172 451 93 q 544 400 544 251 q 510 543 544 494 q 413 592 475 592 q 286 513 332 592 q 240 285 240 433 q 274 142 240 190 q 368 93 307 93 m 339 -12 q 124 65 203 -12 q 44 281 44 143 q 153 592 44 476 q 446 708 261 708 q 664 633 585 708 q 743 419 743 557 q 633 106 743 224 q 339 -12 522 -12 m 635 879 l 628 861 q 310 771 468 821 l 292 783 l 272 849 l 582 993 l 600 986 l 635 879 z "},"ô":{"ha":765,"x_min":44,"x_max":743,"o":"m 368 93 q 498 172 451 93 q 544 400 544 251 q 510 543 544 494 q 413 592 475 592 q 286 513 332 592 q 240 285 240 433 q 274 142 240 190 q 368 93 307 93 m 339 -12 q 124 65 203 -12 q 44 281 44 143 q 153 592 44 476 q 446 708 261 708 q 664 633 585 708 q 743 419 743 557 q 633 106 743 224 q 339 -12 522 -12 m 450 865 l 269 785 l 249 790 l 222 847 l 456 1019 l 483 1019 q 519 988 483 1021 q 674 847 643 874 l 633 790 l 610 785 l 450 865 z "},"õ":{"ha":765,"x_min":44,"x_max":743,"o":"m 368 93 q 498 172 451 93 q 544 400 544 251 q 510 543 544 494 q 413 592 475 592 q 286 513 332 592 q 240 285 240 433 q 274 142 240 190 q 368 93 307 93 m 339 -12 q 124 65 203 -12 q 44 281 44 143 q 153 592 44 476 q 446 708 261 708 q 664 633 585 708 q 743 419 743 557 q 633 106 743 224 q 339 -12 522 -12 m 351 963 q 452 939 375 963 q 545 915 529 915 q 585 933 561 915 q 643 988 610 951 l 658 988 l 707 936 l 706 922 l 583 788 l 560 782 q 460 806 536 782 q 367 829 383 829 q 286 775 336 829 l 269 757 l 254 757 l 206 808 l 207 824 l 329 957 l 351 963 z "},"ö":{"ha":765,"x_min":44,"x_max":743,"o":"m 368 93 q 498 172 451 93 q 544 400 544 251 q 510 543 544 494 q 413 592 475 592 q 286 513 332 592 q 240 285 240 433 q 274 142 240 190 q 368 93 307 93 m 339 -12 q 124 65 203 -12 q 44 281 44 143 q 153 592 44 476 q 446 708 261 708 q 664 633 585 708 q 743 419 743 557 q 633 106 743 224 q 339 -12 522 -12 m 658 890 q 658 870 658 890 q 629 820 658 850 q 560 790 600 790 q 482 863 482 790 q 512 938 482 908 q 581 968 542 968 q 640 949 621 968 q 658 890 658 929 m 314 790 q 242 863 242 790 q 271 938 242 908 q 340 968 300 968 q 418 896 418 968 q 389 820 418 850 q 314 790 360 790 z "},"÷":{"ha":678,"x_min":21,"x_max":668,"o":"m 661 433 l 668 417 l 638 289 l 29 286 l 21 301 l 56 426 q 368 425 249 425 l 661 433 m 406 121 q 406 99 406 121 q 374 43 406 76 q 297 10 342 10 q 231 32 251 10 q 210 99 210 54 q 242 176 210 143 q 319 210 274 210 q 385 188 364 210 q 406 121 406 165 m 467 614 q 467 592 467 614 q 435 536 467 569 q 357 503 403 503 q 271 585 271 503 q 302 669 271 636 q 379 703 333 703 q 446 681 425 703 q 467 614 467 658 z "},"ø":{"ha":765,"x_min":44,"x_max":743,"o":"m 44 281 q 153 592 44 476 q 446 708 261 708 q 554 694 508 708 l 625 799 l 708 757 l 710 742 l 646 647 q 743 419 743 572 q 633 106 743 224 q 339 -12 522 -12 q 229 3 282 -12 l 146 -121 l 65 -78 l 63 -67 l 140 49 q 44 281 44 126 m 368 93 q 498 172 451 93 q 544 400 544 251 q 536 479 544 446 l 303 113 q 368 93 331 93 m 240 285 q 246 211 240 239 l 476 575 q 413 592 450 592 q 286 513 332 592 q 240 285 240 433 z "},"ù":{"ha":740,"x_min":72,"x_max":771,"o":"m 264 211 q 368 96 264 96 q 504 224 488 96 q 544 584 544 568 q 540 609 544 600 q 517 618 536 618 l 482 617 l 481 621 l 500 699 q 629 694 588 694 l 771 701 l 753 622 q 700 603 713 613 q 685 569 688 594 l 644 243 q 332 -12 611 -12 q 90 176 90 -12 q 114 381 90 186 q 138 588 138 575 q 133 609 138 600 q 108 618 129 618 l 74 617 l 72 621 l 92 699 q 260 694 190 694 l 397 701 l 379 621 q 331 605 344 617 q 313 565 317 593 l 267 251 q 264 211 264 238 m 260 861 l 253 879 l 288 986 l 306 993 q 615 849 465 914 l 597 783 l 578 771 q 260 861 457 808 z "},"ú":{"ha":740,"x_min":72,"x_max":771,"o":"m 264 211 q 368 96 264 96 q 504 224 488 96 q 544 584 544 568 q 540 609 544 600 q 517 618 536 618 l 482 617 l 481 621 l 500 699 q 629 694 588 694 l 771 701 l 753 622 q 700 603 713 613 q 685 569 688 594 l 644 243 q 332 -12 611 -12 q 90 176 90 -12 q 114 381 90 186 q 138 588 138 575 q 133 609 138 600 q 108 618 129 618 l 74 617 l 72 621 l 92 699 q 260 694 190 694 l 397 701 l 379 621 q 331 605 344 617 q 313 565 317 593 l 267 251 q 264 211 264 238 m 647 879 l 640 861 q 322 771 481 821 l 304 783 l 285 849 l 594 993 l 613 986 l 647 879 z "},"û":{"ha":740,"x_min":72,"x_max":771,"o":"m 264 211 q 368 96 264 96 q 504 224 488 96 q 544 584 544 568 q 540 609 544 600 q 517 618 536 618 l 482 617 l 481 621 l 500 699 q 629 694 588 694 l 771 701 l 753 622 q 700 603 713 613 q 685 569 688 594 l 644 243 q 332 -12 611 -12 q 90 176 90 -12 q 114 381 90 186 q 138 588 138 575 q 133 609 138 600 q 108 618 129 618 l 74 617 l 72 621 l 92 699 q 260 694 190 694 l 397 701 l 379 621 q 331 605 344 617 q 313 565 317 593 l 267 251 q 264 211 264 238 m 463 865 l 282 785 l 261 790 l 235 847 l 468 1019 l 496 1019 q 532 988 496 1021 q 686 847 656 874 l 646 790 l 622 785 l 463 865 z "},"ü":{"ha":740,"x_min":72,"x_max":771,"o":"m 264 211 q 368 96 264 96 q 504 224 488 96 q 544 584 544 568 q 540 609 544 600 q 517 618 536 618 l 482 617 l 481 621 l 500 699 q 629 694 588 694 l 771 701 l 753 622 q 700 603 713 613 q 685 569 688 594 l 644 243 q 332 -12 611 -12 q 90 176 90 -12 q 114 381 90 186 q 138 588 138 575 q 133 609 138 600 q 108 618 129 618 l 74 617 l 72 621 l 92 699 q 260 694 190 694 l 397 701 l 379 621 q 331 605 344 617 q 313 565 317 593 l 267 251 q 264 211 264 238 m 671 890 q 671 870 671 890 q 642 820 671 850 q 572 790 613 790 q 494 863 494 790 q 524 938 494 908 q 594 968 554 968 q 652 949 633 968 q 671 890 671 929 m 326 790 q 254 863 254 790 q 283 938 254 908 q 353 968 313 968 q 431 896 431 968 q 401 820 431 850 q 326 790 372 790 z "},"ý":{"ha":711,"x_min":49,"x_max":757,"o":"m 481 699 l 636 694 l 753 699 l 757 690 l 739 617 q 665 571 696 601 q 592 479 633 540 l 464 286 q 438 224 442 254 q 425 120 425 136 q 433 92 425 104 q 471 79 440 79 l 526 82 l 531 76 l 511 -6 q 315 0 374 0 l 126 -11 l 144 69 q 233 94 211 76 q 264 196 257 115 q 265 231 265 206 q 246 303 265 257 l 160 511 q 119 580 142 557 q 53 615 97 603 l 49 621 l 68 697 q 218 694 175 694 l 401 703 l 407 692 l 392 624 q 342 615 356 622 q 328 592 328 607 q 386 386 328 578 l 399 386 l 494 550 q 517 601 517 588 q 467 622 517 622 l 464 629 l 481 699 m 640 879 l 633 861 q 315 771 474 821 l 297 783 l 278 849 l 588 993 l 606 986 l 640 879 z "},"þ":{"ha":668,"x_min":13,"x_max":663,"o":"m 111 697 l 274 696 l 440 703 l 424 624 q 367 608 381 617 q 346 557 351 597 l 428 557 q 663 388 663 557 q 575 221 663 288 q 363 154 488 154 l 285 154 q 284 86 276 96 q 315 76 292 76 l 368 81 l 372 71 l 354 -3 q 176 0 226 0 l 13 -8 l 31 68 q 95 95 78 78 q 118 158 113 113 q 171 588 171 575 q 166 610 171 600 q 136 619 161 619 l 101 618 l 94 628 l 111 697 m 482 369 q 354 460 482 460 q 328 442 329 460 q 299 258 311 353 q 383 243 339 246 q 482 369 482 261 z "},"ÿ":{"ha":711,"x_min":49,"x_max":757,"o":"m 481 699 l 636 694 l 753 699 l 757 690 l 739 617 q 665 571 696 601 q 592 479 633 540 l 464 286 q 438 224 442 254 q 425 120 425 136 q 433 92 425 104 q 471 79 440 79 l 526 82 l 531 76 l 511 -6 q 315 0 374 0 l 126 -11 l 144 69 q 233 94 211 76 q 264 196 257 115 q 265 231 265 206 q 246 303 265 257 l 160 511 q 119 580 142 557 q 53 615 97 603 l 49 621 l 68 697 q 218 694 175 694 l 401 703 l 407 692 l 392 624 q 342 615 356 622 q 328 592 328 607 q 386 386 328 578 l 399 386 l 494 550 q 517 601 517 588 q 467 622 517 622 l 464 629 l 481 699 m 658 890 q 658 870 658 890 q 629 820 658 850 q 560 790 600 790 q 482 863 482 790 q 512 938 482 908 q 581 968 542 968 q 640 949 621 968 q 658 890 658 929 m 314 790 q 242 863 242 790 q 271 938 242 908 q 340 968 300 968 q 418 896 418 968 q 389 820 418 850 q 314 790 360 790 z "},"Ā":{"ha":843,"x_min":-54,"x_max":822,"o":"m 803 -4 q 642 0 696 0 q 408 -11 536 0 l 403 0 l 419 82 q 508 99 486 88 q 529 140 529 110 q 514 288 529 157 q 403 290 478 290 q 264 281 328 290 l 219 174 q 206 122 206 140 q 260 86 206 86 l 318 86 l 322 78 l 303 -8 q 108 0 193 0 l -54 -4 l -33 88 q 65 181 26 97 l 385 883 l 603 907 l 618 900 q 725 182 682 421 q 753 112 733 132 q 817 86 772 92 l 822 76 l 803 -4 m 406 396 q 504 401 443 396 l 465 711 l 446 711 l 313 396 l 406 396 m 724 1118 l 733 1099 l 703 992 l 328 989 l 315 1006 l 347 1111 q 553 1110 475 1110 l 724 1118 z "},"ā":{"ha":736,"x_min":-31,"x_max":706,"o":"m 438 214 l 342 215 q 240 210 279 215 l 210 136 q 199 101 199 114 q 239 76 199 76 l 283 76 l 288 68 l 272 -6 q 108 0 178 0 l -31 -3 l -12 75 q 64 143 35 83 l 318 689 l 529 708 l 542 700 q 631 150 599 314 q 652 94 636 111 q 700 75 668 78 l 706 67 l 689 -3 q 547 0 600 0 l 353 -8 l 347 0 l 361 74 q 431 85 415 78 q 447 114 447 93 q 438 214 447 131 m 354 314 q 429 318 392 314 l 400 543 l 382 543 l 282 314 l 354 314 m 644 921 l 654 901 l 624 794 l 249 792 l 236 808 l 268 914 q 474 913 396 913 l 644 921 z "},"Ă":{"ha":843,"x_min":-54,"x_max":822,"o":"m 803 -4 q 642 0 696 0 q 408 -11 536 0 l 403 0 l 419 82 q 508 99 486 88 q 529 140 529 110 q 514 288 529 157 q 403 290 478 290 q 264 281 328 290 l 219 174 q 206 122 206 140 q 260 86 206 86 l 318 86 l 322 78 l 303 -8 q 108 0 193 0 l -54 -4 l -33 88 q 65 181 26 97 l 385 883 l 603 907 l 618 900 q 725 182 682 421 q 753 112 733 132 q 817 86 772 92 l 822 76 l 803 -4 m 406 396 q 504 401 443 396 l 465 711 l 446 711 l 313 396 l 406 396 m 397 1190 q 526 1108 424 1108 q 676 1190 629 1108 l 699 1186 l 731 1138 q 647 1023 703 1069 q 510 976 590 976 q 384 1023 429 976 q 328 1138 339 1069 l 374 1186 l 397 1190 z "},"ă":{"ha":736,"x_min":-31,"x_max":706,"o":"m 438 214 l 342 215 q 240 210 279 215 l 210 136 q 199 101 199 114 q 239 76 199 76 l 283 76 l 288 68 l 272 -6 q 108 0 178 0 l -31 -3 l -12 75 q 64 143 35 83 l 318 689 l 529 708 l 542 700 q 631 150 599 314 q 652 94 636 111 q 700 75 668 78 l 706 67 l 689 -3 q 547 0 600 0 l 353 -8 l 347 0 l 361 74 q 431 85 415 78 q 447 114 447 93 q 438 214 447 131 m 354 314 q 429 318 392 314 l 400 543 l 382 543 l 282 314 l 354 314 m 317 986 q 446 904 343 904 q 596 986 549 904 l 618 982 l 650 933 q 566 819 622 865 q 429 772 510 772 q 303 819 349 772 q 247 933 258 865 l 293 982 l 317 986 z "},"Ą":{"ha":843,"x_min":-54,"x_max":822,"o":"m 654 -336 q 547 -306 586 -336 q 507 -226 507 -276 q 542 -126 507 -176 q 656 0 576 -76 l 638 0 q 408 -11 536 0 l 403 0 l 419 82 q 508 99 486 88 q 529 140 529 110 q 514 288 529 157 q 403 290 478 290 q 264 281 328 290 l 219 174 q 206 122 206 140 q 260 86 206 86 l 318 86 l 322 78 l 303 -8 q 108 0 193 0 l -54 -4 l -33 88 q 65 181 26 97 l 385 883 l 603 907 l 618 900 q 725 182 682 421 q 753 112 733 132 q 817 86 772 92 l 822 76 l 803 -4 q 738 -1 772 -3 q 648 -109 671 -74 q 625 -174 625 -144 q 640 -220 625 -204 q 679 -236 656 -236 q 782 -203 724 -236 l 803 -243 q 654 -336 724 -312 m 406 396 q 504 401 443 396 l 465 711 l 446 711 l 313 396 l 406 396 z "},"ą":{"ha":736,"x_min":-31,"x_max":707,"o":"m 438 214 l 342 215 q 240 210 279 215 l 210 136 q 199 101 199 114 q 239 76 199 76 l 283 76 l 288 68 l 272 -6 q 108 0 178 0 l -31 -3 l -12 75 q 64 143 35 83 l 318 689 l 529 708 l 542 700 q 631 150 599 314 q 652 94 636 111 q 700 75 668 78 l 706 67 l 689 -3 q 642 -1 667 -1 q 552 -109 575 -74 q 529 -174 529 -144 q 544 -220 529 -204 q 583 -236 560 -236 q 686 -203 628 -236 l 707 -243 q 558 -336 628 -312 q 451 -306 490 -336 q 411 -226 411 -276 q 446 -126 411 -176 q 560 0 481 -76 l 547 0 l 353 -8 l 347 0 l 361 74 q 431 85 415 78 q 447 114 447 93 q 438 214 447 131 m 354 314 q 429 318 392 314 l 400 543 l 382 543 l 282 314 l 354 314 z "},"Ć":{"ha":825,"x_min":44,"x_max":838,"o":"m 697 39 q 407 -17 575 -17 q 142 83 239 -17 q 44 356 44 182 q 184 757 44 607 q 558 907 324 907 q 832 874 657 907 l 838 856 q 769 594 796 740 l 635 586 q 647 678 647 651 q 510 776 647 776 q 326 674 392 776 q 261 382 261 572 q 308 181 261 250 q 435 111 354 111 q 560 156 515 111 q 635 303 604 200 l 769 313 q 711 56 729 169 l 697 39 m 744 1076 l 738 1058 q 419 968 578 1018 l 401 981 l 382 1046 l 692 1190 l 710 1183 l 744 1076 z "},"ć":{"ha":703,"x_min":44,"x_max":703,"o":"m 589 31 q 344 -12 485 -12 q 124 65 204 -12 q 44 282 44 143 q 157 594 44 481 q 465 708 269 708 q 696 681 549 708 l 703 665 q 646 453 668 572 l 518 444 q 529 519 529 500 q 425 592 529 592 q 243 304 243 592 q 378 103 243 103 q 465 135 433 103 q 519 246 497 167 l 646 254 q 601 44 615 138 l 589 31 m 638 879 l 631 861 q 313 771 471 821 l 294 783 l 275 849 l 585 993 l 603 986 l 638 879 z "},"Ĉ":{"ha":825,"x_min":44,"x_max":838,"o":"m 697 39 q 407 -17 575 -17 q 142 83 239 -17 q 44 356 44 182 q 184 757 44 607 q 558 907 324 907 q 832 874 657 907 l 838 856 q 769 594 796 740 l 635 586 q 647 678 647 651 q 510 776 647 776 q 326 674 392 776 q 261 382 261 572 q 308 181 261 250 q 435 111 354 111 q 560 156 515 111 q 635 303 604 200 l 769 313 q 711 56 729 169 l 697 39 m 686 979 q 543 1094 567 1079 q 374 979 539 1092 l 351 985 l 318 1042 q 549 1256 368 1083 l 576 1256 q 756 1042 711 1088 l 708 985 l 686 979 z "},"ĉ":{"ha":703,"x_min":44,"x_max":703,"o":"m 589 31 q 344 -12 485 -12 q 124 65 204 -12 q 44 282 44 143 q 157 594 44 481 q 465 708 269 708 q 696 681 549 708 l 703 665 q 646 453 668 572 l 518 444 q 529 519 529 500 q 425 592 529 592 q 243 304 243 592 q 378 103 243 103 q 465 135 433 103 q 519 246 497 167 l 646 254 q 601 44 615 138 l 589 31 m 596 782 q 453 897 476 882 q 283 782 449 894 l 261 788 l 228 844 q 458 1058 278 886 l 486 1058 q 665 844 621 890 l 618 788 l 596 782 z "},"Ċ":{"ha":825,"x_min":44,"x_max":838,"o":"m 697 39 q 407 -17 575 -17 q 142 83 239 -17 q 44 356 44 182 q 184 757 44 607 q 558 907 324 907 q 832 874 657 907 l 838 856 q 769 594 796 740 l 635 586 q 647 678 647 651 q 510 776 647 776 q 326 674 392 776 q 261 382 261 572 q 308 181 261 250 q 435 111 354 111 q 560 156 515 111 q 635 303 604 200 l 769 313 q 711 56 729 169 l 697 39 m 672 1092 q 672 1069 672 1092 q 638 1010 672 1046 q 556 975 603 975 q 463 1061 463 975 q 498 1151 463 1115 q 581 1186 533 1186 q 650 1163 628 1186 q 672 1092 672 1139 z "},"ċ":{"ha":703,"x_min":44,"x_max":703,"o":"m 589 31 q 344 -12 485 -12 q 124 65 204 -12 q 44 282 44 143 q 157 594 44 481 q 465 708 269 708 q 696 681 549 708 l 703 665 q 646 453 668 572 l 518 444 q 529 519 529 500 q 425 592 529 592 q 243 304 243 592 q 378 103 243 103 q 465 135 433 103 q 519 246 497 167 l 646 254 q 601 44 615 138 l 589 31 m 576 895 q 576 872 576 895 q 542 813 576 849 q 458 778 507 778 q 367 864 367 778 q 402 953 367 918 q 485 989 438 989 q 554 965 532 989 q 576 895 576 942 z "},"Č":{"ha":825,"x_min":44,"x_max":838,"o":"m 697 39 q 407 -17 575 -17 q 142 83 239 -17 q 44 356 44 182 q 184 757 44 607 q 558 907 324 907 q 832 874 657 907 l 838 856 q 769 594 796 740 l 635 586 q 647 678 647 651 q 510 776 647 776 q 326 674 392 776 q 261 382 261 572 q 308 181 261 250 q 435 111 354 111 q 560 156 515 111 q 635 303 604 200 l 769 313 q 711 56 729 169 l 697 39 m 564 1121 l 744 1201 l 765 1196 l 793 1139 l 558 967 l 532 967 q 342 1139 390 1099 l 381 1196 l 404 1201 l 564 1121 z "},"č":{"ha":703,"x_min":44,"x_max":703,"o":"m 589 31 q 344 -12 485 -12 q 124 65 204 -12 q 44 282 44 143 q 157 594 44 481 q 465 708 269 708 q 696 681 549 708 l 703 665 q 646 453 668 572 l 518 444 q 529 519 529 500 q 425 592 529 592 q 243 304 243 592 q 378 103 243 103 q 465 135 433 103 q 519 246 497 167 l 646 254 q 601 44 615 138 l 589 31 m 467 924 l 647 1004 l 668 999 l 696 942 l 461 769 l 435 769 q 244 942 293 901 l 283 999 l 307 1004 l 467 924 z "},"Ď":{"ha":926,"x_min":10,"x_max":915,"o":"m 393 -17 q 207 0 261 0 q 10 -14 121 0 l 31 79 q 110 113 88 89 q 142 196 133 138 q 210 762 210 746 q 204 790 210 778 q 175 801 199 801 l 129 799 l 124 811 l 144 894 q 315 890 263 890 l 517 897 q 808 802 700 897 q 915 539 915 707 q 767 142 915 300 q 393 -17 618 -17 m 444 781 q 414 774 422 781 q 403 747 406 767 q 315 172 315 213 q 337 115 315 131 q 415 100 358 100 q 624 213 547 100 q 700 522 700 326 q 444 781 700 781 m 544 1121 l 725 1201 l 746 1196 l 774 1139 l 539 967 l 513 967 q 322 1139 371 1099 l 361 1196 l 385 1201 l 544 1121 z "},"ď":{"ha":788,"x_min":15,"x_max":767,"o":"m 122 161 q 172 588 172 575 q 169 609 172 600 q 146 618 165 618 l 108 615 l 103 626 l 121 699 q 269 694 225 694 l 438 701 q 678 628 590 701 q 767 422 767 554 q 646 110 767 232 q 336 -12 525 -12 q 164 0 228 0 l 15 -11 l 33 71 q 98 97 79 79 q 122 161 117 115 m 382 596 q 360 590 367 596 q 350 569 353 585 q 308 315 332 471 q 283 136 283 158 q 299 103 283 114 q 354 92 314 92 q 511 176 454 92 q 568 408 568 260 q 523 551 568 506 q 382 596 478 596 m 456 924 l 636 1004 l 657 999 l 685 942 l 450 769 l 424 769 q 233 942 282 901 l 272 999 l 296 1004 l 456 924 z "},"Đ":{"ha":947,"x_min":22,"x_max":936,"o":"m 414 -17 q 228 0 282 0 q 31 -14 142 0 l 51 79 q 131 113 108 89 q 163 196 154 138 l 188 397 l 32 397 l 22 407 l 46 490 l 199 490 q 231 762 231 746 q 225 790 231 778 q 196 801 219 801 l 150 799 l 144 811 l 165 894 q 336 890 283 890 l 538 897 q 828 802 721 897 q 936 539 936 707 q 788 142 936 300 q 414 -17 639 -17 m 465 781 q 435 774 443 781 q 424 749 426 767 q 382 490 421 732 l 544 493 l 553 481 l 533 397 l 367 397 q 336 167 336 203 q 358 115 336 131 q 436 100 379 100 q 644 213 568 100 q 721 522 721 326 q 465 781 721 781 z "},"đ":{"ha":806,"x_min":28,"x_max":786,"o":"m 168 385 q 192 588 192 575 q 188 609 192 600 q 165 618 185 618 l 128 615 l 122 626 l 140 699 q 288 694 244 694 l 457 701 q 698 628 610 701 q 786 422 786 554 q 665 110 786 232 q 356 -12 544 -12 q 183 0 247 0 l 35 -11 l 53 71 q 117 97 99 79 q 142 161 135 115 l 158 303 l 36 303 l 28 311 l 49 385 l 168 385 m 401 596 q 369 569 372 596 q 338 386 361 528 l 458 388 l 465 378 l 449 303 l 324 303 q 303 140 303 167 q 318 103 303 114 q 374 92 333 92 q 531 176 474 92 q 588 408 588 260 q 542 551 588 506 q 401 596 497 596 z "},"Ē":{"ha":801,"x_min":7,"x_max":811,"o":"m 364 513 l 489 511 l 646 522 l 654 511 l 621 393 q 465 397 514 397 q 344 389 415 397 q 313 148 313 171 q 328 116 313 125 q 392 107 343 107 q 553 133 515 107 q 619 265 592 160 l 735 275 l 743 261 q 674 4 703 138 l 658 -10 q 300 0 410 0 q 7 -14 138 0 l 29 79 q 109 113 86 88 q 139 197 132 138 q 208 765 208 749 q 203 792 208 781 q 172 803 199 803 l 131 800 l 124 813 l 144 894 q 485 890 292 890 q 803 907 678 890 l 811 893 q 750 642 772 771 l 625 633 q 636 718 636 682 q 606 766 636 754 q 502 778 575 778 q 417 771 429 778 q 400 732 406 764 l 364 513 m 724 1118 l 733 1099 l 703 992 l 328 989 l 315 1006 l 347 1111 q 553 1110 475 1110 l 724 1118 z "},"ē":{"ha":688,"x_min":13,"x_max":688,"o":"m 282 137 q 282 124 282 137 q 294 103 282 111 q 343 96 307 96 q 467 117 438 96 q 518 217 497 138 l 626 225 l 635 213 q 579 6 601 114 l 564 -7 q 269 0 365 0 q 13 -11 126 0 l 31 69 q 95 97 76 76 q 119 164 114 117 q 172 587 172 574 q 168 609 172 600 q 143 618 164 618 l 111 617 l 103 628 l 121 699 q 410 694 251 694 q 679 708 568 694 l 688 696 q 638 493 656 594 l 521 486 q 531 549 531 522 q 506 585 531 576 q 427 594 482 594 q 363 589 372 594 q 350 561 353 583 l 322 404 l 422 404 l 549 413 l 557 401 l 529 300 q 397 303 443 303 q 306 296 350 303 q 282 137 282 163 m 642 921 l 651 901 l 621 794 l 246 792 l 233 808 l 265 914 q 471 913 393 913 l 642 921 z "},"Ĕ":{"ha":801,"x_min":7,"x_max":811,"o":"m 364 513 l 489 511 l 646 522 l 654 511 l 621 393 q 465 397 514 397 q 344 389 415 397 q 313 148 313 171 q 328 116 313 125 q 392 107 343 107 q 553 133 515 107 q 619 265 592 160 l 735 275 l 743 261 q 674 4 703 138 l 658 -10 q 300 0 410 0 q 7 -14 138 0 l 29 79 q 109 113 86 88 q 139 197 132 138 q 208 765 208 749 q 203 792 208 781 q 172 803 199 803 l 131 800 l 124 813 l 144 894 q 485 890 292 890 q 803 907 678 890 l 811 893 q 750 642 772 771 l 625 633 q 636 718 636 682 q 606 766 636 754 q 502 778 575 778 q 417 771 429 778 q 400 732 406 764 l 364 513 m 388 1208 q 515 1114 413 1114 q 665 1208 618 1114 l 690 1203 l 721 1156 q 636 1032 693 1082 q 499 982 579 982 q 375 1032 419 982 q 319 1156 331 1082 l 363 1203 l 388 1208 z "},"ĕ":{"ha":688,"x_min":13,"x_max":688,"o":"m 282 137 q 282 124 282 137 q 294 103 282 111 q 343 96 307 96 q 467 117 438 96 q 518 217 497 138 l 626 225 l 635 213 q 579 6 601 114 l 564 -7 q 269 0 365 0 q 13 -11 126 0 l 31 69 q 95 97 76 76 q 119 164 114 117 q 172 587 172 574 q 168 609 172 600 q 143 618 164 618 l 111 617 l 103 628 l 121 699 q 410 694 251 694 q 679 708 568 694 l 688 696 q 638 493 656 594 l 521 486 q 531 549 531 522 q 506 585 531 576 q 427 594 482 594 q 363 589 372 594 q 350 561 353 583 l 322 404 l 422 404 l 549 413 l 557 401 l 529 300 q 397 303 443 303 q 306 296 350 303 q 282 137 282 163 m 311 986 q 440 904 338 904 q 590 986 543 904 l 613 982 l 644 933 q 560 819 617 865 q 424 772 504 772 q 298 819 343 772 q 242 933 253 865 l 288 982 l 311 986 z "},"Ė":{"ha":801,"x_min":7,"x_max":811,"o":"m 364 513 l 489 511 l 646 522 l 654 511 l 621 393 q 465 397 514 397 q 344 389 415 397 q 313 148 313 171 q 328 116 313 125 q 392 107 343 107 q 553 133 515 107 q 619 265 592 160 l 735 275 l 743 261 q 674 4 703 138 l 658 -10 q 300 0 410 0 q 7 -14 138 0 l 29 79 q 109 113 86 88 q 139 197 132 138 q 208 765 208 749 q 203 792 208 781 q 172 803 199 803 l 131 800 l 124 813 l 144 894 q 485 890 292 890 q 803 907 678 890 l 811 893 q 750 642 772 771 l 625 633 q 636 718 636 682 q 606 766 636 754 q 502 778 575 778 q 417 771 429 778 q 400 732 406 764 l 364 513 m 631 1092 q 631 1069 631 1092 q 596 1010 631 1046 q 514 975 561 975 q 421 1061 421 975 q 456 1151 421 1115 q 539 1186 492 1186 q 608 1163 586 1186 q 631 1092 631 1139 z "},"ė":{"ha":688,"x_min":13,"x_max":688,"o":"m 282 137 q 282 124 282 137 q 294 103 282 111 q 343 96 307 96 q 467 117 438 96 q 518 217 497 138 l 626 225 l 635 213 q 579 6 601 114 l 564 -7 q 269 0 365 0 q 13 -11 126 0 l 31 69 q 95 97 76 76 q 119 164 114 117 q 172 587 172 574 q 168 609 172 600 q 143 618 164 618 l 111 617 l 103 628 l 121 699 q 410 694 251 694 q 679 708 568 694 l 688 696 q 638 493 656 594 l 521 486 q 531 549 531 522 q 506 585 531 576 q 427 594 482 594 q 363 589 372 594 q 350 561 353 583 l 322 404 l 422 404 l 549 413 l 557 401 l 529 300 q 397 303 443 303 q 306 296 350 303 q 282 137 282 163 m 549 895 q 549 872 549 895 q 514 813 549 849 q 431 778 479 778 q 339 864 339 778 q 374 953 339 918 q 457 989 410 989 q 526 965 504 989 q 549 895 549 942 z "},"Ę":{"ha":801,"x_min":7,"x_max":811,"o":"m 364 513 l 489 511 l 646 522 l 654 511 l 621 393 q 465 397 514 397 q 344 389 415 397 q 313 148 313 171 q 328 116 313 125 q 392 107 343 107 q 553 133 515 107 q 619 265 592 160 l 735 275 l 743 261 q 674 4 703 138 l 658 -10 q 604 -7 638 -8 q 520 -110 542 -75 q 499 -174 499 -144 q 514 -219 499 -203 q 553 -235 529 -235 q 656 -201 597 -235 l 676 -242 q 528 -335 597 -311 q 420 -305 460 -335 q 381 -225 381 -275 q 414 -126 381 -175 q 522 -4 447 -76 q 292 0 394 0 q 7 -14 138 0 l 29 79 q 109 113 86 88 q 139 197 132 138 q 208 765 208 749 q 203 792 208 781 q 172 803 199 803 l 131 800 l 124 813 l 144 894 q 485 890 292 890 q 803 907 678 890 l 811 893 q 750 642 772 771 l 625 633 q 636 718 636 682 q 606 766 636 754 q 502 778 575 778 q 417 771 429 778 q 400 732 406 764 l 364 513 z "},"ę":{"ha":688,"x_min":13,"x_max":688,"o":"m 450 -335 q 342 -305 382 -335 q 303 -225 303 -275 q 337 -126 303 -175 q 447 -3 371 -76 q 242 0 311 0 q 13 -11 126 0 l 31 69 q 95 97 76 76 q 119 164 114 117 q 172 587 172 574 q 168 609 172 600 q 143 618 164 618 l 111 617 l 103 628 l 121 699 q 410 694 251 694 q 679 708 568 694 l 688 696 q 638 493 656 594 l 521 486 q 531 549 531 522 q 506 585 531 576 q 427 594 482 594 q 363 589 372 594 q 350 561 353 583 l 322 404 l 422 404 l 549 413 l 557 401 l 529 300 q 397 303 443 303 q 306 296 350 303 q 282 137 282 163 q 294 103 282 111 q 343 96 307 96 q 467 117 438 96 q 518 217 497 138 l 626 225 l 635 213 q 579 6 601 114 l 564 -7 q 528 -6 550 -6 q 442 -109 464 -74 q 421 -174 421 -144 q 436 -219 421 -203 q 475 -235 451 -235 q 578 -201 519 -235 l 599 -242 q 450 -335 519 -311 z "},"Ě":{"ha":801,"x_min":7,"x_max":811,"o":"m 364 513 l 489 511 l 646 522 l 654 511 l 621 393 q 465 397 514 397 q 344 389 415 397 q 313 148 313 171 q 328 116 313 125 q 392 107 343 107 q 553 133 515 107 q 619 265 592 160 l 735 275 l 743 261 q 674 4 703 138 l 658 -10 q 300 0 410 0 q 7 -14 138 0 l 29 79 q 109 113 86 88 q 139 197 132 138 q 208 765 208 749 q 203 792 208 781 q 172 803 199 803 l 131 800 l 124 813 l 144 894 q 485 890 292 890 q 803 907 678 890 l 811 893 q 750 642 772 771 l 625 633 q 636 718 636 682 q 606 766 636 754 q 502 778 575 778 q 417 771 429 778 q 400 732 406 764 l 364 513 m 529 1121 l 710 1201 l 731 1196 l 758 1139 l 524 967 l 497 967 q 307 1139 356 1099 l 346 1196 l 369 1201 l 529 1121 z "},"ě":{"ha":688,"x_min":13,"x_max":688,"o":"m 282 137 q 282 124 282 137 q 294 103 282 111 q 343 96 307 96 q 467 117 438 96 q 518 217 497 138 l 626 225 l 635 213 q 579 6 601 114 l 564 -7 q 269 0 365 0 q 13 -11 126 0 l 31 69 q 95 97 76 76 q 119 164 114 117 q 172 587 172 574 q 168 609 172 600 q 143 618 164 618 l 111 617 l 103 628 l 121 699 q 410 694 251 694 q 679 708 568 694 l 688 696 q 638 493 656 594 l 521 486 q 531 549 531 522 q 506 585 531 576 q 427 594 482 594 q 363 589 372 594 q 350 561 353 583 l 322 404 l 422 404 l 549 413 l 557 401 l 529 300 q 397 303 443 303 q 306 296 350 303 q 282 137 282 163 m 444 924 l 625 1004 l 646 999 l 674 942 l 439 769 l 413 769 q 222 942 271 901 l 261 999 l 285 1004 l 444 924 z "},"Ĝ":{"ha":874,"x_min":44,"x_max":838,"o":"m 576 453 l 647 451 l 682 451 q 772 454 731 451 q 814 458 814 457 l 817 406 q 756 292 768 375 q 732 103 732 171 l 733 57 l 719 40 q 586 1 678 19 q 408 -17 494 -17 q 142 83 239 -17 q 44 356 44 182 q 184 757 44 607 q 558 907 324 907 q 832 874 657 907 l 838 856 q 769 604 796 750 l 635 594 q 647 681 647 654 q 510 776 647 776 q 326 674 392 776 q 261 382 261 572 q 308 181 261 250 q 443 111 354 111 q 512 120 478 111 q 578 147 546 129 q 594 307 594 290 q 586 335 594 324 q 543 346 578 346 l 474 346 l 468 357 l 494 454 l 500 454 l 544 453 l 576 453 m 682 979 q 539 1094 563 1079 q 369 979 535 1092 l 347 985 l 314 1042 q 544 1256 364 1083 l 572 1256 q 751 1042 707 1088 l 704 985 l 682 979 z "},"ĝ":{"ha":743,"x_min":46,"x_max":707,"o":"m 606 29 q 357 -12 510 -12 q 125 64 204 -12 q 46 278 46 140 q 160 593 46 478 q 469 708 274 708 q 700 681 553 708 l 707 665 q 649 464 672 582 l 522 456 q 535 524 535 503 q 428 593 535 593 q 291 518 339 593 q 243 296 243 443 q 378 100 243 100 q 478 125 431 100 l 490 218 q 485 258 493 249 q 451 268 478 268 l 400 268 l 393 279 l 417 361 l 575 361 q 686 367 686 361 l 689 318 q 638 232 647 294 q 618 81 618 125 l 618 43 l 606 29 m 596 782 q 453 897 476 882 q 283 782 449 894 l 261 788 l 228 844 q 458 1058 278 886 l 486 1058 q 665 844 621 890 l 618 788 l 596 782 z "},"Ğ":{"ha":874,"x_min":44,"x_max":838,"o":"m 576 453 l 647 451 l 682 451 q 772 454 731 451 q 814 458 814 457 l 817 406 q 756 292 768 375 q 732 103 732 171 l 733 57 l 719 40 q 586 1 678 19 q 408 -17 494 -17 q 142 83 239 -17 q 44 356 44 182 q 184 757 44 607 q 558 907 324 907 q 832 874 657 907 l 838 856 q 769 604 796 750 l 635 594 q 647 681 647 654 q 510 776 647 776 q 326 674 392 776 q 261 382 261 572 q 308 181 261 250 q 443 111 354 111 q 512 120 478 111 q 578 147 546 129 q 594 307 594 290 q 586 335 594 324 q 543 346 578 346 l 474 346 l 468 357 l 494 454 l 500 454 l 544 453 l 576 453 m 425 1206 q 554 1124 451 1124 q 704 1206 657 1124 l 726 1201 l 758 1153 q 674 1038 731 1085 q 538 992 618 992 q 412 1038 457 992 q 356 1153 367 1085 l 401 1201 l 425 1206 z "},"ğ":{"ha":743,"x_min":46,"x_max":707,"o":"m 606 29 q 357 -12 510 -12 q 125 64 204 -12 q 46 278 46 140 q 160 593 46 478 q 469 708 274 708 q 700 681 553 708 l 707 665 q 649 464 672 582 l 522 456 q 535 524 535 503 q 428 593 535 593 q 291 518 339 593 q 243 296 243 443 q 378 100 243 100 q 478 125 431 100 l 490 218 q 485 258 493 249 q 451 268 478 268 l 400 268 l 393 279 l 417 361 l 575 361 q 686 367 686 361 l 689 318 q 638 232 647 294 q 618 81 618 125 l 618 43 l 606 29 m 332 993 q 461 911 358 911 q 611 993 564 911 l 633 989 l 665 940 q 581 826 638 872 q 444 779 525 779 q 319 826 364 779 q 263 940 274 872 l 308 989 l 332 993 z "},"Ġ":{"ha":874,"x_min":44,"x_max":838,"o":"m 576 453 l 647 451 l 682 451 q 772 454 731 451 q 814 458 814 457 l 817 406 q 756 292 768 375 q 732 103 732 171 l 733 57 l 719 40 q 586 1 678 19 q 408 -17 494 -17 q 142 83 239 -17 q 44 356 44 182 q 184 757 44 607 q 558 907 324 907 q 832 874 657 907 l 838 856 q 769 604 796 750 l 635 594 q 647 681 647 654 q 510 776 647 776 q 326 674 392 776 q 261 382 261 572 q 308 181 261 250 q 443 111 354 111 q 512 120 478 111 q 578 147 546 129 q 594 307 594 290 q 586 335 594 324 q 543 346 578 346 l 474 346 l 468 357 l 494 454 l 500 454 l 544 453 l 576 453 m 668 1092 q 668 1069 668 1092 q 633 1010 668 1046 q 550 975 599 975 q 458 1061 458 975 q 494 1151 458 1115 q 576 1186 529 1186 q 646 1163 624 1186 q 668 1092 668 1139 z "},"ġ":{"ha":743,"x_min":46,"x_max":707,"o":"m 606 29 q 357 -12 510 -12 q 125 64 204 -12 q 46 278 46 140 q 160 593 46 478 q 469 708 274 708 q 700 681 553 708 l 707 665 q 649 464 672 582 l 522 456 q 535 524 535 503 q 428 593 535 593 q 291 518 339 593 q 243 296 243 443 q 378 100 243 100 q 478 125 431 100 l 490 218 q 485 258 493 249 q 451 268 478 268 l 400 268 l 393 279 l 417 361 l 575 361 q 686 367 686 361 l 689 318 q 638 232 647 294 q 618 81 618 125 l 618 43 l 606 29 m 576 895 q 576 872 576 895 q 542 813 576 849 q 458 778 507 778 q 367 864 367 778 q 402 953 367 918 q 485 989 438 989 q 554 965 532 989 q 576 895 576 942 z "},"Ģ":{"ha":874,"x_min":44,"x_max":838,"o":"m 576 453 l 647 451 l 682 451 q 772 454 731 451 q 814 458 814 457 l 817 406 q 756 292 768 375 q 732 103 732 171 l 733 57 l 719 40 q 586 1 678 19 q 408 -17 494 -17 q 142 83 239 -17 q 44 356 44 182 q 184 757 44 607 q 558 907 324 907 q 832 874 657 907 l 838 856 q 769 604 796 750 l 635 594 q 647 681 647 654 q 510 776 647 776 q 326 674 392 776 q 261 382 261 572 q 308 181 261 250 q 443 111 354 111 q 512 120 478 111 q 578 147 546 129 q 594 307 594 290 q 586 335 594 324 q 543 346 578 346 l 474 346 l 468 357 l 494 454 l 500 454 l 544 453 l 576 453 m 290 -119 q 397 -71 351 -71 q 469 -103 442 -71 q 496 -198 496 -136 q 438 -326 496 -260 q 292 -442 381 -393 l 240 -400 l 240 -376 q 308 -308 282 -347 q 335 -235 335 -269 q 286 -139 335 -178 l 290 -119 z "},"ģ":{"ha":743,"x_min":46,"x_max":707,"o":"m 606 29 q 357 -12 510 -12 q 125 64 204 -12 q 46 278 46 140 q 160 593 46 478 q 469 708 274 708 q 700 681 553 708 l 707 665 q 649 464 672 582 l 522 456 q 535 524 535 503 q 428 593 535 593 q 291 518 339 593 q 243 296 243 443 q 378 100 243 100 q 478 125 431 100 l 490 218 q 485 258 493 249 q 451 268 478 268 l 400 268 l 393 279 l 417 361 l 575 361 q 686 367 686 361 l 689 318 q 638 232 647 294 q 618 81 618 125 l 618 43 l 606 29 m 243 -119 q 349 -71 304 -71 q 422 -103 394 -71 q 449 -198 449 -136 q 391 -326 449 -260 q 244 -442 333 -393 l 193 -400 l 193 -376 q 261 -308 235 -347 q 288 -235 288 -269 q 239 -139 288 -178 l 243 -119 z "},"Ĥ":{"ha":1000,"x_min":8,"x_max":1021,"o":"m 921 93 l 926 83 l 904 -4 q 739 0 811 0 l 683 0 l 519 -3 l 542 88 q 620 115 597 89 q 653 215 643 140 l 675 394 q 532 396 581 396 l 343 382 q 314 140 314 149 q 314 118 314 132 q 356 89 317 89 l 404 93 l 410 83 l 388 -4 q 229 0 274 0 q 133 -3 185 0 q 8 -12 8 -7 l 29 76 q 114 116 93 90 q 143 217 135 142 q 208 765 208 750 q 202 792 208 781 q 167 803 196 803 l 126 801 l 121 813 l 140 893 q 301 890 246 890 l 506 901 l 488 810 q 420 784 436 801 q 396 710 404 767 l 363 510 q 518 508 421 510 q 689 517 615 507 q 719 763 719 747 q 713 790 719 778 q 678 803 706 803 l 636 801 l 631 813 l 651 893 q 840 890 799 890 l 1021 901 l 1004 811 q 936 790 954 804 q 911 735 918 775 q 855 387 885 585 q 825 152 825 189 q 835 102 825 115 q 871 89 846 89 l 921 93 m 742 1015 q 599 1131 622 1115 q 429 1015 594 1128 l 407 1021 l 374 1078 q 604 1292 424 1119 l 632 1292 q 811 1078 767 1124 l 764 1021 l 742 1015 z "},"ĥ":{"ha":849,"x_min":14,"x_max":858,"o":"m 581 0 l 460 -1 l 432 -1 l 450 75 q 514 97 494 76 q 539 171 533 117 l 556 301 l 451 301 l 304 292 q 282 106 282 121 q 315 76 282 76 l 354 79 l 360 71 l 340 -3 q 199 0 236 0 q 119 -2 163 0 q 45 -6 75 -4 q 14 -8 15 -7 l 31 68 q 99 97 82 78 q 122 171 115 117 q 172 588 172 575 q 167 610 172 601 q 138 618 161 618 l 106 618 l 100 628 l 117 697 q 251 694 206 694 l 435 703 l 419 624 q 366 605 379 618 q 346 551 353 592 l 321 404 q 434 403 363 404 q 568 408 506 401 q 590 587 590 574 q 585 609 590 600 q 556 618 579 618 l 522 618 l 517 628 l 533 697 q 704 694 536 694 l 858 703 l 843 625 q 787 607 801 618 q 767 565 772 596 q 701 125 701 190 q 740 78 701 78 l 778 81 l 783 72 l 764 -3 q 628 0 692 0 l 581 0 m 642 818 q 499 933 522 918 q 329 818 494 931 l 307 824 l 274 881 q 504 1094 324 922 l 532 1094 q 711 881 667 926 l 664 824 l 642 818 z "},"Ħ":{"ha":1000,"x_min":8,"x_max":1036,"o":"m 921 93 l 926 83 l 904 -4 q 739 0 811 0 l 683 0 l 519 -3 l 542 88 q 620 115 597 89 q 653 215 643 140 l 675 394 q 532 396 581 396 l 343 382 q 314 140 314 149 q 314 118 314 132 q 356 89 317 89 l 404 93 l 410 83 l 388 -4 q 229 0 274 0 q 133 -3 185 0 q 8 -12 8 -7 l 29 76 q 114 116 93 90 q 143 217 135 142 l 192 614 l 67 614 l 53 628 l 64 694 q 201 693 124 693 q 208 766 208 751 q 202 792 208 781 q 167 803 196 803 l 126 801 l 121 813 l 140 893 q 301 890 246 890 l 506 901 l 488 810 q 419 783 436 801 q 393 693 406 768 l 711 693 q 719 762 719 746 q 713 790 719 778 q 678 803 706 803 l 636 801 l 631 813 l 651 893 q 840 890 799 890 l 1021 901 l 1004 811 q 936 790 954 804 q 911 735 918 775 l 904 697 l 1017 700 l 1036 681 l 1029 617 l 890 617 q 825 166 825 217 q 835 102 825 115 q 871 89 846 89 l 921 93 m 701 615 l 379 615 l 363 510 q 518 508 421 510 q 689 517 615 507 l 701 615 z "},"ħ":{"ha":849,"x_min":14,"x_max":869,"o":"m 581 0 l 460 -1 l 432 -1 l 450 75 q 514 97 494 76 q 539 171 533 117 l 556 301 l 451 301 l 304 292 q 282 106 282 121 q 315 76 282 76 l 354 79 l 360 71 l 340 -3 q 199 0 236 0 q 119 -2 163 0 q 45 -6 75 -4 q 14 -8 15 -7 l 31 68 q 99 97 82 78 q 122 171 115 117 l 160 476 l 58 476 l 47 486 l 56 542 q 168 540 104 540 q 172 588 172 575 q 167 610 172 601 q 138 618 161 618 l 106 618 l 100 628 l 117 697 q 251 694 206 694 l 435 703 l 419 624 q 366 605 379 618 q 346 551 353 592 l 343 540 l 586 540 q 590 588 590 575 q 585 609 590 600 q 556 618 579 618 l 522 618 l 517 628 l 533 697 q 704 694 536 694 l 858 703 l 843 625 q 787 607 801 618 q 767 565 772 596 l 763 543 l 853 546 l 869 531 l 865 479 l 751 479 q 701 125 701 172 q 740 78 701 78 l 778 81 l 783 72 l 764 -3 q 628 0 692 0 l 581 0 m 578 478 l 333 478 l 321 404 q 434 403 363 404 q 568 408 506 401 l 578 478 z "},"Ĩ":{"ha":490,"x_min":7,"x_max":593,"o":"m 135 893 l 322 890 l 515 901 l 496 810 q 426 788 444 803 q 400 735 407 774 q 313 144 313 228 q 322 101 313 113 q 356 89 332 89 l 414 93 l 418 83 l 396 -4 q 211 0 257 0 q 7 -12 117 0 l 28 76 q 110 113 88 89 q 140 193 133 136 q 208 765 208 750 q 202 791 208 779 q 167 803 196 803 l 121 801 l 115 813 l 135 893 m 235 1203 q 336 1180 258 1203 q 431 1157 414 1157 q 511 1215 458 1157 l 528 1235 l 543 1235 l 593 1183 l 590 1169 l 468 1028 l 446 1022 q 345 1046 422 1022 q 251 1069 268 1069 q 210 1050 235 1069 q 153 992 186 1031 l 138 992 l 89 1042 l 90 1057 l 213 1197 l 235 1203 z "},"ĩ":{"ha":431,"x_min":14,"x_max":542,"o":"m 113 697 l 274 694 l 442 703 l 425 624 q 369 607 383 618 q 350 565 356 596 q 282 119 282 199 q 290 85 282 94 q 315 76 297 76 l 361 79 l 365 71 l 346 -3 q 176 0 226 0 l 14 -8 l 31 68 q 97 96 79 78 q 119 158 115 114 q 172 588 172 575 q 167 609 172 600 q 138 618 161 618 l 101 618 q 97 628 97 626 l 113 697 m 183 1006 q 285 983 207 1006 q 378 960 363 960 q 458 1018 407 960 l 476 1038 l 492 1038 l 542 986 l 539 972 l 417 831 l 394 825 q 294 849 371 825 q 200 872 217 872 q 159 853 183 872 q 101 794 135 833 l 86 794 l 38 844 l 39 860 l 161 1000 l 183 1006 z "},"Ī":{"ha":490,"x_min":7,"x_max":550,"o":"m 135 893 l 322 890 l 515 901 l 496 810 q 426 788 444 803 q 400 735 407 774 q 313 144 313 228 q 322 101 313 113 q 356 89 332 89 l 414 93 l 418 83 l 396 -4 q 211 0 257 0 q 7 -12 117 0 l 28 76 q 110 113 88 89 q 140 193 133 136 q 208 765 208 750 q 202 791 208 779 q 167 803 196 803 l 121 801 l 115 813 l 135 893 m 540 1118 l 550 1099 l 519 992 l 144 989 l 132 1006 l 164 1111 q 369 1110 292 1110 l 540 1118 z "},"ī":{"ha":431,"x_min":14,"x_max":499,"o":"m 113 697 l 274 694 l 442 703 l 425 624 q 369 607 383 618 q 350 565 356 596 q 282 119 282 199 q 290 85 282 94 q 315 76 297 76 l 361 79 l 365 71 l 346 -3 q 176 0 226 0 l 14 -8 l 31 68 q 97 96 79 78 q 119 158 115 114 q 172 588 172 575 q 167 609 172 600 q 138 618 161 618 l 101 618 q 97 628 97 626 l 113 697 m 489 921 l 499 901 l 468 794 l 93 792 l 81 808 l 113 914 q 318 913 240 913 l 489 921 z "},"Ĭ":{"ha":490,"x_min":7,"x_max":546,"o":"m 135 893 l 322 890 l 515 901 l 496 810 q 426 788 444 803 q 400 735 407 774 q 313 144 313 228 q 322 101 313 113 q 356 89 332 89 l 414 93 l 418 83 l 396 -4 q 211 0 257 0 q 7 -12 117 0 l 28 76 q 110 113 88 89 q 140 193 133 136 q 208 765 208 750 q 202 791 208 779 q 167 803 196 803 l 121 801 l 115 813 l 135 893 m 213 1197 q 342 1115 239 1115 q 492 1197 444 1115 l 514 1193 l 546 1144 q 462 1030 518 1076 q 325 983 406 983 q 199 1030 244 983 q 143 1144 154 1076 l 189 1193 l 213 1197 z "},"ĭ":{"ha":431,"x_min":14,"x_max":493,"o":"m 113 697 l 274 694 l 442 703 l 425 624 q 369 607 383 618 q 350 565 356 596 q 282 119 282 199 q 290 85 282 94 q 315 76 297 76 l 361 79 l 365 71 l 346 -3 q 176 0 226 0 l 14 -8 l 31 68 q 97 96 79 78 q 119 158 115 114 q 172 588 172 575 q 167 609 172 600 q 138 618 161 618 l 101 618 q 97 628 97 626 l 113 697 m 160 986 q 289 904 186 904 q 439 986 392 904 l 461 982 l 493 933 q 409 819 465 865 q 272 772 353 772 q 147 819 192 772 q 90 933 101 865 l 136 982 l 160 986 z "},"Į":{"ha":490,"x_min":7,"x_max":515,"o":"m 135 893 l 322 890 l 515 901 l 496 810 q 426 788 444 803 q 400 735 407 774 q 313 144 313 228 q 322 101 313 113 q 356 89 332 89 l 414 93 l 418 83 l 396 -4 q 335 -1 368 -3 q 246 -109 268 -74 q 224 -174 224 -144 q 239 -220 224 -204 q 278 -236 254 -236 q 381 -203 322 -236 l 401 -243 q 253 -336 322 -312 q 145 -306 185 -336 q 106 -226 106 -276 q 140 -126 106 -176 q 254 0 175 -76 l 197 0 q 7 -12 117 0 l 28 76 q 110 113 88 89 q 140 193 133 136 q 208 765 208 750 q 202 791 208 779 q 167 803 196 803 l 121 801 l 115 813 l 135 893 z "},"į":{"ha":431,"x_min":14,"x_max":442,"o":"m 113 697 l 274 694 l 442 703 l 425 624 q 369 607 383 618 q 350 565 356 596 q 282 119 282 199 q 290 85 282 94 q 315 76 297 76 l 361 79 l 365 71 l 346 -3 q 304 -1 326 -1 q 213 -110 236 -74 q 189 -176 189 -147 q 204 -222 189 -206 q 242 -237 219 -237 q 343 -206 288 -237 l 364 -244 q 217 -336 286 -312 q 111 -307 150 -336 q 72 -227 72 -278 q 108 -126 72 -176 q 225 0 143 -75 l 176 0 l 14 -8 l 31 68 q 97 96 79 78 q 119 158 115 114 q 172 588 172 575 q 167 609 172 600 q 138 618 161 618 l 101 618 q 97 628 97 626 l 113 697 z "},"İ":{"ha":490,"x_min":7,"x_max":515,"o":"m 135 893 l 322 890 l 515 901 l 496 810 q 426 788 444 803 q 400 735 407 774 q 313 144 313 228 q 322 101 313 113 q 356 89 332 89 l 414 93 l 418 83 l 396 -4 q 211 0 257 0 q 7 -12 117 0 l 28 76 q 110 113 88 89 q 140 193 133 136 q 208 765 208 750 q 202 791 208 779 q 167 803 196 803 l 121 801 l 115 813 l 135 893 m 447 1092 q 447 1069 447 1092 q 413 1010 447 1046 q 331 975 378 975 q 238 1061 238 975 q 273 1151 238 1115 q 356 1186 308 1186 q 425 1163 403 1186 q 447 1092 447 1139 z "},"ı":{"ha":431,"x_min":14,"x_max":442,"o":"m 113 697 l 274 694 l 442 703 l 425 624 q 369 607 383 618 q 350 565 356 596 q 282 119 282 199 q 290 85 282 94 q 315 76 297 76 l 361 79 l 365 71 l 346 -3 q 176 0 226 0 l 14 -8 l 31 68 q 97 96 79 78 q 119 158 115 114 q 172 588 172 575 q 167 609 172 600 q 138 618 161 618 l 101 618 q 97 628 97 626 l 113 697 z "},"Ĳ":{"ha":935,"x_min":7,"x_max":976,"o":"m 135 893 l 322 890 l 515 901 l 496 810 q 426 788 444 803 q 400 735 407 774 q 313 144 313 228 q 322 101 313 113 q 356 89 332 89 l 414 93 l 418 83 l 396 -4 q 211 0 257 0 q 7 -12 117 0 l 28 76 q 110 113 88 89 q 140 193 133 136 q 208 765 208 750 q 202 791 208 779 q 167 803 196 803 l 121 801 l 115 813 l 135 893 m 614 171 q 686 765 686 750 q 681 792 686 781 q 647 803 675 803 l 589 799 l 585 810 l 604 890 l 771 892 q 976 903 854 892 l 957 810 q 899 788 913 801 q 878 735 885 775 q 789 142 824 425 q 693 -81 771 3 q 464 -212 615 -165 l 432 -157 l 438 -142 q 562 -22 526 -85 q 614 171 597 42 z "},"ĳ":{"ha":801,"x_min":14,"x_max":869,"o":"m 557 136 q 611 589 611 576 q 607 610 611 601 q 581 619 603 619 l 535 615 l 529 626 l 546 694 l 689 696 l 869 704 l 853 624 q 806 607 817 617 q 789 565 794 597 q 718 106 756 383 q 638 -67 704 -1 q 439 -169 571 -133 l 408 -124 l 413 -110 q 515 -15 486 -64 q 557 136 543 33 m 113 697 l 274 694 l 442 703 l 425 624 q 369 607 383 618 q 350 565 356 596 q 282 119 282 199 q 290 85 282 94 q 315 76 297 76 l 361 79 l 365 71 l 346 -3 q 176 0 226 0 l 14 -8 l 31 68 q 97 96 79 78 q 119 158 115 114 q 172 588 172 575 q 167 609 172 600 q 138 618 161 618 l 101 618 q 97 628 97 626 l 113 697 z "},"Ĵ":{"ha":446,"x_min":-58,"x_max":547,"o":"m 124 171 q 196 765 196 750 q 190 791 196 779 q 157 803 183 803 l 99 799 l 94 810 l 114 890 l 281 892 q 486 903 364 892 l 467 810 q 408 788 422 801 q 388 735 394 775 q 299 142 333 425 q 203 -81 281 3 q -26 -212 125 -165 l -58 -157 l -53 -142 q 72 -22 36 -85 q 124 171 107 42 m 478 979 q 335 1094 358 1079 q 165 979 331 1092 l 143 985 l 110 1042 q 340 1256 160 1083 l 368 1256 q 547 1042 503 1088 l 500 985 l 478 979 z "},"ĵ":{"ha":394,"x_min":-42,"x_max":497,"o":"m 107 136 q 161 589 161 576 q 157 610 161 601 q 131 619 153 619 l 85 615 l 79 626 l 96 694 l 239 696 l 419 704 l 403 624 q 356 607 367 617 q 339 565 344 597 q 268 106 306 383 q 188 -67 254 -1 q -11 -169 121 -133 l -42 -124 l -37 -110 q 65 -15 36 -64 q 107 136 93 33 m 428 782 q 285 897 308 882 q 115 782 281 894 l 93 788 l 60 844 q 290 1058 110 886 l 318 1058 q 497 844 453 890 l 450 788 l 428 782 z "},"Ķ":{"ha":888,"x_min":8,"x_max":933,"o":"m 140 193 q 208 765 208 750 q 202 792 208 781 q 167 803 196 803 l 126 801 l 121 813 l 142 894 q 322 890 285 890 l 510 901 l 492 810 q 421 783 440 800 q 396 729 401 767 l 315 183 q 313 138 313 157 q 317 108 313 118 q 356 89 324 89 l 408 93 l 414 83 l 390 -4 q 197 0 256 0 l 8 -4 l 32 83 q 113 114 92 93 q 140 193 133 135 m 599 688 q 647 768 647 736 q 583 804 647 800 l 579 814 l 600 899 q 768 890 713 890 l 926 897 l 933 882 l 914 804 q 829 756 867 786 q 731 661 792 726 l 561 482 l 703 201 q 765 110 735 138 q 839 79 796 82 l 847 68 l 828 -4 q 668 -21 692 -21 q 533 96 589 -21 l 374 439 l 381 468 l 599 688 m 307 -119 q 413 -71 368 -71 q 485 -103 458 -71 q 513 -198 513 -136 q 455 -326 513 -260 q 308 -442 397 -393 l 257 -400 l 257 -376 q 325 -308 299 -347 q 351 -235 351 -269 q 303 -139 351 -178 l 307 -119 z "},"ķ":{"ha":765,"x_min":14,"x_max":792,"o":"m 119 158 q 172 588 172 575 q 167 610 172 601 q 138 618 161 618 l 106 618 l 100 628 l 118 697 q 274 694 246 694 l 439 703 l 422 624 q 364 601 379 614 q 346 561 349 589 l 285 151 q 282 115 282 131 q 287 88 282 100 q 315 76 292 76 l 357 79 l 364 71 l 344 -3 q 176 0 225 0 l 14 -3 l 33 71 q 99 96 82 79 q 119 158 115 113 m 500 528 q 540 590 540 565 q 490 619 540 615 l 486 628 l 503 700 q 647 694 600 694 l 786 700 l 792 688 l 775 621 q 701 577 735 603 q 621 501 668 551 l 501 378 l 608 167 q 658 97 633 118 q 717 71 682 75 l 725 60 l 707 -4 q 558 -17 588 -17 q 454 74 496 -17 l 326 342 l 333 368 l 500 528 m 264 -119 q 370 -71 325 -71 q 442 -103 415 -71 q 469 -198 469 -136 q 412 -326 469 -260 q 265 -442 354 -393 l 214 -400 l 214 -376 q 282 -308 256 -347 q 308 -235 308 -269 q 260 -139 308 -178 l 264 -119 z "},"ĸ":{"ha":765,"x_min":14,"x_max":792,"o":"m 119 158 q 172 588 172 575 q 167 610 172 601 q 138 618 161 618 l 106 618 l 100 628 l 118 697 q 274 694 246 694 l 439 703 l 422 624 q 364 601 379 614 q 346 561 349 589 l 285 151 q 282 115 282 131 q 287 88 282 100 q 315 76 292 76 l 357 79 l 364 71 l 344 -3 q 176 0 225 0 l 14 -3 l 33 71 q 99 96 82 79 q 119 158 115 113 m 500 528 q 540 590 540 565 q 490 619 540 615 l 486 628 l 503 700 q 647 694 600 694 l 786 700 l 792 688 l 775 621 q 701 577 735 603 q 621 501 668 551 l 501 378 l 608 167 q 658 97 633 118 q 717 71 682 75 l 725 60 l 707 -4 q 558 -17 588 -17 q 454 74 496 -17 l 326 342 l 333 368 l 500 528 z "},"Ĺ":{"ha":714,"x_min":14,"x_max":711,"o":"m 140 893 l 322 890 l 532 901 l 511 806 q 426 780 446 797 q 390 676 406 763 q 344 395 374 590 q 315 165 315 200 q 331 119 315 131 q 389 107 346 107 q 519 145 483 107 q 586 317 556 183 l 703 328 l 711 315 q 636 3 671 165 l 621 -11 q 300 0 406 0 q 14 -14 142 0 l 36 79 q 110 113 89 88 q 139 197 132 138 q 208 764 208 749 q 201 791 208 779 q 165 803 194 803 l 125 801 l 119 813 l 140 893 m 561 1076 l 554 1058 q 236 968 394 1018 l 218 981 l 199 1046 l 508 1190 l 526 1183 l 561 1076 z "},"ĺ":{"ha":622,"x_min":17,"x_max":607,"o":"m 115 697 l 274 694 l 461 703 l 443 618 q 370 599 388 611 q 344 546 353 586 q 283 138 283 214 q 295 105 283 114 q 339 96 307 96 q 440 126 411 96 q 492 263 468 157 l 600 274 l 607 263 q 547 4 575 139 l 533 -8 q 267 0 358 0 q 17 -11 128 0 l 36 69 q 97 97 79 76 q 119 164 114 117 q 171 588 171 575 q 165 610 171 601 q 136 618 160 618 l 104 618 l 99 628 l 115 697 m 492 879 l 485 861 q 167 771 325 821 l 149 783 l 129 849 l 439 993 l 457 986 l 492 879 z "},"Ļ":{"ha":714,"x_min":14,"x_max":711,"o":"m 140 893 l 322 890 l 532 901 l 511 806 q 426 780 446 797 q 390 676 406 763 q 344 395 374 590 q 315 165 315 200 q 331 119 315 131 q 389 107 346 107 q 519 145 483 107 q 586 317 556 183 l 703 328 l 711 315 q 636 3 671 165 l 621 -11 q 300 0 406 0 q 14 -14 142 0 l 36 79 q 110 113 89 88 q 139 197 132 138 q 208 764 208 749 q 201 791 208 779 q 165 803 194 803 l 125 801 l 119 813 l 140 893 m 229 -119 q 335 -71 290 -71 q 408 -103 381 -71 q 435 -198 435 -136 q 377 -326 435 -260 q 231 -442 319 -393 l 179 -400 l 179 -376 q 247 -308 221 -347 q 274 -235 274 -269 q 225 -139 274 -178 l 229 -119 z "},"ļ":{"ha":622,"x_min":17,"x_max":607,"o":"m 115 697 l 274 694 l 461 703 l 443 618 q 370 599 388 611 q 344 546 353 586 q 283 138 283 214 q 295 105 283 114 q 339 96 307 96 q 440 126 411 96 q 492 263 468 157 l 600 274 l 607 263 q 547 4 575 139 l 533 -8 q 267 0 358 0 q 17 -11 128 0 l 36 69 q 97 97 79 76 q 119 164 114 117 q 171 588 171 575 q 165 610 171 601 q 136 618 160 618 l 104 618 l 99 628 l 115 697 m 192 -119 q 298 -71 253 -71 q 370 -103 343 -71 q 397 -198 397 -136 q 340 -326 397 -260 q 193 -442 282 -393 l 142 -400 l 142 -376 q 210 -308 183 -347 q 236 -235 236 -269 q 188 -139 236 -178 l 192 -119 z "},"Ľ":{"ha":740,"x_min":14,"x_max":771,"o":"m 631 554 q 631 619 631 582 q 621 869 631 740 l 760 889 l 771 875 q 718 575 750 724 l 651 549 l 631 554 m 140 893 l 322 890 l 532 901 l 511 806 q 426 780 446 797 q 390 676 406 763 q 344 395 374 590 q 315 165 315 200 q 331 119 315 131 q 389 107 346 107 q 519 145 483 107 q 586 317 556 183 l 703 328 l 711 315 q 636 3 671 165 l 621 -11 q 300 0 406 0 q 14 -14 142 0 l 36 79 q 110 113 89 88 q 139 197 132 138 q 208 764 208 749 q 201 791 208 779 q 165 803 194 803 l 125 801 l 119 813 l 140 893 z "},"ľ":{"ha":660,"x_min":17,"x_max":660,"o":"m 115 697 l 274 694 l 461 703 l 443 618 q 370 599 388 611 q 344 546 353 586 q 283 138 283 214 q 295 105 283 114 q 339 96 307 96 q 440 126 411 96 q 492 263 468 157 l 600 274 l 607 263 q 547 4 575 139 l 533 -8 q 267 0 358 0 q 17 -11 128 0 l 36 69 q 97 97 79 76 q 119 164 114 117 q 171 588 171 575 q 165 610 171 601 q 136 618 160 618 l 104 618 l 99 628 l 115 697 m 651 694 l 660 683 q 617 449 644 565 l 556 425 l 538 431 q 526 679 538 540 l 651 694 z "},"Ŀ":{"ha":754,"x_min":14,"x_max":772,"o":"m 140 893 l 322 890 l 532 901 l 511 806 q 426 780 446 797 q 390 676 406 763 q 344 395 374 590 q 315 165 315 200 q 331 119 315 131 q 389 107 346 107 q 519 145 483 107 q 586 317 556 183 l 703 328 l 711 315 q 636 3 671 165 l 621 -11 q 300 0 406 0 q 14 -14 142 0 l 36 79 q 110 113 89 88 q 139 197 132 138 q 208 764 208 749 q 201 791 208 779 q 165 803 194 803 l 125 801 l 119 813 l 140 893 m 772 672 q 772 647 772 672 q 737 586 772 622 q 651 550 701 550 q 557 640 557 550 q 592 733 557 696 q 676 769 626 769 q 749 745 725 769 q 772 672 772 721 z "},"ŀ":{"ha":693,"x_min":17,"x_max":681,"o":"m 115 697 l 274 694 l 461 703 l 443 618 q 370 599 388 611 q 344 546 353 586 q 283 138 283 214 q 295 105 283 114 q 339 96 307 96 q 440 126 411 96 q 492 263 468 157 l 600 274 l 607 263 q 547 4 575 139 l 533 -8 q 267 0 358 0 q 17 -11 128 0 l 36 69 q 97 97 79 76 q 119 164 114 117 q 171 588 171 575 q 165 610 171 601 q 136 618 160 618 l 104 618 l 99 628 l 115 697 m 681 499 q 681 476 681 499 q 647 417 681 453 q 565 382 614 382 q 474 469 474 382 q 507 558 474 524 q 588 593 540 593 q 658 569 635 593 q 681 499 681 546 z "},"Ł":{"ha":714,"x_min":14,"x_max":711,"o":"m 140 893 l 322 890 l 532 901 l 511 806 q 426 780 446 797 q 394 706 406 763 q 371 568 383 649 l 525 644 l 536 639 l 561 554 l 353 450 q 315 173 315 215 q 331 119 315 131 q 389 107 346 107 q 519 145 483 107 q 586 317 556 183 l 703 328 l 711 315 q 636 3 671 165 l 621 -11 q 300 0 406 0 q 14 -14 142 0 l 36 79 q 110 113 89 88 q 139 197 132 138 l 161 374 l 64 326 l 51 329 l 26 415 l 175 489 q 208 764 208 749 q 201 791 208 779 q 165 803 194 803 l 125 801 l 119 813 l 140 893 z "},"ł":{"ha":633,"x_min":28,"x_max":619,"o":"m 126 697 l 285 694 l 474 703 l 454 618 q 381 599 399 611 q 357 546 364 586 q 339 449 357 544 l 460 506 l 469 501 l 494 424 l 322 342 q 294 143 294 172 q 306 105 294 114 q 350 96 318 96 q 451 127 422 96 q 503 263 481 158 l 611 274 l 619 263 q 558 4 586 139 l 544 -8 q 278 0 371 0 q 28 -11 139 0 l 47 69 q 108 97 90 76 q 131 164 125 117 l 144 276 l 81 246 l 68 249 l 44 326 l 157 381 q 182 588 182 575 q 176 610 182 601 q 147 618 171 618 l 115 618 l 110 628 l 126 697 z "},"Ń":{"ha":978,"x_min":17,"x_max":1025,"o":"m 722 803 l 676 801 l 672 813 l 692 896 q 865 890 806 890 l 1025 899 l 1007 807 q 940 781 963 800 q 913 719 918 761 l 804 -21 l 657 -39 q 346 588 518 261 l 333 588 q 276 125 276 139 q 283 99 276 111 q 317 88 290 88 l 374 90 l 381 82 l 357 -6 q 197 0 242 0 q 17 -11 119 0 l 39 81 q 129 168 118 90 q 215 748 215 728 q 198 783 215 768 q 115 806 181 799 l 107 819 l 125 897 q 282 890 214 890 l 411 896 q 696 319 528 644 l 710 319 q 758 757 758 749 q 722 803 758 803 m 786 1076 l 779 1058 q 461 968 619 1018 l 443 981 l 424 1046 l 733 1190 l 751 1183 l 786 1076 z "},"ń":{"ha":835,"x_min":19,"x_max":863,"o":"m 596 619 l 558 618 l 554 626 l 571 700 q 711 694 672 694 q 783 696 750 694 q 863 701 863 699 l 849 622 q 794 601 811 617 q 771 554 776 586 l 686 -10 l 543 -24 q 303 421 418 221 l 290 421 l 253 126 q 258 88 250 99 q 288 76 265 76 l 331 78 l 338 71 l 318 -4 q 168 0 215 0 l 19 -8 l 39 71 q 113 139 106 79 q 179 576 179 563 q 165 602 179 590 q 99 619 151 614 l 90 632 l 106 700 q 243 694 181 694 l 360 700 q 581 282 458 500 l 592 282 q 626 582 626 576 q 596 619 626 619 m 675 879 l 668 861 q 350 771 508 821 l 332 783 l 313 849 l 622 993 l 640 986 l 675 879 z "},"Ņ":{"ha":978,"x_min":17,"x_max":1025,"o":"m 722 803 l 676 801 l 672 813 l 692 896 q 865 890 806 890 l 1025 899 l 1007 807 q 940 781 963 800 q 913 719 918 761 l 804 -21 l 657 -39 q 346 588 518 261 l 333 588 q 276 125 276 139 q 283 99 276 111 q 317 88 290 88 l 374 90 l 381 82 l 357 -6 q 197 0 242 0 q 17 -11 119 0 l 39 81 q 129 168 118 90 q 215 748 215 728 q 198 783 215 768 q 115 806 181 799 l 107 819 l 125 897 q 282 890 214 890 l 411 896 q 696 319 528 644 l 710 319 q 758 757 758 749 q 722 803 758 803 m 340 -119 q 447 -71 401 -71 q 519 -103 492 -71 q 546 -198 546 -136 q 488 -326 546 -260 q 342 -442 431 -393 l 290 -400 l 290 -376 q 358 -308 332 -347 q 385 -235 385 -269 q 336 -139 385 -178 l 340 -119 z "},"ņ":{"ha":835,"x_min":19,"x_max":863,"o":"m 596 619 l 558 618 l 554 626 l 571 700 q 711 694 672 694 q 783 696 750 694 q 863 701 863 699 l 849 622 q 794 601 811 617 q 771 554 776 586 l 686 -10 l 543 -24 q 303 421 418 221 l 290 421 l 253 126 q 258 88 250 99 q 288 76 265 76 l 331 78 l 338 71 l 318 -4 q 168 0 215 0 l 19 -8 l 39 71 q 113 139 106 79 q 179 576 179 563 q 165 602 179 590 q 99 619 151 614 l 90 632 l 106 700 q 243 694 181 694 l 360 700 q 581 282 458 500 l 592 282 q 626 582 626 576 q 596 619 626 619 m 288 -119 q 394 -71 349 -71 q 466 -103 439 -71 q 493 -198 493 -136 q 435 -326 493 -260 q 289 -442 378 -393 l 238 -400 l 238 -376 q 306 -308 279 -347 q 332 -235 332 -269 q 283 -139 332 -178 l 288 -119 z "},"Ň":{"ha":978,"x_min":17,"x_max":1025,"o":"m 722 803 l 676 801 l 672 813 l 692 896 q 865 890 806 890 l 1025 899 l 1007 807 q 940 781 963 800 q 913 719 918 761 l 804 -21 l 657 -39 q 346 588 518 261 l 333 588 q 276 125 276 139 q 283 99 276 111 q 317 88 290 88 l 374 90 l 381 82 l 357 -6 q 197 0 242 0 q 17 -11 119 0 l 39 81 q 129 168 118 90 q 215 748 215 728 q 198 783 215 768 q 115 806 181 799 l 107 819 l 125 897 q 282 890 214 890 l 411 896 q 696 319 528 644 l 710 319 q 758 757 758 749 q 722 803 758 803 m 597 1121 l 778 1201 l 799 1196 l 826 1139 l 592 967 l 565 967 q 375 1139 424 1099 l 414 1196 l 438 1201 l 597 1121 z "},"ň":{"ha":835,"x_min":19,"x_max":863,"o":"m 596 619 l 558 618 l 554 626 l 571 700 q 711 694 672 694 q 783 696 750 694 q 863 701 863 699 l 849 622 q 794 601 811 617 q 771 554 776 586 l 686 -10 l 543 -24 q 303 421 418 221 l 290 421 l 253 126 q 258 88 250 99 q 288 76 265 76 l 331 78 l 338 71 l 318 -4 q 168 0 215 0 l 19 -8 l 39 71 q 113 139 106 79 q 179 576 179 563 q 165 602 179 590 q 99 619 151 614 l 90 632 l 106 700 q 243 694 181 694 l 360 700 q 581 282 458 500 l 592 282 q 626 582 626 576 q 596 619 626 619 m 501 924 l 682 1004 l 703 999 l 731 942 l 496 769 l 469 769 q 279 942 328 901 l 318 999 l 342 1004 l 501 924 z "},"Ŋ":{"ha":976,"x_min":18,"x_max":1025,"o":"m 710 317 q 761 765 761 750 q 724 804 761 804 l 676 803 l 674 811 l 693 897 q 868 892 826 892 l 1025 900 l 1008 808 q 940 783 961 803 q 913 721 919 763 l 825 119 q 726 -101 803 -19 q 500 -226 650 -182 l 467 -169 l 472 -154 q 639 6 593 -100 q 346 590 507 283 l 333 590 q 276 125 276 139 q 283 99 276 111 q 317 88 290 88 l 374 90 l 381 82 l 357 -6 q 160 0 244 0 l 18 -11 l 40 79 q 103 108 83 85 q 133 185 124 131 q 215 749 215 729 q 198 784 215 769 q 117 807 181 799 l 108 821 l 126 899 q 279 892 229 892 l 411 897 q 697 317 519 656 l 710 317 z "},"ŋ":{"ha":833,"x_min":22,"x_max":863,"o":"m 179 554 q 181 576 181 561 q 167 604 181 592 q 100 622 153 617 l 92 633 l 107 701 q 243 696 196 696 l 358 700 q 582 276 440 531 l 594 276 l 629 574 q 624 610 632 600 q 597 621 617 621 l 561 619 l 557 628 l 574 700 q 728 696 693 696 l 863 701 l 847 624 q 792 603 810 618 q 771 556 775 589 l 703 93 q 619 -80 685 -15 q 425 -179 554 -144 l 394 -132 l 399 -119 q 531 3 497 -75 q 303 428 422 217 l 290 428 l 250 125 q 255 86 247 97 q 285 75 263 75 l 331 78 l 336 69 l 317 -4 q 143 0 219 0 l 22 -8 l 42 68 q 93 90 76 72 q 117 147 110 107 l 179 554 z "},"Ō":{"ha":901,"x_min":44,"x_max":890,"o":"m 432 101 q 608 210 543 101 q 674 515 674 319 q 626 707 674 638 q 494 776 578 776 q 321 667 385 776 q 257 363 257 557 q 303 171 257 240 q 432 101 350 101 m 396 -17 q 140 83 236 -17 q 44 354 44 183 q 179 754 44 601 q 535 907 314 907 q 794 810 699 907 q 890 542 890 713 q 753 139 890 294 q 396 -17 615 -17 m 746 1118 l 756 1099 l 725 992 l 350 989 l 338 1006 l 369 1111 q 575 1110 497 1110 l 746 1118 z "},"ō":{"ha":765,"x_min":44,"x_max":743,"o":"m 368 93 q 498 172 451 93 q 544 400 544 251 q 510 543 544 494 q 413 592 475 592 q 286 513 332 592 q 240 285 240 433 q 274 142 240 190 q 368 93 307 93 m 339 -12 q 124 65 203 -12 q 44 281 44 143 q 153 592 44 476 q 446 708 261 708 q 664 633 585 708 q 743 419 743 557 q 633 106 743 224 q 339 -12 522 -12 m 654 921 l 664 901 l 633 794 l 258 792 l 246 808 l 278 914 q 483 913 406 913 l 654 921 z "},"Ŏ":{"ha":901,"x_min":44,"x_max":890,"o":"m 432 101 q 608 210 543 101 q 674 515 674 319 q 626 707 674 638 q 494 776 578 776 q 321 667 385 776 q 257 363 257 557 q 303 171 257 240 q 432 101 350 101 m 396 -17 q 140 83 236 -17 q 44 354 44 183 q 179 754 44 601 q 535 907 314 907 q 794 810 699 907 q 890 542 890 713 q 753 139 890 294 q 396 -17 615 -17 m 399 1215 q 526 1121 424 1121 q 676 1215 629 1121 l 701 1210 l 732 1163 q 647 1039 704 1089 q 510 989 590 989 q 386 1039 431 989 q 331 1163 342 1089 l 374 1210 l 399 1215 z "},"ŏ":{"ha":765,"x_min":44,"x_max":743,"o":"m 368 93 q 498 172 451 93 q 544 400 544 251 q 510 543 544 494 q 413 592 475 592 q 286 513 332 592 q 240 285 240 433 q 274 142 240 190 q 368 93 307 93 m 339 -12 q 124 65 203 -12 q 44 281 44 143 q 153 592 44 476 q 446 708 261 708 q 664 633 585 708 q 743 419 743 557 q 633 106 743 224 q 339 -12 522 -12 m 326 986 q 456 904 353 904 q 606 986 558 904 l 628 982 l 660 933 q 576 819 632 865 q 439 772 519 772 q 313 819 358 772 q 257 933 268 865 l 303 982 l 326 986 z "},"Ő":{"ha":901,"x_min":44,"x_max":890,"o":"m 432 101 q 608 210 543 101 q 674 515 674 319 q 626 707 674 638 q 494 776 578 776 q 321 667 385 776 q 257 363 257 557 q 303 171 257 240 q 432 101 350 101 m 396 -17 q 140 83 236 -17 q 44 354 44 183 q 179 754 44 601 q 535 907 314 907 q 794 810 699 907 q 890 542 890 713 q 753 139 890 294 q 396 -17 615 -17 m 583 1103 l 582 1086 q 347 950 464 1022 l 329 957 l 297 1004 l 507 1190 l 524 1189 l 583 1103 m 817 1097 l 814 1081 q 581 944 697 1017 l 563 950 l 531 997 l 740 1183 l 757 1181 l 817 1097 z "},"ő":{"ha":765,"x_min":44,"x_max":743,"o":"m 368 93 q 498 172 451 93 q 544 400 544 251 q 510 543 544 494 q 413 592 475 592 q 286 513 332 592 q 240 285 240 433 q 274 142 240 190 q 368 93 307 93 m 339 -12 q 124 65 203 -12 q 44 281 44 143 q 153 592 44 476 q 446 708 261 708 q 664 633 585 708 q 743 419 743 557 q 633 106 743 224 q 339 -12 522 -12 m 490 906 l 489 889 q 254 753 371 825 l 236 760 l 204 807 l 414 993 l 431 992 l 490 906 m 724 900 l 721 883 q 488 747 604 819 l 469 753 l 438 800 l 647 986 l 664 983 l 724 900 z "},"Œ":{"ha":1257,"x_min":44,"x_max":1269,"o":"m 801 388 q 772 153 772 175 q 783 121 772 132 q 850 110 793 110 q 1008 137 969 110 q 1074 268 1047 164 l 1192 278 l 1200 264 q 1132 6 1161 139 l 1117 -10 q 749 3 865 3 q 533 -6 633 3 q 394 -15 432 -15 q 140 85 235 -15 q 44 356 44 185 q 176 751 44 601 q 525 901 307 901 q 672 892 567 901 q 839 883 778 883 q 1260 908 1075 883 l 1269 893 q 1207 640 1231 769 l 1079 632 q 1090 716 1090 681 q 1060 763 1090 751 q 957 775 1029 775 q 874 768 885 775 q 858 729 863 761 l 822 514 l 944 513 l 1103 524 l 1113 511 l 1078 392 q 906 396 971 396 l 801 388 m 261 358 q 303 168 261 235 q 429 101 346 101 q 556 143 513 101 q 611 281 599 185 q 658 665 658 647 q 627 750 658 721 q 494 779 596 779 q 326 665 392 779 q 261 358 261 551 z "},"œ":{"ha":1040,"x_min":38,"x_max":1049,"o":"m 667 296 q 644 129 644 146 q 652 104 644 113 q 729 96 660 96 q 828 117 799 96 q 879 217 858 138 l 988 225 l 994 213 q 940 6 964 114 l 925 -7 q 625 3 724 3 q 444 -5 526 3 q 332 -12 363 -12 q 117 66 197 -12 q 38 282 38 144 q 142 590 38 476 q 431 703 247 703 q 551 696 464 703 q 765 689 639 689 q 1040 708 892 689 l 1049 696 q 999 494 1017 594 l 882 486 q 890 549 890 522 q 867 585 890 575 q 788 594 843 594 q 723 589 732 594 q 711 561 714 583 l 682 404 l 782 403 l 910 413 l 918 400 l 890 300 q 751 303 806 303 l 667 296 m 357 89 q 453 119 421 89 q 494 217 485 149 q 529 510 529 497 q 506 575 529 553 q 405 597 482 597 q 280 513 328 597 q 232 281 232 429 q 357 89 232 89 z "},"Ŕ":{"ha":867,"x_min":7,"x_max":836,"o":"m 339 351 q 314 141 314 164 q 325 103 314 118 q 400 88 336 89 l 404 79 l 381 -6 q 201 -1 261 -1 l 7 -8 l 31 83 q 111 115 89 92 q 140 196 133 138 q 208 764 208 747 q 203 792 208 781 q 174 803 197 803 l 126 800 l 119 811 l 142 894 q 310 890 257 890 l 504 897 q 728 842 647 897 q 808 689 808 788 q 603 396 808 497 l 693 197 q 755 106 724 133 q 828 78 786 78 l 836 65 l 818 -7 l 656 -22 q 524 107 568 -22 l 440 351 l 339 351 m 613 657 q 431 786 613 786 q 411 781 417 786 q 357 472 400 768 l 476 458 q 613 657 613 514 m 711 1076 l 704 1058 q 386 968 544 1018 l 368 981 l 349 1046 l 658 1190 l 676 1183 l 711 1076 z "},"ŕ":{"ha":749,"x_min":13,"x_max":714,"o":"m 301 265 q 283 120 283 140 q 292 89 283 100 q 356 76 301 78 l 358 69 l 339 -4 q 182 -1 229 -1 l 13 -8 l 32 72 q 96 97 78 78 q 121 161 114 115 l 171 567 q 169 607 175 596 q 144 618 164 618 l 106 617 l 99 626 l 118 697 q 261 694 218 694 l 431 701 q 625 658 556 701 q 694 533 694 614 q 529 306 694 388 l 599 164 q 706 71 644 71 l 714 57 l 697 -6 l 554 -17 q 443 83 478 -17 l 379 265 l 301 265 m 514 504 q 374 600 514 600 q 358 595 363 600 q 341 522 354 590 q 317 374 328 454 l 411 363 q 481 410 447 375 q 514 504 514 444 m 617 879 l 610 861 q 292 771 450 821 l 274 783 l 254 849 l 564 993 l 582 986 l 617 879 z "},"Ŗ":{"ha":867,"x_min":7,"x_max":836,"o":"m 339 351 q 314 141 314 164 q 325 103 314 118 q 400 88 336 89 l 404 79 l 381 -6 q 201 -1 261 -1 l 7 -8 l 31 83 q 111 115 89 92 q 140 196 133 138 q 208 764 208 747 q 203 792 208 781 q 174 803 197 803 l 126 800 l 119 811 l 142 894 q 310 890 257 890 l 504 897 q 728 842 647 897 q 808 689 808 788 q 603 396 808 497 l 693 197 q 755 106 724 133 q 828 78 786 78 l 836 65 l 818 -7 l 656 -22 q 524 107 568 -22 l 440 351 l 339 351 m 613 657 q 431 786 613 786 q 411 781 417 786 q 357 472 400 768 l 476 458 q 613 657 613 514 m 285 -119 q 391 -71 346 -71 q 463 -103 436 -71 q 490 -198 490 -136 q 433 -326 490 -260 q 286 -442 375 -393 l 235 -400 l 235 -376 q 303 -308 276 -347 q 329 -235 329 -269 q 281 -139 329 -178 l 285 -119 z "},"ŗ":{"ha":749,"x_min":13,"x_max":714,"o":"m 301 265 q 283 120 283 140 q 292 89 283 100 q 356 76 301 78 l 358 69 l 339 -4 q 182 -1 229 -1 l 13 -8 l 32 72 q 96 97 78 78 q 121 161 114 115 l 171 567 q 169 607 175 596 q 144 618 164 618 l 106 617 l 99 626 l 118 697 q 261 694 218 694 l 431 701 q 625 658 556 701 q 694 533 694 614 q 529 306 694 388 l 599 164 q 706 71 644 71 l 714 57 l 697 -6 l 554 -17 q 443 83 478 -17 l 379 265 l 301 265 m 514 504 q 374 600 514 600 q 358 595 363 600 q 341 522 354 590 q 317 374 328 454 l 411 363 q 481 410 447 375 q 514 504 514 444 m 243 -119 q 349 -71 304 -71 q 422 -103 394 -71 q 449 -198 449 -136 q 391 -326 449 -260 q 244 -442 333 -393 l 193 -400 l 193 -376 q 261 -308 235 -347 q 288 -235 288 -269 q 239 -139 288 -178 l 243 -119 z "},"Ř":{"ha":867,"x_min":7,"x_max":836,"o":"m 339 351 q 314 141 314 164 q 325 103 314 118 q 400 88 336 89 l 404 79 l 381 -6 q 201 -1 261 -1 l 7 -8 l 31 83 q 111 115 89 92 q 140 196 133 138 q 208 764 208 747 q 203 792 208 781 q 174 803 197 803 l 126 800 l 119 811 l 142 894 q 310 890 257 890 l 504 897 q 728 842 647 897 q 808 689 808 788 q 603 396 808 497 l 693 197 q 755 106 724 133 q 828 78 786 78 l 836 65 l 818 -7 l 656 -22 q 524 107 568 -22 l 440 351 l 339 351 m 613 657 q 431 786 613 786 q 411 781 417 786 q 357 472 400 768 l 476 458 q 613 657 613 514 m 522 1121 l 703 1201 l 724 1196 l 751 1139 l 517 967 l 490 967 q 300 1139 349 1099 l 339 1196 l 363 1201 l 522 1121 z "},"ř":{"ha":749,"x_min":13,"x_max":714,"o":"m 301 265 q 283 120 283 140 q 292 89 283 100 q 356 76 301 78 l 358 69 l 339 -4 q 182 -1 229 -1 l 13 -8 l 32 72 q 96 97 78 78 q 121 161 114 115 l 171 567 q 169 607 175 596 q 144 618 164 618 l 106 617 l 99 626 l 118 697 q 261 694 218 694 l 431 701 q 625 658 556 701 q 694 533 694 614 q 529 306 694 388 l 599 164 q 706 71 644 71 l 714 57 l 697 -6 l 554 -17 q 443 83 478 -17 l 379 265 l 301 265 m 514 504 q 374 600 514 600 q 358 595 363 600 q 341 522 354 590 q 317 374 328 454 l 411 363 q 481 410 447 375 q 514 504 514 444 m 443 924 l 624 1004 l 644 999 l 672 942 l 438 769 l 411 769 q 221 942 269 901 l 260 999 l 283 1004 l 443 924 z "},"Ś":{"ha":725,"x_min":14,"x_max":724,"o":"m 268 -17 q 144 -3 206 -17 q 24 36 83 10 l 14 56 q 67 290 51 175 l 182 300 q 176 217 176 261 q 194 146 176 172 q 295 104 219 104 q 413 137 371 104 q 456 217 456 169 q 419 294 456 264 q 326 356 383 325 q 249 399 268 388 q 194 435 229 410 q 142 483 158 461 q 96 608 96 542 q 203 822 96 738 q 476 907 310 907 q 686 881 596 907 l 715 871 l 724 853 q 663 615 686 742 l 558 607 l 547 615 q 557 688 557 663 q 529 759 557 738 q 440 781 501 781 q 340 749 379 781 q 300 669 300 717 q 397 553 300 611 q 465 517 411 544 q 541 473 518 489 q 600 428 564 457 q 665 285 665 371 q 557 67 665 150 q 268 -17 449 -17 m 671 1076 l 664 1058 q 346 968 504 1018 l 328 981 l 308 1046 l 618 1190 l 636 1183 l 671 1076 z "},"ś":{"ha":626,"x_min":19,"x_max":619,"o":"m 235 -12 q 129 -2 181 -12 q 28 29 78 8 l 19 46 q 63 228 50 143 l 168 236 q 165 179 165 211 q 265 94 165 94 q 348 116 317 94 q 379 171 379 138 q 350 226 379 204 q 269 274 321 249 q 197 313 218 300 q 144 350 175 325 q 85 469 85 396 q 176 642 85 575 q 410 708 267 708 q 613 679 514 708 l 619 663 q 569 476 589 575 l 472 469 l 463 476 q 469 526 469 510 q 378 594 469 594 q 301 573 332 594 q 271 518 271 551 q 353 433 271 476 q 398 411 364 428 q 449 385 432 394 q 494 356 467 375 q 535 321 521 338 q 571 225 571 278 q 480 52 571 117 q 235 -12 389 -12 m 590 879 l 583 861 q 265 771 424 821 l 247 783 l 228 849 l 538 993 l 556 986 l 590 879 z "},"Ŝ":{"ha":725,"x_min":14,"x_max":724,"o":"m 268 -17 q 144 -3 206 -17 q 24 36 83 10 l 14 56 q 67 290 51 175 l 182 300 q 176 217 176 261 q 194 146 176 172 q 295 104 219 104 q 413 137 371 104 q 456 217 456 169 q 419 294 456 264 q 326 356 383 325 q 249 399 268 388 q 194 435 229 410 q 142 483 158 461 q 96 608 96 542 q 203 822 96 738 q 476 907 310 907 q 686 881 596 907 l 715 871 l 724 853 q 663 615 686 742 l 558 607 l 547 615 q 557 688 557 663 q 529 759 557 738 q 440 781 501 781 q 340 749 379 781 q 300 669 300 717 q 397 553 300 611 q 465 517 411 544 q 541 473 518 489 q 600 428 564 457 q 665 285 665 371 q 557 67 665 150 q 268 -17 449 -17 m 613 979 q 469 1094 493 1079 q 300 979 465 1092 l 278 985 l 244 1042 q 475 1256 294 1083 l 503 1256 q 682 1042 638 1088 l 635 985 l 613 979 z "},"ŝ":{"ha":626,"x_min":19,"x_max":619,"o":"m 235 -12 q 129 -2 181 -12 q 28 29 78 8 l 19 46 q 63 228 50 143 l 168 236 q 165 179 165 211 q 265 94 165 94 q 348 116 317 94 q 379 171 379 138 q 350 226 379 204 q 269 274 321 249 q 197 313 218 300 q 144 350 175 325 q 85 469 85 396 q 176 642 85 575 q 410 708 267 708 q 613 679 514 708 l 619 663 q 569 476 589 575 l 472 469 l 463 476 q 469 526 469 510 q 378 594 469 594 q 301 573 332 594 q 271 518 271 551 q 353 433 271 476 q 398 411 364 428 q 449 385 432 394 q 494 356 467 375 q 535 321 521 338 q 571 225 571 278 q 480 52 571 117 q 235 -12 389 -12 m 539 782 q 396 897 419 882 q 226 782 392 894 l 204 788 l 171 844 q 401 1058 221 886 l 429 1058 q 608 844 564 890 l 561 788 l 539 782 z "},"Ş":{"ha":725,"x_min":14,"x_max":724,"o":"m 182 300 q 176 217 176 261 q 194 146 176 172 q 295 104 219 104 q 413 137 371 104 q 456 217 456 169 q 419 294 456 264 q 326 356 383 325 q 249 399 268 388 q 194 435 229 410 q 142 483 158 461 q 96 608 96 542 q 203 822 96 738 q 476 907 310 907 q 686 881 596 907 l 715 871 l 724 853 q 663 615 686 742 l 558 607 l 547 615 q 557 688 557 663 q 529 759 557 738 q 440 781 501 781 q 340 749 379 781 q 300 669 300 717 q 397 553 300 611 q 465 517 411 544 q 541 473 518 489 q 600 428 564 457 q 665 285 665 371 q 576 81 665 163 q 332 -14 486 0 l 314 -61 q 431 -188 431 -132 q 368 -287 431 -244 q 231 -331 306 -331 q 163 -314 194 -331 q 131 -273 131 -297 q 194 -181 131 -249 l 206 -181 q 206 -203 206 -186 q 220 -240 206 -221 q 263 -258 235 -258 q 307 -246 290 -258 q 324 -214 324 -233 q 219 -119 324 -181 l 260 -17 q 140 -2 199 -15 q 24 36 81 11 l 14 56 q 67 290 51 175 l 182 300 z "},"ş":{"ha":626,"x_min":19,"x_max":619,"o":"m 168 236 q 165 179 165 211 q 265 94 165 94 q 348 116 317 94 q 379 171 379 138 q 350 226 379 204 q 269 274 321 249 q 197 313 218 300 q 144 350 175 325 q 85 469 85 396 q 176 642 85 575 q 410 708 267 708 q 613 679 514 708 l 619 663 q 569 476 589 575 l 472 469 l 463 476 q 469 526 469 510 q 378 594 469 594 q 301 573 332 594 q 271 518 271 551 q 353 433 271 476 q 398 411 364 428 q 449 385 432 394 q 494 356 467 375 q 535 321 521 338 q 571 225 571 278 q 499 68 571 131 q 304 -8 428 6 l 283 -61 q 400 -188 400 -132 q 338 -287 400 -244 q 200 -331 275 -331 q 132 -314 164 -331 q 100 -273 100 -297 q 164 -181 100 -249 l 175 -181 q 175 -203 175 -186 q 190 -240 175 -221 q 232 -258 204 -258 q 276 -246 260 -258 q 293 -214 293 -233 q 189 -119 293 -181 l 231 -12 q 127 -2 178 -12 q 28 29 76 8 l 19 46 q 63 228 50 143 l 168 236 z "},"Š":{"ha":725,"x_min":14,"x_max":724,"o":"m 268 -17 q 144 -3 206 -17 q 24 36 83 10 l 14 56 q 67 290 51 175 l 182 300 q 176 217 176 261 q 194 146 176 172 q 295 104 219 104 q 413 137 371 104 q 456 217 456 169 q 419 294 456 264 q 326 356 383 325 q 249 399 268 388 q 194 435 229 410 q 142 483 158 461 q 96 608 96 542 q 203 822 96 738 q 476 907 310 907 q 686 881 596 907 l 715 871 l 724 853 q 663 615 686 742 l 558 607 l 547 615 q 557 688 557 663 q 529 759 557 738 q 440 781 501 781 q 340 749 379 781 q 300 669 300 717 q 397 553 300 611 q 465 517 411 544 q 541 473 518 489 q 600 428 564 457 q 665 285 665 371 q 557 67 665 150 q 268 -17 449 -17 m 482 1121 l 663 1201 l 683 1196 l 711 1139 l 476 967 l 450 967 q 260 1139 308 1099 l 299 1196 l 322 1201 l 482 1121 z "},"š":{"ha":626,"x_min":19,"x_max":638,"o":"m 235 -12 q 129 -2 181 -12 q 28 29 78 8 l 19 46 q 63 228 50 143 l 168 236 q 165 179 165 211 q 265 94 165 94 q 348 116 317 94 q 379 171 379 138 q 350 226 379 204 q 269 274 321 249 q 197 313 218 300 q 144 350 175 325 q 85 469 85 396 q 176 642 85 575 q 410 708 267 708 q 613 679 514 708 l 619 663 q 569 476 589 575 l 472 469 l 463 476 q 469 526 469 510 q 378 594 469 594 q 301 573 332 594 q 271 518 271 551 q 353 433 271 476 q 398 411 364 428 q 449 385 432 394 q 494 356 467 375 q 535 321 521 338 q 571 225 571 278 q 480 52 571 117 q 235 -12 389 -12 m 408 924 l 589 1004 l 610 999 l 638 942 l 403 769 l 376 769 q 186 942 235 901 l 225 999 l 249 1004 l 408 924 z "},"Ţ":{"ha":765,"x_min":40,"x_max":813,"o":"m 675 613 q 656 754 675 726 q 539 786 638 782 q 484 438 519 678 q 449 160 449 197 q 463 107 449 124 q 511 90 478 90 l 585 94 l 589 88 l 565 -6 q 379 0 458 -1 l 356 -61 q 472 -188 472 -132 q 410 -287 472 -244 q 272 -331 347 -331 q 204 -314 236 -331 q 172 -273 172 -297 q 236 -181 172 -249 l 247 -181 q 247 -203 247 -186 q 262 -240 247 -221 q 304 -258 276 -258 q 349 -246 332 -258 q 365 -214 365 -233 q 261 -119 365 -181 l 307 0 l 104 -8 l 126 82 q 241 115 215 90 q 278 229 267 140 l 346 786 q 244 773 268 783 q 210 753 219 763 q 189 719 200 744 q 156 604 172 685 l 40 596 q 92 892 72 757 l 110 907 l 240 892 l 660 892 l 800 907 l 813 892 l 790 604 l 675 596 q 675 613 675 604 z "},"ţ":{"ha":663,"x_min":40,"x_max":689,"o":"m 564 464 q 549 574 564 551 q 464 599 533 596 q 397 133 397 204 q 449 79 397 79 l 508 82 l 511 76 l 492 -6 q 343 0 408 -1 l 319 -61 q 436 -188 436 -132 q 374 -287 436 -244 q 236 -331 311 -331 q 168 -314 200 -331 q 136 -273 136 -297 q 200 -181 136 -249 l 211 -181 q 211 -203 211 -186 q 226 -240 211 -221 q 268 -258 240 -258 q 313 -246 296 -258 q 329 -214 329 -233 q 225 -119 329 -181 l 271 0 l 94 -8 l 113 72 q 206 97 185 78 q 236 179 228 117 l 288 599 q 192 573 214 596 q 147 456 169 550 l 40 449 q 81 694 67 583 l 96 708 l 211 696 l 557 696 l 678 708 l 689 694 l 669 456 l 564 449 q 564 464 564 457 z "},"Ť":{"ha":765,"x_min":40,"x_max":813,"o":"m 675 613 q 656 754 675 726 q 539 786 638 782 q 484 438 519 678 q 449 160 449 197 q 463 107 449 124 q 511 90 478 90 l 585 94 l 589 88 l 565 -6 q 331 0 401 0 l 104 -8 l 126 82 q 241 115 215 90 q 278 229 267 140 l 346 786 q 244 773 268 783 q 210 753 219 763 q 189 719 200 744 q 156 604 172 685 l 40 596 q 92 892 72 757 l 110 907 l 240 892 l 660 892 l 800 907 l 813 892 l 790 604 l 675 596 q 675 613 675 604 m 488 1121 l 668 1201 l 689 1196 l 717 1139 l 482 967 l 456 967 q 265 1139 314 1099 l 304 1196 l 328 1201 l 488 1121 z "},"ť":{"ha":663,"x_min":40,"x_max":689,"o":"m 564 464 q 549 574 564 551 q 464 599 533 596 q 397 133 397 204 q 449 79 397 79 l 508 82 l 511 76 l 492 -6 q 292 0 351 0 l 94 -8 l 113 72 q 206 97 185 78 q 236 179 228 117 l 288 599 q 192 573 214 596 q 147 456 169 550 l 40 449 q 81 694 67 583 l 96 708 l 211 696 l 557 696 l 678 708 l 689 694 l 669 456 l 564 449 q 564 464 564 457 m 411 924 l 592 1004 l 613 999 l 640 942 l 406 769 l 379 769 q 189 942 238 901 l 228 999 l 251 1004 l 411 924 z "},"Ŧ":{"ha":765,"x_min":40,"x_max":813,"o":"m 675 613 q 656 754 675 726 q 539 786 638 782 q 488 464 519 685 l 593 468 l 613 449 l 607 385 l 475 385 q 449 160 449 196 q 463 107 449 124 q 511 90 478 90 l 585 94 l 589 88 l 565 -6 q 331 0 401 0 l 104 -8 l 126 82 q 241 115 215 90 q 278 229 267 140 l 296 383 l 181 383 l 167 396 l 176 463 l 306 461 l 346 786 q 244 773 268 783 q 210 753 219 763 q 189 719 200 744 q 156 604 172 685 l 40 596 q 92 892 72 757 l 110 907 l 240 892 l 660 892 l 800 907 l 813 892 l 790 604 l 675 596 q 675 613 675 604 z "},"ŧ":{"ha":663,"x_min":40,"x_max":689,"o":"m 564 464 q 549 574 564 551 q 464 599 533 596 q 422 339 429 388 l 532 343 l 551 324 l 546 260 l 411 258 q 397 133 397 157 q 449 79 397 79 l 508 82 l 511 76 l 492 -6 q 292 0 351 0 l 94 -8 l 113 72 q 206 97 185 78 q 236 179 228 117 l 246 257 l 118 257 l 104 271 l 115 338 l 256 336 l 288 599 q 192 573 214 596 q 147 456 169 550 l 40 449 q 81 694 67 583 l 96 708 l 211 696 l 557 696 l 678 708 l 689 694 l 669 456 l 564 449 q 564 464 564 457 z "},"Ũ":{"ha":874,"x_min":83,"x_max":926,"o":"m 293 268 q 328 149 293 190 q 433 107 364 107 q 617 290 594 107 q 668 760 668 742 q 663 791 668 779 q 633 803 658 803 l 589 800 l 586 806 l 608 894 q 764 890 714 890 l 926 900 l 907 808 q 840 786 856 799 q 821 739 825 774 l 767 304 q 651 65 747 147 q 389 -17 554 -17 q 104 229 104 -17 q 135 500 104 251 q 167 765 167 749 q 161 792 167 781 q 128 803 156 803 l 86 800 l 83 806 l 107 894 q 299 890 221 890 l 460 900 l 439 807 q 378 785 396 801 q 356 733 361 769 l 296 329 q 293 268 293 289 m 440 1203 q 542 1180 464 1203 q 636 1157 619 1157 q 717 1215 664 1157 l 733 1235 l 749 1235 l 799 1183 l 796 1169 l 674 1028 l 651 1022 q 551 1046 628 1022 q 457 1069 474 1069 q 416 1050 440 1069 q 358 992 392 1031 l 343 992 l 294 1042 l 296 1057 l 418 1197 l 440 1203 z "},"ũ":{"ha":740,"x_min":72,"x_max":771,"o":"m 264 211 q 368 96 264 96 q 504 224 488 96 q 544 584 544 568 q 540 609 544 600 q 517 618 536 618 l 482 617 l 481 621 l 500 699 q 629 694 588 694 l 771 701 l 753 622 q 700 603 713 613 q 685 569 688 594 l 644 243 q 332 -12 611 -12 q 90 176 90 -12 q 114 381 90 186 q 138 588 138 575 q 133 609 138 600 q 108 618 129 618 l 74 617 l 72 621 l 92 699 q 260 694 190 694 l 397 701 l 379 621 q 331 605 344 617 q 313 565 317 593 l 267 251 q 264 211 264 238 m 351 1006 q 453 983 375 1006 q 547 960 531 960 q 628 1018 575 960 l 644 1038 l 660 1038 l 710 986 l 707 972 l 585 831 l 563 825 q 462 849 539 825 q 368 872 385 872 q 327 853 351 872 q 269 794 303 833 l 254 794 l 206 844 l 207 860 l 329 1000 l 351 1006 z "},"Ū":{"ha":874,"x_min":83,"x_max":926,"o":"m 293 268 q 328 149 293 190 q 433 107 364 107 q 617 290 594 107 q 668 760 668 742 q 663 791 668 779 q 633 803 658 803 l 589 800 l 586 806 l 608 894 q 764 890 714 890 l 926 900 l 907 808 q 840 786 856 799 q 821 739 825 774 l 767 304 q 651 65 747 147 q 389 -17 554 -17 q 104 229 104 -17 q 135 500 104 251 q 167 765 167 749 q 161 792 167 781 q 128 803 156 803 l 86 800 l 83 806 l 107 894 q 299 890 221 890 l 460 900 l 439 807 q 378 785 396 801 q 356 733 361 769 l 296 329 q 293 268 293 289 m 754 1118 l 764 1099 l 733 992 l 358 989 l 346 1006 l 378 1111 q 583 1110 506 1110 l 754 1118 z "},"ū":{"ha":740,"x_min":72,"x_max":771,"o":"m 264 211 q 368 96 264 96 q 504 224 488 96 q 544 584 544 568 q 540 609 544 600 q 517 618 536 618 l 482 617 l 481 621 l 500 699 q 629 694 588 694 l 771 701 l 753 622 q 700 603 713 613 q 685 569 688 594 l 644 243 q 332 -12 611 -12 q 90 176 90 -12 q 114 381 90 186 q 138 588 138 575 q 133 609 138 600 q 108 618 129 618 l 74 617 l 72 621 l 92 699 q 260 694 190 694 l 397 701 l 379 621 q 331 605 344 617 q 313 565 317 593 l 267 251 q 264 211 264 238 m 663 921 l 672 901 l 642 794 l 267 792 l 254 808 l 286 914 q 492 913 414 913 l 663 921 z "},"Ŭ":{"ha":874,"x_min":83,"x_max":926,"o":"m 293 268 q 328 149 293 190 q 433 107 364 107 q 617 290 594 107 q 668 760 668 742 q 663 791 668 779 q 633 803 658 803 l 589 800 l 586 806 l 608 894 q 764 890 714 890 l 926 900 l 907 808 q 840 786 856 799 q 821 739 825 774 l 767 304 q 651 65 747 147 q 389 -17 554 -17 q 104 229 104 -17 q 135 500 104 251 q 167 765 167 749 q 161 792 167 781 q 128 803 156 803 l 86 800 l 83 806 l 107 894 q 299 890 221 890 l 460 900 l 439 807 q 378 785 396 801 q 356 733 361 769 l 296 329 q 293 268 293 289 m 410 1222 q 538 1128 435 1128 q 688 1222 640 1128 l 713 1217 l 743 1169 q 658 1046 715 1096 q 522 996 601 996 q 397 1046 442 996 q 342 1169 353 1096 l 385 1217 l 410 1222 z "},"ŭ":{"ha":740,"x_min":72,"x_max":771,"o":"m 264 211 q 368 96 264 96 q 504 224 488 96 q 544 584 544 568 q 540 609 544 600 q 517 618 536 618 l 482 617 l 481 621 l 500 699 q 629 694 588 694 l 771 701 l 753 622 q 700 603 713 613 q 685 569 688 594 l 644 243 q 332 -12 611 -12 q 90 176 90 -12 q 114 381 90 186 q 138 588 138 575 q 133 609 138 600 q 108 618 129 618 l 74 617 l 72 621 l 92 699 q 260 694 190 694 l 397 701 l 379 621 q 331 605 344 617 q 313 565 317 593 l 267 251 q 264 211 264 238 m 318 986 q 447 904 344 904 q 597 986 550 904 l 619 982 l 651 933 q 567 819 624 865 q 431 772 511 772 q 305 819 350 772 q 249 933 260 865 l 294 982 l 318 986 z "},"Ů":{"ha":874,"x_min":83,"x_max":926,"o":"m 293 268 q 328 149 293 190 q 433 107 364 107 q 617 290 594 107 q 668 760 668 742 q 663 791 668 779 q 633 803 658 803 l 589 800 l 586 806 l 608 894 q 764 890 714 890 l 926 900 l 907 808 q 840 786 856 799 q 821 739 825 774 l 767 304 q 651 65 747 147 q 389 -17 554 -17 q 104 229 104 -17 q 135 500 104 251 q 167 765 167 749 q 161 792 167 781 q 128 803 156 803 l 86 800 l 83 806 l 107 894 q 299 890 221 890 l 460 900 l 439 807 q 378 785 396 801 q 356 733 361 769 l 296 329 q 293 268 293 289 m 551 1015 q 613 1074 613 1015 q 557 1124 613 1124 q 514 1108 529 1124 q 499 1067 499 1092 q 515 1028 499 1042 q 551 1015 532 1015 m 683 1088 q 683 1061 683 1088 q 642 988 683 1035 q 541 942 600 942 q 455 972 482 942 q 428 1058 428 1001 q 470 1157 428 1114 q 572 1200 513 1200 q 657 1170 631 1200 q 683 1088 683 1140 z "},"ů":{"ha":740,"x_min":72,"x_max":771,"o":"m 264 211 q 368 96 264 96 q 504 224 488 96 q 544 584 544 568 q 540 609 544 600 q 517 618 536 618 l 482 617 l 481 621 l 500 699 q 629 694 588 694 l 771 701 l 753 622 q 700 603 713 613 q 685 569 688 594 l 644 243 q 332 -12 611 -12 q 90 176 90 -12 q 114 381 90 186 q 138 588 138 575 q 133 609 138 600 q 108 618 129 618 l 74 617 l 72 621 l 92 699 q 260 694 190 694 l 397 701 l 379 621 q 331 605 344 617 q 313 565 317 593 l 267 251 q 264 211 264 238 m 460 818 q 521 876 521 818 q 465 926 521 926 q 422 910 438 926 q 407 869 407 894 q 424 831 407 844 q 460 818 440 818 m 592 890 q 592 864 592 890 q 550 791 592 838 q 449 744 508 744 q 363 774 390 744 q 336 860 336 804 q 378 960 336 917 q 480 1003 421 1003 q 565 973 539 1003 q 592 890 592 943 z "},"Ű":{"ha":874,"x_min":83,"x_max":926,"o":"m 293 268 q 328 149 293 190 q 433 107 364 107 q 617 290 594 107 q 668 760 668 742 q 663 791 668 779 q 633 803 658 803 l 589 800 l 586 806 l 608 894 q 764 890 714 890 l 926 900 l 907 808 q 840 786 856 799 q 821 739 825 774 l 767 304 q 651 65 747 147 q 389 -17 554 -17 q 104 229 104 -17 q 135 500 104 251 q 167 765 167 749 q 161 792 167 781 q 128 803 156 803 l 86 800 l 83 806 l 107 894 q 299 890 221 890 l 460 900 l 439 807 q 378 785 396 801 q 356 733 361 769 l 296 329 q 293 268 293 289 m 614 1103 l 613 1086 q 378 950 494 1022 l 360 957 l 328 1004 l 538 1190 l 554 1189 l 614 1103 m 847 1097 l 844 1081 q 611 944 728 1017 l 593 950 l 561 997 l 771 1183 l 788 1181 l 847 1097 z "},"ű":{"ha":740,"x_min":72,"x_max":771,"o":"m 264 211 q 368 96 264 96 q 504 224 488 96 q 544 584 544 568 q 540 609 544 600 q 517 618 536 618 l 482 617 l 481 621 l 500 699 q 629 694 588 694 l 771 701 l 753 622 q 700 603 713 613 q 685 569 688 594 l 644 243 q 332 -12 611 -12 q 90 176 90 -12 q 114 381 90 186 q 138 588 138 575 q 133 609 138 600 q 108 618 129 618 l 74 617 l 72 621 l 92 699 q 260 694 190 694 l 397 701 l 379 621 q 331 605 344 617 q 313 565 317 593 l 267 251 q 264 211 264 238 m 513 906 l 511 889 q 276 753 393 825 l 258 760 l 226 807 l 436 993 l 453 992 l 513 906 m 746 900 l 743 883 q 510 747 626 819 l 492 753 l 460 800 l 669 986 l 686 983 l 746 900 z "},"Ų":{"ha":874,"x_min":83,"x_max":926,"o":"m 518 -335 q 409 -305 449 -335 q 369 -226 369 -275 q 400 -128 369 -178 q 503 -4 431 -78 q 389 -17 453 -17 q 104 229 104 -17 q 135 500 104 251 q 167 765 167 749 q 161 792 167 781 q 128 803 156 803 l 86 800 l 83 806 l 107 894 q 299 890 221 890 l 460 900 l 439 807 q 378 785 396 801 q 356 733 361 769 l 296 329 q 293 267 293 286 q 433 107 293 107 q 617 290 594 107 q 668 761 668 742 q 663 792 668 781 q 633 803 658 803 l 589 800 l 586 806 l 608 894 q 764 890 714 890 l 926 900 l 907 808 q 839 785 854 797 q 821 739 824 772 l 767 304 q 652 60 749 164 q 522 -93 556 -44 q 488 -172 488 -142 q 503 -219 488 -203 q 542 -235 519 -235 q 644 -201 586 -235 l 665 -242 q 518 -335 586 -311 z "},"ų":{"ha":740,"x_min":72,"x_max":772,"o":"m 317 -172 q 425 -4 317 -108 q 333 -12 383 -12 q 92 176 93 -12 q 115 381 92 186 q 139 589 139 576 q 135 610 139 601 q 110 618 131 618 l 75 617 l 72 621 l 93 699 q 261 694 192 694 l 399 701 l 381 621 q 331 605 346 617 q 313 565 317 593 l 268 251 q 265 211 265 236 q 369 96 265 96 q 506 224 488 96 q 544 585 544 569 q 540 609 544 600 q 518 618 536 618 l 483 617 l 481 621 l 501 699 q 631 694 589 694 l 772 701 l 754 622 q 701 603 714 613 q 686 569 689 594 l 646 243 q 547 42 632 128 q 421 -136 421 -89 q 433 -166 421 -154 q 464 -178 446 -178 q 547 -151 494 -178 l 565 -187 q 443 -261 500 -243 q 351 -237 385 -261 q 317 -172 317 -214 z "},"Ŵ":{"ha":1296,"x_min":53,"x_max":1365,"o":"m 74 894 q 231 890 179 890 q 457 903 317 890 l 463 892 l 446 808 q 359 790 381 803 q 338 738 338 776 q 386 179 338 642 l 406 179 q 471 339 426 229 q 614 682 561 561 q 615 709 615 693 q 610 740 615 725 q 587 788 607 775 q 519 803 567 801 l 514 813 l 536 894 q 710 890 657 890 q 939 903 792 890 l 944 892 l 928 808 q 839 790 860 803 q 818 739 818 776 q 868 179 818 663 l 888 179 q 1121 771 1121 724 q 1107 797 1121 789 q 1060 804 1093 804 l 1010 804 l 1004 814 l 1025 899 q 1217 890 1135 890 l 1365 894 l 1346 804 q 1299 785 1314 799 q 1267 732 1285 771 l 946 7 l 725 -21 l 672 481 l 658 481 l 464 7 l 242 -21 q 143 717 185 451 q 115 781 135 761 q 58 803 96 800 l 53 813 l 74 894 m 764 1063 l 583 982 l 563 988 l 536 1044 l 769 1217 l 797 1217 q 833 1185 797 1218 q 988 1044 957 1071 l 947 988 l 924 982 l 764 1063 z "},"ŵ":{"ha":1103,"x_min":51,"x_max":1147,"o":"m 353 153 l 511 535 l 511 575 q 493 610 508 600 q 439 619 478 619 l 435 628 l 453 699 q 611 694 557 694 l 800 703 l 806 694 l 790 622 q 721 607 738 617 q 704 569 704 597 l 740 153 l 758 153 q 933 594 933 558 q 924 613 933 608 q 888 618 914 618 l 850 618 l 844 628 l 863 700 q 1021 694 956 694 l 1147 697 l 1131 619 q 1094 604 1107 615 q 1068 564 1082 593 l 821 6 l 608 -17 l 569 350 l 558 350 l 414 6 l 201 -17 q 122 550 151 372 q 101 601 115 586 q 57 619 86 617 l 51 628 l 69 699 q 206 694 157 694 l 396 703 l 400 694 l 386 622 q 320 579 340 618 q 300 492 300 540 q 335 153 300 372 l 353 153 m 644 865 l 464 785 l 443 790 l 417 847 l 650 1019 l 678 1019 q 714 988 678 1021 q 868 847 838 874 l 828 790 l 804 785 l 644 865 z "},"Ŷ":{"ha":808,"x_min":47,"x_max":888,"o":"m 567 896 l 744 890 l 883 896 l 888 886 l 867 803 q 774 748 811 785 q 683 625 738 711 q 517 363 522 372 q 509 348 513 354 q 503 332 506 342 q 498 317 500 322 q 494 299 496 311 q 490 281 492 288 q 487 260 489 275 q 483 238 485 244 q 478 188 482 214 q 474 142 474 161 q 482 106 474 122 q 528 90 490 90 l 594 94 l 599 88 l 575 -6 q 369 0 421 0 q 140 -15 299 0 l 161 78 q 266 114 240 89 q 299 210 292 139 q 306 303 306 267 q 283 396 306 339 l 185 660 q 134 758 160 729 q 51 800 108 788 l 47 807 l 69 894 q 242 890 189 890 l 458 901 l 464 889 l 446 810 q 380 797 397 807 q 363 755 363 788 q 440 478 363 722 l 451 478 l 586 711 q 613 781 613 756 q 549 810 613 806 l 546 817 l 567 896 m 524 1063 l 343 982 l 322 988 l 296 1044 l 529 1217 l 557 1217 q 593 1185 557 1218 q 747 1044 717 1071 l 707 988 l 683 982 l 524 1063 z "},"ŷ":{"ha":711,"x_min":49,"x_max":757,"o":"m 481 699 l 636 694 l 753 699 l 757 690 l 739 617 q 665 571 696 601 q 592 479 633 540 l 464 286 q 438 224 442 254 q 425 120 425 136 q 433 92 425 104 q 471 79 440 79 l 526 82 l 531 76 l 511 -6 q 315 0 374 0 l 126 -11 l 144 69 q 233 94 211 76 q 264 196 257 115 q 265 231 265 206 q 246 303 265 257 l 160 511 q 119 580 142 557 q 53 615 97 603 l 49 621 l 68 697 q 218 694 175 694 l 401 703 l 407 692 l 392 624 q 342 615 356 622 q 328 592 328 607 q 386 386 328 578 l 399 386 l 494 550 q 517 601 517 588 q 467 622 517 622 l 464 629 l 481 699 m 449 865 l 268 785 l 247 790 l 221 847 l 454 1019 l 482 1019 q 518 988 482 1021 q 672 847 642 874 l 632 790 l 608 785 l 449 865 z "},"Ÿ":{"ha":808,"x_min":47,"x_max":888,"o":"m 567 896 l 744 890 l 883 896 l 888 886 l 867 803 q 774 748 811 785 q 683 625 738 711 q 517 363 522 372 q 509 348 513 354 q 503 332 506 342 q 498 317 500 322 q 494 299 496 311 q 490 281 492 288 q 487 260 489 275 q 483 238 485 244 q 478 188 482 214 q 474 142 474 161 q 482 106 474 122 q 528 90 490 90 l 594 94 l 599 88 l 575 -6 q 369 0 421 0 q 140 -15 299 0 l 161 78 q 266 114 240 89 q 299 210 292 139 q 306 303 306 267 q 283 396 306 339 l 185 660 q 134 758 160 729 q 51 800 108 788 l 47 807 l 69 894 q 242 890 189 890 l 458 901 l 464 889 l 446 810 q 380 797 397 807 q 363 755 363 788 q 440 478 363 722 l 451 478 l 586 711 q 613 781 613 756 q 549 810 613 806 l 546 817 l 567 896 m 733 1080 q 733 1060 733 1080 q 704 1010 733 1040 q 635 981 675 981 q 557 1053 557 981 q 587 1128 557 1099 q 656 1158 617 1158 q 715 1139 696 1158 q 733 1080 733 1119 m 389 981 q 317 1053 317 981 q 346 1128 317 1099 q 415 1158 375 1158 q 493 1086 493 1158 q 464 1010 493 1040 q 389 981 435 981 z "},"Ź":{"ha":779,"x_min":-7,"x_max":814,"o":"m 676 22 l 650 -4 l 122 4 l 18 -7 l -7 54 l 553 792 l 382 781 q 263 739 297 775 q 208 604 228 703 l 92 596 q 150 894 132 767 l 167 908 l 404 893 l 797 888 l 814 832 q 242 99 558 529 l 451 114 q 560 169 518 119 q 632 329 603 219 l 749 339 q 676 22 697 157 m 714 1076 l 707 1058 q 389 968 547 1018 l 371 981 l 351 1046 l 661 1190 l 679 1183 l 714 1076 z "},"ź":{"ha":671,"x_min":3,"x_max":692,"o":"m 583 18 l 561 -3 l 114 3 l 28 -6 l 3 47 l 453 607 l 326 597 q 232 565 258 592 q 190 465 206 539 l 82 457 q 129 699 115 597 l 143 708 l 339 697 l 675 694 l 692 646 q 232 89 479 408 l 390 103 q 478 146 446 108 q 533 265 511 183 l 642 275 q 583 18 600 125 m 628 879 l 621 861 q 303 771 461 821 l 285 783 l 265 849 l 575 993 l 593 986 l 628 879 z "},"Ż":{"ha":779,"x_min":-7,"x_max":814,"o":"m 676 22 l 650 -4 l 122 4 l 18 -7 l -7 54 l 553 792 l 382 781 q 263 739 297 775 q 208 604 228 703 l 92 596 q 150 894 132 767 l 167 908 l 404 893 l 797 888 l 814 832 q 242 99 558 529 l 451 114 q 560 169 518 119 q 632 329 603 219 l 749 339 q 676 22 697 157 m 621 1092 q 621 1069 621 1092 q 586 1010 621 1046 q 503 975 551 975 q 411 1061 411 975 q 447 1151 411 1115 q 529 1186 482 1186 q 599 1163 576 1186 q 621 1092 621 1139 z "},"ż":{"ha":671,"x_min":3,"x_max":692,"o":"m 583 18 l 561 -3 l 114 3 l 28 -6 l 3 47 l 453 607 l 326 597 q 232 565 258 592 q 190 465 206 539 l 82 457 q 129 699 115 597 l 143 708 l 339 697 l 675 694 l 692 646 q 232 89 479 408 l 390 103 q 478 146 446 108 q 533 265 511 183 l 642 275 q 583 18 600 125 m 543 895 q 543 872 543 895 q 508 813 543 849 q 425 778 474 778 q 333 864 333 778 q 369 953 333 918 q 451 989 404 989 q 521 965 499 989 q 543 895 543 942 z "},"Ž":{"ha":779,"x_min":-7,"x_max":814,"o":"m 676 22 l 650 -4 l 122 4 l 18 -7 l -7 54 l 553 792 l 382 781 q 263 739 297 775 q 208 604 228 703 l 92 596 q 150 894 132 767 l 167 908 l 404 893 l 797 888 l 814 832 q 242 99 558 529 l 451 114 q 560 169 518 119 q 632 329 603 219 l 749 339 q 676 22 697 157 m 519 1121 l 700 1201 l 721 1196 l 749 1139 l 514 967 l 488 967 q 297 1139 346 1099 l 336 1196 l 360 1201 l 519 1121 z "},"ž":{"ha":671,"x_min":3,"x_max":692,"o":"m 583 18 l 561 -3 l 114 3 l 28 -6 l 3 47 l 453 607 l 326 597 q 232 565 258 592 q 190 465 206 539 l 82 457 q 129 699 115 597 l 143 708 l 339 697 l 675 694 l 692 646 q 232 89 479 408 l 390 103 q 478 146 446 108 q 533 265 511 183 l 642 275 q 583 18 600 125 m 440 924 l 621 1004 l 642 999 l 669 942 l 435 769 l 408 769 q 218 942 267 901 l 257 999 l 281 1004 l 440 924 z "},"ƒ":{"ha":563,"x_min":-62,"x_max":628,"o":"m 496 831 q 587 818 546 831 q 628 789 628 806 q 614 719 628 768 q 589 654 600 671 l 568 653 q 449 728 507 728 q 399 707 417 728 q 375 658 381 686 q 358 504 369 635 l 528 506 l 533 499 l 519 414 l 351 417 l 324 51 q 241 -142 317 -60 q 60 -224 165 -224 q -23 -206 17 -224 q -62 -165 -62 -187 q -48 -97 -62 -142 q -19 -36 -33 -53 l 0 -36 q 38 -99 11 -74 q 99 -124 65 -124 q 172 0 167 -124 l 194 367 q 174 409 193 400 q 90 418 156 418 l 86 426 l 96 490 l 203 507 l 210 586 q 301 756 214 681 q 496 831 389 831 z "},"Ǻ":{"ha":843,"x_min":-54,"x_max":822,"o":"m 803 -4 q 642 0 696 0 q 408 -11 536 0 l 403 0 l 419 82 q 508 99 486 88 q 529 140 529 110 q 514 288 529 157 q 403 290 478 290 q 264 281 328 290 l 219 174 q 206 122 206 140 q 260 86 206 86 l 318 86 l 322 78 l 303 -8 q 108 0 193 0 l -54 -4 l -33 88 q 65 181 26 97 l 385 883 l 603 907 l 618 900 q 725 182 682 421 q 753 112 733 132 q 817 86 772 92 l 822 76 l 803 -4 m 406 396 q 504 401 443 396 l 465 711 l 446 711 l 313 396 l 406 396 m 519 990 q 575 1043 575 990 q 525 1088 575 1088 q 486 1074 500 1088 q 472 1037 472 1060 q 487 1002 472 1014 q 519 990 501 990 m 639 1055 q 639 1031 639 1055 q 601 965 639 1007 q 511 924 564 924 q 433 950 458 924 q 408 1028 408 976 q 447 1118 408 1079 q 538 1157 485 1157 q 615 1130 592 1157 q 639 1055 639 1103 m 710 1254 l 703 1239 q 417 1157 560 1203 l 400 1168 l 383 1228 l 661 1357 l 678 1351 l 710 1254 z "},"ǻ":{"ha":736,"x_min":-31,"x_max":706,"o":"m 438 214 l 342 215 q 240 210 279 215 l 210 136 q 199 101 199 114 q 239 76 199 76 l 283 76 l 288 68 l 272 -6 q 108 0 178 0 l -31 -3 l -12 75 q 64 143 35 83 l 318 689 l 529 708 l 542 700 q 631 150 599 314 q 652 94 636 111 q 700 75 668 78 l 706 67 l 689 -3 q 547 0 600 0 l 353 -8 l 347 0 l 361 74 q 431 85 415 78 q 447 114 447 93 q 438 214 447 131 m 354 314 q 429 318 392 314 l 400 543 l 382 543 l 282 314 l 354 314 m 435 800 q 490 853 490 800 q 440 897 490 897 q 401 883 415 897 q 388 847 388 869 q 402 812 388 824 q 435 800 417 800 m 554 865 q 554 841 554 865 q 517 775 554 817 q 426 733 479 733 q 349 760 374 733 q 324 838 324 786 q 362 928 324 889 q 453 967 400 967 q 531 940 507 967 q 554 865 554 913 m 614 1057 l 607 1042 q 321 960 464 1006 l 304 971 l 288 1031 l 565 1160 l 582 1154 l 614 1057 z "},"Ǽ":{"ha":1175,"x_min":-39,"x_max":1136,"o":"m 522 218 l 522 346 l 404 332 l 289 310 l 215 174 q 194 116 194 133 q 209 93 194 99 q 264 88 224 88 l 306 81 l 286 -8 q 245 -6 285 -7 q 151 -2 206 -4 q 61 0 96 0 l -39 -4 l -35 78 q 7 109 -19 81 q 58 181 33 138 l 403 772 q 372 803 399 803 l 331 800 l 322 813 l 344 896 q 672 892 344 892 q 1108 908 999 892 l 1118 893 q 1056 642 1079 771 l 929 632 q 940 716 940 681 q 909 764 940 751 q 806 776 878 776 q 720 768 735 776 q 706 738 706 760 l 711 485 l 842 501 l 974 528 l 986 513 l 956 397 l 832 389 l 713 374 l 718 201 q 738 131 719 153 q 800 108 757 108 q 945 135 910 108 q 1008 267 981 163 l 1126 276 l 1136 264 q 1067 6 1096 139 l 1051 -10 q 875 -3 1054 -7 q 626 0 696 0 q 390 -11 507 0 l 385 0 l 400 83 q 519 171 518 93 q 522 218 522 199 m 357 440 l 440 446 l 525 457 l 526 708 l 506 708 l 357 440 m 914 1168 l 913 1149 q 650 969 779 1065 l 629 975 l 588 1029 q 821 1267 706 1144 l 839 1265 l 914 1168 z "},"ǽ":{"ha":1014,"x_min":-17,"x_max":971,"o":"m 446 171 l 446 258 l 351 247 l 258 226 l 210 136 q 193 97 193 107 q 251 78 193 78 l 278 71 l 261 -6 q -17 -3 113 1 l -12 71 q 63 144 19 78 l 328 592 q 303 618 326 618 l 271 617 l 263 626 l 281 699 q 643 696 432 696 q 947 708 854 696 l 954 696 q 906 493 925 594 l 786 485 q 796 548 796 522 q 772 583 796 574 q 682 593 747 593 q 617 564 617 593 l 624 385 l 722 399 l 833 422 l 846 407 l 819 307 l 715 297 l 625 286 l 631 169 q 693 96 632 96 q 803 117 776 96 q 853 218 831 139 l 963 226 l 971 214 q 914 6 938 114 l 900 -7 q 811 -4 842 -6 q 735 -3 781 -3 q 524 0 597 0 l 342 -8 l 336 0 l 350 74 q 421 94 400 79 q 444 133 442 108 q 446 171 446 158 m 319 344 l 449 358 l 450 540 l 429 540 l 319 344 m 786 971 l 785 951 q 522 772 651 868 l 501 778 l 460 832 q 693 1069 578 947 l 711 1068 l 786 971 z "},"Ǿ":{"ha":901,"x_min":44,"x_max":890,"o":"m 44 354 q 179 754 44 601 q 535 907 314 907 q 664 888 603 907 l 739 1013 l 824 972 l 828 954 l 758 840 q 890 542 890 743 q 753 139 890 294 q 396 -17 615 -17 q 264 4 325 -17 l 171 -149 l 88 -108 l 83 -94 l 174 53 q 44 354 44 151 m 432 101 q 608 210 543 101 q 674 515 674 319 q 650 661 674 599 l 340 131 q 432 101 378 101 m 257 363 q 276 224 257 285 l 582 750 q 494 776 542 776 q 321 667 385 776 q 257 363 257 557 m 715 1083 l 708 1065 q 390 975 549 1025 l 372 988 l 353 1053 l 663 1197 l 681 1190 l 715 1083 z "},"ǿ":{"ha":765,"x_min":44,"x_max":743,"o":"m 44 281 q 153 592 44 476 q 446 708 261 708 q 554 694 508 708 l 625 799 l 708 757 l 710 742 l 646 647 q 743 419 743 572 q 633 106 743 224 q 339 -12 522 -12 q 229 3 282 -12 l 146 -121 l 65 -78 l 63 -67 l 140 49 q 44 281 44 126 m 368 93 q 498 172 451 93 q 544 400 544 251 q 536 479 544 446 l 303 113 q 368 93 331 93 m 599 919 l 592 901 q 274 811 432 861 l 256 824 l 236 889 l 546 1033 l 564 1026 l 599 919 m 240 285 q 246 211 240 239 l 476 575 q 413 592 450 592 q 286 513 332 592 q 240 285 240 433 z "},"Ș":{"ha":725,"x_min":14,"x_max":724,"o":"m 268 -17 q 144 -3 206 -17 q 24 36 83 10 l 14 56 q 67 290 51 175 l 182 300 q 176 217 176 261 q 194 146 176 172 q 295 104 219 104 q 413 137 371 104 q 456 217 456 169 q 419 294 456 264 q 326 356 383 325 q 249 399 268 388 q 194 435 229 410 q 142 483 158 461 q 96 608 96 542 q 203 822 96 738 q 476 907 310 907 q 686 881 596 907 l 715 871 l 724 853 q 663 615 686 742 l 558 607 l 547 615 q 557 688 557 663 q 529 759 557 738 q 440 781 501 781 q 340 749 379 781 q 300 669 300 717 q 397 553 300 611 q 465 517 411 544 q 541 473 518 489 q 600 428 564 457 q 665 285 665 371 q 557 67 665 150 q 268 -17 449 -17 m 179 -119 q 285 -71 240 -71 q 358 -103 331 -71 q 385 -198 385 -136 q 327 -326 385 -260 q 181 -442 269 -393 l 129 -400 l 129 -376 q 197 -308 171 -347 q 224 -235 224 -269 q 175 -139 224 -178 l 179 -119 z "},"ș":{"ha":626,"x_min":19,"x_max":619,"o":"m 235 -12 q 129 -2 181 -12 q 28 29 78 8 l 19 46 q 63 228 50 143 l 168 236 q 165 179 165 211 q 265 94 165 94 q 348 116 317 94 q 379 171 379 138 q 350 226 379 204 q 269 274 321 249 q 197 313 218 300 q 144 350 175 325 q 85 469 85 396 q 176 642 85 575 q 410 708 267 708 q 613 679 514 708 l 619 663 q 569 476 589 575 l 472 469 l 463 476 q 469 526 469 510 q 378 594 469 594 q 301 573 332 594 q 271 518 271 551 q 353 433 271 476 q 398 411 364 428 q 449 385 432 394 q 494 356 467 375 q 535 321 521 338 q 571 225 571 278 q 480 52 571 117 q 235 -12 389 -12 m 154 -119 q 260 -71 215 -71 q 333 -103 306 -71 q 360 -198 360 -136 q 302 -326 360 -260 q 156 -442 244 -393 l 104 -400 l 104 -376 q 172 -308 146 -347 q 199 -235 199 -269 q 150 -139 199 -178 l 154 -119 z "},"Ț":{"ha":765,"x_min":40,"x_max":813,"o":"m 675 613 q 656 754 675 726 q 539 786 638 782 q 484 438 519 678 q 449 160 449 197 q 463 107 449 124 q 511 90 478 90 l 585 94 l 589 88 l 565 -6 q 331 0 401 0 l 104 -8 l 126 82 q 241 115 215 90 q 278 229 267 140 l 346 786 q 244 773 268 783 q 210 753 219 763 q 189 719 200 744 q 156 604 172 685 l 40 596 q 92 892 72 757 l 110 907 l 240 892 l 660 892 l 800 907 l 813 892 l 790 604 l 675 596 q 675 613 675 604 m 214 -119 q 320 -71 275 -71 q 392 -103 365 -71 q 419 -198 419 -136 q 362 -326 419 -260 q 215 -442 304 -393 l 164 -400 l 164 -376 q 232 -308 206 -347 q 258 -235 258 -269 q 210 -139 258 -178 l 214 -119 z "},"ț":{"ha":663,"x_min":40,"x_max":689,"o":"m 564 464 q 549 574 564 551 q 464 599 533 596 q 397 133 397 204 q 449 79 397 79 l 508 82 l 511 76 l 492 -6 q 292 0 351 0 l 94 -8 l 113 72 q 206 97 185 78 q 236 179 228 117 l 288 599 q 192 573 214 596 q 147 456 169 550 l 40 449 q 81 694 67 583 l 96 708 l 211 696 l 557 696 l 678 708 l 689 694 l 669 456 l 564 449 q 564 464 564 457 m 183 -119 q 290 -71 244 -71 q 362 -103 335 -71 q 389 -198 389 -136 q 331 -326 389 -260 q 185 -442 274 -393 l 133 -400 l 133 -376 q 201 -308 175 -347 q 228 -235 228 -269 q 179 -139 228 -178 l 183 -119 z "},"ȷ":{"ha":394,"x_min":-42,"x_max":419,"o":"m 107 136 q 161 589 161 576 q 157 610 161 601 q 131 619 153 619 l 85 615 l 79 626 l 96 694 l 239 696 l 419 704 l 403 624 q 356 607 367 617 q 339 565 344 597 q 268 106 306 383 q 188 -67 254 -1 q -11 -169 121 -133 l -42 -124 l -37 -110 q 65 -15 36 -64 q 107 136 93 33 z "},"ˆ":{"ha":533,"x_min":107,"x_max":544,"o":"m 475 738 q 332 853 356 838 q 163 738 328 850 l 140 743 l 107 800 q 338 1014 157 842 l 365 1014 q 544 800 500 846 l 497 743 l 475 738 z "},"ˇ":{"ha":533,"x_min":119,"x_max":565,"o":"m 119 943 l 168 1001 l 190 1006 q 336 888 249 953 q 511 1006 457 965 l 531 1001 l 565 943 q 329 724 468 857 l 301 724 q 119 943 206 846 z "},"˘":{"ha":533,"x_min":142,"x_max":543,"o":"m 210 986 q 338 892 235 892 q 488 986 440 892 l 513 981 l 543 933 q 458 810 515 860 q 322 760 401 760 q 197 810 242 760 q 142 933 153 860 l 185 981 l 210 986 z "},"˙":{"ha":533,"x_min":233,"x_max":443,"o":"m 443 915 q 443 891 443 915 q 408 833 443 868 q 325 797 372 797 q 256 820 278 797 q 233 890 233 843 q 269 973 233 938 q 351 1008 304 1008 q 421 985 399 1008 q 443 915 443 961 z "},"˚":{"ha":533,"x_min":208,"x_max":464,"o":"m 332 828 q 392 886 392 828 q 338 936 392 936 q 279 879 279 936 q 296 841 279 854 q 332 828 313 828 m 464 900 q 464 874 464 900 q 422 801 464 847 q 322 754 381 754 q 235 784 263 754 q 208 870 208 814 q 251 969 208 926 q 352 1013 293 1013 q 438 983 411 1013 q 464 900 464 953 z "},"˛":{"ha":535,"x_min":47,"x_max":343,"o":"m 194 -335 q 87 -305 126 -335 q 47 -221 47 -275 q 94 -108 47 -167 q 258 58 140 -50 l 333 58 q 197 -95 228 -53 q 165 -169 165 -137 q 222 -235 165 -235 q 322 -201 264 -235 l 343 -242 q 194 -335 264 -311 z "},"˜":{"ha":533,"x_min":83,"x_max":588,"o":"m 229 960 q 331 937 253 960 q 425 914 408 914 q 506 972 453 914 l 522 992 l 538 992 l 588 940 l 585 926 l 463 785 l 440 779 q 340 803 417 779 q 246 826 263 826 q 205 807 229 826 q 147 749 181 788 l 132 749 l 83 799 l 85 814 l 207 954 l 229 960 z "},"˝":{"ha":533,"x_min":76,"x_max":547,"o":"m 344 940 l 346 925 q 140 738 242 836 l 121 739 l 76 778 l 250 1008 l 265 1010 l 344 940 m 546 940 l 547 925 q 340 738 443 836 l 322 739 l 278 778 l 450 1008 l 467 1010 l 546 940 z "},"̣":{"ha":422,"x_min":40,"x_max":257,"o":"m 257 -172 q 257 -197 257 -172 q 222 -257 257 -221 q 138 -293 188 -293 q 64 -269 88 -293 q 40 -196 40 -244 q 76 -111 40 -147 q 161 -75 111 -75 q 234 -99 211 -75 q 257 -172 257 -124 z "},"Δ":{"ha":817,"x_min":-24,"x_max":750,"o":"m -11 0 l -24 18 l 369 885 l 599 908 l 611 908 q 750 10 683 367 l 738 0 l -11 0 m 458 721 l 436 721 l 189 132 l 524 132 l 458 721 z "},"Ω":{"ha":1150,"x_min":8,"x_max":1114,"o":"m 581 65 q 796 517 796 257 q 751 709 796 644 q 626 774 707 774 q 451 675 515 774 q 388 393 388 576 q 501 67 388 181 l 469 -4 l 394 8 l 29 -7 l 8 19 q 26 286 17 97 l 126 296 q 126 275 126 285 q 147 156 126 194 q 224 115 167 118 l 319 110 q 178 447 178 249 q 314 776 178 644 q 649 908 450 908 q 916 816 814 908 q 1018 583 1018 724 q 951 322 1018 442 q 764 108 885 201 l 872 115 q 959 156 928 118 q 1013 286 990 193 l 1114 296 q 1064 19 1079 133 l 1038 -7 l 672 8 l 594 -3 l 581 65 z "},"π":{"ha":835,"x_min":13,"x_max":857,"o":"m 678 508 q 628 218 628 269 q 650 147 628 167 q 726 128 672 128 l 738 107 q 680 36 735 89 q 608 -17 625 -17 q 483 28 519 -17 q 457 121 457 61 q 460 165 457 142 q 508 544 508 526 q 499 572 508 563 q 441 581 490 581 q 379 571 392 581 q 360 519 367 561 q 292 46 318 256 l 279 -92 l 267 -106 l 100 -136 l 92 -117 q 145 192 100 -99 q 190 517 190 482 q 183 563 190 553 q 156 572 175 572 q 75 519 122 572 l 58 503 l 47 501 l 13 560 l 14 571 l 131 692 l 153 701 q 409 694 238 701 q 617 688 581 688 q 850 701 697 688 l 857 692 l 826 594 l 817 585 q 715 571 740 585 q 678 508 689 557 z "},"Ẁ":{"ha":1296,"x_min":53,"x_max":1365,"o":"m 74 894 q 231 890 179 890 q 457 903 317 890 l 463 892 l 446 808 q 359 790 381 803 q 338 738 338 776 q 386 179 338 642 l 406 179 q 471 339 426 229 q 614 682 561 561 q 615 709 615 693 q 610 740 615 725 q 587 788 607 775 q 519 803 567 801 l 514 813 l 536 894 q 710 890 657 890 q 939 903 792 890 l 944 892 l 928 808 q 839 790 860 803 q 818 739 818 776 q 868 179 818 663 l 888 179 q 1121 771 1121 724 q 1107 797 1121 789 q 1060 804 1093 804 l 1010 804 l 1004 814 l 1025 899 q 1217 890 1135 890 l 1365 894 l 1346 804 q 1299 785 1314 799 q 1267 732 1285 771 l 946 7 l 725 -21 l 672 481 l 658 481 l 464 7 l 242 -21 q 143 717 185 451 q 115 781 135 761 q 58 803 96 800 l 53 813 l 74 894 m 550 1058 l 543 1076 l 578 1183 l 596 1190 q 906 1046 756 1111 l 888 981 l 868 968 q 550 1058 699 1021 z "},"ẁ":{"ha":1103,"x_min":51,"x_max":1147,"o":"m 353 153 l 511 535 l 511 575 q 493 610 508 600 q 439 619 478 619 l 435 628 l 453 699 q 611 694 557 694 l 800 703 l 806 694 l 790 622 q 721 607 738 617 q 704 569 704 597 l 740 153 l 758 153 q 933 594 933 558 q 924 613 933 608 q 888 618 914 618 l 850 618 l 844 628 l 863 700 q 1021 694 956 694 l 1147 697 l 1131 619 q 1094 604 1107 615 q 1068 564 1082 593 l 821 6 l 608 -17 l 569 350 l 558 350 l 414 6 l 201 -17 q 122 550 151 372 q 101 601 115 586 q 57 619 86 617 l 51 628 l 69 699 q 206 694 157 694 l 396 703 l 400 694 l 386 622 q 320 579 340 618 q 300 492 300 540 q 335 153 300 372 l 353 153 m 442 861 l 435 879 l 469 986 l 488 993 q 797 849 647 914 l 779 783 l 760 771 q 442 861 639 808 z "},"Ẃ":{"ha":1296,"x_min":53,"x_max":1365,"o":"m 74 894 q 231 890 179 890 q 457 903 317 890 l 463 892 l 446 808 q 359 790 381 803 q 338 738 338 776 q 386 179 338 642 l 406 179 q 471 339 426 229 q 614 682 561 561 q 615 709 615 693 q 610 740 615 725 q 587 788 607 775 q 519 803 567 801 l 514 813 l 536 894 q 710 890 657 890 q 939 903 792 890 l 944 892 l 928 808 q 839 790 860 803 q 818 739 818 776 q 868 179 818 663 l 888 179 q 1121 771 1121 724 q 1107 797 1121 789 q 1060 804 1093 804 l 1010 804 l 1004 814 l 1025 899 q 1217 890 1135 890 l 1365 894 l 1346 804 q 1299 785 1314 799 q 1267 732 1285 771 l 946 7 l 725 -21 l 672 481 l 658 481 l 464 7 l 242 -21 q 143 717 185 451 q 115 781 135 761 q 58 803 96 800 l 53 813 l 74 894 m 971 1076 l 964 1058 q 646 968 804 1018 l 628 981 l 608 1046 l 918 1190 l 936 1183 l 971 1076 z "},"ẃ":{"ha":1103,"x_min":51,"x_max":1147,"o":"m 353 153 l 511 535 l 511 575 q 493 610 508 600 q 439 619 478 619 l 435 628 l 453 699 q 611 694 557 694 l 800 703 l 806 694 l 790 622 q 721 607 738 617 q 704 569 704 597 l 740 153 l 758 153 q 933 594 933 558 q 924 613 933 608 q 888 618 914 618 l 850 618 l 844 628 l 863 700 q 1021 694 956 694 l 1147 697 l 1131 619 q 1094 604 1107 615 q 1068 564 1082 593 l 821 6 l 608 -17 l 569 350 l 558 350 l 414 6 l 201 -17 q 122 550 151 372 q 101 601 115 586 q 57 619 86 617 l 51 628 l 69 699 q 206 694 157 694 l 396 703 l 400 694 l 386 622 q 320 579 340 618 q 300 492 300 540 q 335 153 300 372 l 353 153 m 836 879 l 829 861 q 511 771 669 821 l 493 783 l 474 849 l 783 993 l 801 986 l 836 879 z "},"Ẅ":{"ha":1296,"x_min":53,"x_max":1365,"o":"m 74 894 q 231 890 179 890 q 457 903 317 890 l 463 892 l 446 808 q 359 790 381 803 q 338 738 338 776 q 386 179 338 642 l 406 179 q 471 339 426 229 q 614 682 561 561 q 615 709 615 693 q 610 740 615 725 q 587 788 607 775 q 519 803 567 801 l 514 813 l 536 894 q 710 890 657 890 q 939 903 792 890 l 944 892 l 928 808 q 839 790 860 803 q 818 739 818 776 q 868 179 818 663 l 888 179 q 1121 771 1121 724 q 1107 797 1121 789 q 1060 804 1093 804 l 1010 804 l 1004 814 l 1025 899 q 1217 890 1135 890 l 1365 894 l 1346 804 q 1299 785 1314 799 q 1267 732 1285 771 l 946 7 l 725 -21 l 672 481 l 658 481 l 464 7 l 242 -21 q 143 717 185 451 q 115 781 135 761 q 58 803 96 800 l 53 813 l 74 894 m 972 1080 q 972 1060 972 1080 q 943 1010 972 1040 q 874 981 914 981 q 796 1053 796 981 q 826 1128 796 1099 q 895 1158 856 1158 q 953 1139 935 1158 q 972 1080 972 1119 m 628 981 q 556 1053 556 981 q 585 1128 556 1099 q 654 1158 614 1158 q 732 1086 732 1158 q 703 1010 732 1040 q 628 981 674 981 z "},"ẅ":{"ha":1103,"x_min":51,"x_max":1147,"o":"m 353 153 l 511 535 l 511 575 q 493 610 508 600 q 439 619 478 619 l 435 628 l 453 699 q 611 694 557 694 l 800 703 l 806 694 l 790 622 q 721 607 738 617 q 704 569 704 597 l 740 153 l 758 153 q 933 594 933 558 q 924 613 933 608 q 888 618 914 618 l 850 618 l 844 628 l 863 700 q 1021 694 956 694 l 1147 697 l 1131 619 q 1094 604 1107 615 q 1068 564 1082 593 l 821 6 l 608 -17 l 569 350 l 558 350 l 414 6 l 201 -17 q 122 550 151 372 q 101 601 115 586 q 57 619 86 617 l 51 628 l 69 699 q 206 694 157 694 l 396 703 l 400 694 l 386 622 q 320 579 340 618 q 300 492 300 540 q 335 153 300 372 l 353 153 m 854 890 q 854 870 854 890 q 825 820 854 850 q 756 790 796 790 q 678 863 678 790 q 708 938 678 908 q 777 968 738 968 q 835 949 817 968 q 854 890 854 929 m 510 790 q 438 863 438 790 q 467 938 438 908 q 536 968 496 968 q 614 896 614 968 q 585 820 614 850 q 510 790 556 790 z "},"Ỳ":{"ha":808,"x_min":47,"x_max":888,"o":"m 567 896 l 744 890 l 883 896 l 888 886 l 867 803 q 774 748 811 785 q 683 625 738 711 q 517 363 522 372 q 509 348 513 354 q 503 332 506 342 q 498 317 500 322 q 494 299 496 311 q 490 281 492 288 q 487 260 489 275 q 483 238 485 244 q 478 188 482 214 q 474 142 474 161 q 482 106 474 122 q 528 90 490 90 l 594 94 l 599 88 l 575 -6 q 369 0 421 0 q 140 -15 299 0 l 161 78 q 266 114 240 89 q 299 210 292 139 q 306 303 306 267 q 283 396 306 339 l 185 660 q 134 758 160 729 q 51 800 108 788 l 47 807 l 69 894 q 242 890 189 890 l 458 901 l 464 889 l 446 810 q 380 797 397 807 q 363 755 363 788 q 440 478 363 722 l 451 478 l 586 711 q 613 781 613 756 q 549 810 613 806 l 546 817 l 567 896 m 303 1058 l 296 1076 l 331 1183 l 349 1190 q 658 1046 508 1111 l 640 981 l 621 968 q 303 1058 451 1021 z "},"ỳ":{"ha":711,"x_min":49,"x_max":757,"o":"m 481 699 l 636 694 l 753 699 l 757 690 l 739 617 q 665 571 696 601 q 592 479 633 540 l 464 286 q 438 224 442 254 q 425 120 425 136 q 433 92 425 104 q 471 79 440 79 l 526 82 l 531 76 l 511 -6 q 315 0 374 0 l 126 -11 l 144 69 q 233 94 211 76 q 264 196 257 115 q 265 231 265 206 q 246 303 265 257 l 160 511 q 119 580 142 557 q 53 615 97 603 l 49 621 l 68 697 q 218 694 175 694 l 401 703 l 407 692 l 392 624 q 342 615 356 622 q 328 592 328 607 q 386 386 328 578 l 399 386 l 494 550 q 517 601 517 588 q 467 622 517 622 l 464 629 l 481 699 m 233 861 l 226 879 l 261 986 l 279 993 q 589 849 439 914 l 571 783 l 551 771 q 233 861 431 808 z "},"–":{"ha":607,"x_min":-12,"x_max":629,"o":"m 603 296 l -4 294 l -12 313 l 15 418 l 338 418 q 622 424 549 418 l 629 403 l 603 296 z "},"—":{"ha":1169,"x_min":-12,"x_max":1192,"o":"m 1164 296 l -4 294 l -12 313 l 15 418 l 600 418 q 1183 424 1122 418 l 1192 403 l 1164 296 z "},"‘":{"ha":297,"x_min":85,"x_max":340,"o":"m 290 586 q 184 538 229 538 q 112 569 139 538 q 85 663 85 601 q 142 792 85 725 q 289 908 200 858 l 340 867 l 340 843 q 272 776 299 815 q 246 700 246 736 q 294 606 246 644 l 290 586 z "},"’":{"ha":297,"x_min":57,"x_max":313,"o":"m 107 860 q 214 908 169 908 q 285 876 258 908 q 313 781 313 843 q 255 653 313 719 q 108 538 197 586 l 57 579 l 57 603 q 125 669 99 631 q 151 744 151 708 q 103 840 151 803 l 107 860 z "},"‚":{"ha":318,"x_min":-35,"x_max":231,"o":"m 26 150 q 133 197 89 197 q 204 164 178 197 q 231 66 231 131 q 169 -71 231 1 q 18 -194 108 -143 l -35 -153 l -35 -129 q 38 -56 10 -99 q 65 37 65 -12 q 24 131 65 86 l 26 150 z "},"“":{"ha":547,"x_min":168,"x_max":672,"o":"m 622 586 q 516 538 561 538 q 444 569 471 538 q 417 663 417 601 q 474 792 417 725 q 621 908 532 858 l 672 867 l 672 843 q 604 776 631 815 q 578 700 578 736 q 626 606 578 644 l 622 586 m 374 586 q 267 538 313 538 q 195 569 222 538 q 168 663 168 601 q 226 792 168 725 q 372 908 283 858 l 424 867 l 424 843 q 356 776 382 815 q 329 700 329 736 q 378 606 329 644 l 374 586 z "},"”":{"ha":547,"x_min":146,"x_max":650,"o":"m 444 860 q 551 908 507 908 q 623 876 596 908 q 650 781 650 843 q 592 653 650 719 q 446 538 535 586 l 394 579 l 394 603 q 463 669 436 631 q 489 744 489 708 q 440 840 489 803 l 444 860 m 196 860 q 303 908 258 908 q 374 876 347 908 q 401 781 401 843 q 344 653 401 719 q 197 538 286 586 l 146 579 l 146 603 q 214 669 188 631 q 240 744 240 708 q 192 840 240 803 l 196 860 z "},"„":{"ha":567,"x_min":-26,"x_max":481,"o":"m 24 150 q 131 197 86 197 q 202 165 175 197 q 229 72 229 133 q 172 -57 229 10 q 25 -174 114 -124 l -26 -132 l -26 -108 q 42 -41 15 -81 q 68 35 68 -1 q 21 131 68 90 l 24 150 m 275 150 q 382 197 338 197 q 453 165 426 197 q 481 72 481 133 q 423 -57 481 10 q 276 -174 365 -124 l 225 -132 l 225 -108 q 293 -41 267 -81 q 319 35 319 -1 q 272 131 319 90 l 275 150 z "},"†":{"ha":667,"x_min":69,"x_max":663,"o":"m 461 822 l 471 811 l 439 564 l 651 567 l 663 551 l 639 440 l 422 440 l 354 -118 l 232 -126 l 221 -114 l 290 440 l 78 440 l 69 456 l 92 564 l 306 564 l 335 813 l 461 822 z "},"‡":{"ha":665,"x_min":31,"x_max":665,"o":"m 461 822 l 471 811 l 442 590 l 654 592 l 665 578 l 642 467 l 425 467 l 399 247 l 614 249 l 624 235 l 600 124 l 383 124 l 354 -118 l 232 -126 l 221 -114 l 250 124 l 39 124 l 31 138 l 53 246 l 265 247 l 293 467 l 82 467 l 72 482 l 94 590 l 308 590 l 335 813 l 461 822 z "},"•":{"ha":456,"x_min":65,"x_max":393,"o":"m 393 342 q 393 305 393 342 q 340 213 393 268 q 213 157 288 157 q 101 195 138 157 q 65 308 65 233 q 118 438 65 382 q 245 493 171 493 q 356 454 319 493 q 393 342 393 415 z "},"․":{"ha":319,"x_min":24,"x_max":240,"o":"m 240 107 q 240 83 240 107 q 205 22 240 58 q 119 -15 169 -15 q 47 9 69 -15 q 24 83 24 33 q 59 168 24 132 q 144 204 94 204 q 217 180 193 204 q 240 107 240 156 z "},"‥":{"ha":615,"x_min":24,"x_max":542,"o":"m 240 107 q 240 83 240 107 q 205 22 240 58 q 119 -15 169 -15 q 47 9 69 -15 q 24 83 24 33 q 59 168 24 132 q 144 204 94 204 q 217 180 193 204 q 240 107 240 156 m 542 107 q 542 83 542 107 q 506 22 542 58 q 421 -15 471 -15 q 348 9 371 -15 q 325 83 325 33 q 360 168 325 132 q 445 204 396 204 q 518 180 494 204 q 542 107 542 156 z "},"…":{"ha":910,"x_min":26,"x_max":835,"o":"m 538 107 q 538 83 538 107 q 502 22 538 58 q 417 -15 467 -15 q 344 9 367 -15 q 321 83 321 33 q 356 168 321 132 q 441 204 392 204 q 514 180 490 204 q 538 107 538 156 m 835 107 q 835 83 835 107 q 799 22 835 58 q 714 -15 764 -15 q 641 9 664 -15 q 618 83 618 33 q 653 168 618 132 q 738 204 689 204 q 811 180 788 204 q 835 107 835 156 m 243 107 q 243 83 243 107 q 208 22 243 58 q 122 -15 172 -15 q 49 9 72 -15 q 26 83 26 33 q 62 168 26 132 q 147 204 97 204 q 219 180 196 204 q 243 107 243 156 z "},"‰":{"ha":1410,"x_min":61,"x_max":1396,"o":"m 261 567 q 381 672 381 567 q 352 740 381 715 q 269 765 324 765 q 151 660 151 765 q 181 590 151 613 q 261 567 211 567 m 233 429 q 108 480 154 429 q 61 621 61 531 q 128 829 61 750 q 303 908 196 908 q 428 856 383 908 q 472 719 472 804 q 407 510 472 592 q 233 429 342 429 m 624 215 q 739 122 624 122 q 854 226 854 122 q 826 296 854 271 q 742 321 797 321 q 655 293 686 321 q 624 215 624 265 m 706 -17 q 581 35 626 -17 q 535 175 535 86 q 602 383 535 304 q 776 463 669 463 q 901 410 857 463 q 946 274 946 358 q 880 65 946 146 q 706 -17 814 -17 m 1074 215 q 1188 122 1074 122 q 1303 226 1303 122 q 1275 296 1303 271 q 1192 321 1247 321 q 1105 293 1136 321 q 1074 215 1074 265 m 1156 -17 q 1031 35 1076 -17 q 985 175 985 86 q 1052 383 985 304 q 1225 463 1119 463 q 1351 410 1306 463 q 1396 274 1396 358 q 1330 65 1396 146 q 1156 -17 1264 -17 m 836 907 l 846 881 q 476 315 601 510 l 196 -129 l 106 -92 l 99 -72 q 386 367 267 178 l 750 942 l 836 907 z "},"‹":{"ha":356,"x_min":18,"x_max":326,"o":"m 185 318 l 278 118 l 269 96 l 208 61 q 18 299 174 113 l 21 328 q 269 571 219 515 l 324 536 l 326 514 l 185 318 z "},"›":{"ha":356,"x_min":31,"x_max":339,"o":"m 86 61 l 32 96 l 31 118 q 72 175 38 129 q 169 314 163 297 q 147 364 167 322 q 105 455 128 406 q 78 513 82 504 l 86 535 l 147 571 q 339 332 181 521 l 335 304 q 86 61 138 117 z "}}}
